G04 #@! TF.GenerationSoftware,KiCad,Pcbnew,(5.0.1-3-g963ef8bb5)*
G04 #@! TF.CreationDate,2020-12-22T09:25:36-05:00*
G04 #@! TF.ProjectId,STM32F4_Breakout,53544D333246345F427265616B6F7574,rev?*
G04 #@! TF.SameCoordinates,Original*
G04 #@! TF.FileFunction,Copper,L2,Inr,Plane*
G04 #@! TF.FilePolarity,Positive*
%FSLAX46Y46*%
G04 Gerber Fmt 4.6, Leading zero omitted, Abs format (unit mm)*
G04 Created by KiCad (PCBNEW (5.0.1-3-g963ef8bb5)) date Tuesday, December 22, 2020 at 09:25:36 am*
%MOMM*%
%LPD*%
G01*
G04 APERTURE LIST*
G04 #@! TA.AperFunction,ViaPad*
%ADD10C,8.600000*%
G04 #@! TD*
G04 #@! TA.AperFunction,ViaPad*
%ADD11C,0.900000*%
G04 #@! TD*
G04 #@! TA.AperFunction,ViaPad*
%ADD12R,1.700000X1.700000*%
G04 #@! TD*
G04 #@! TA.AperFunction,ViaPad*
%ADD13O,1.700000X1.700000*%
G04 #@! TD*
G04 #@! TA.AperFunction,ViaPad*
%ADD14C,0.800000*%
G04 #@! TD*
G04 #@! TA.AperFunction,ViaPad*
%ADD15C,1.000000*%
G04 #@! TD*
G04 #@! TA.AperFunction,Conductor*
%ADD16C,0.500000*%
G04 #@! TD*
G04 #@! TA.AperFunction,Conductor*
%ADD17C,0.254000*%
G04 #@! TD*
G04 APERTURE END LIST*
D10*
G04 #@! TO.N,GND*
G04 #@! TO.C,H1*
X47000000Y-92000000D03*
D11*
X50225000Y-92000000D03*
X49280419Y-94280419D03*
X47000000Y-95225000D03*
X44719581Y-94280419D03*
X43775000Y-92000000D03*
X44719581Y-89719581D03*
X47000000Y-88775000D03*
X49280419Y-89719581D03*
G04 #@! TD*
G04 #@! TO.N,GND*
G04 #@! TO.C,H2*
X89280419Y-49719581D03*
X87000000Y-48775000D03*
X84719581Y-49719581D03*
X83775000Y-52000000D03*
X84719581Y-54280419D03*
X87000000Y-55225000D03*
X89280419Y-54280419D03*
X90225000Y-52000000D03*
D10*
X87000000Y-52000000D03*
G04 #@! TD*
G04 #@! TO.N,GND*
G04 #@! TO.C,H3*
X87000000Y-92000000D03*
D11*
X90225000Y-92000000D03*
X89280419Y-94280419D03*
X87000000Y-95225000D03*
X84719581Y-94280419D03*
X83775000Y-92000000D03*
X84719581Y-89719581D03*
X87000000Y-88775000D03*
X89280419Y-89719581D03*
G04 #@! TD*
G04 #@! TO.N,GND*
G04 #@! TO.C,H4*
X49280419Y-49719581D03*
X47000000Y-48775000D03*
X44719581Y-49719581D03*
X43775000Y-52000000D03*
X44719581Y-54280419D03*
X47000000Y-55225000D03*
X49280419Y-54280419D03*
X50225000Y-52000000D03*
D10*
X47000000Y-52000000D03*
G04 #@! TD*
D12*
G04 #@! TO.N,USART1_RX*
G04 #@! TO.C,J1*
X89700000Y-71300000D03*
D13*
G04 #@! TO.N,USART1_TX*
X89700000Y-73840000D03*
G04 #@! TD*
D12*
G04 #@! TO.N,VCC*
G04 #@! TO.C,J2*
X44300000Y-82800000D03*
D13*
G04 #@! TO.N,GND*
X44300000Y-80260000D03*
G04 #@! TD*
G04 #@! TO.N,GND*
G04 #@! TO.C,J3*
X59140000Y-49300000D03*
D12*
G04 #@! TO.N,+3V3*
X56600000Y-49300000D03*
G04 #@! TD*
D13*
G04 #@! TO.N,I2C1_SCL*
G04 #@! TO.C,J5*
X67340000Y-49300000D03*
D12*
G04 #@! TO.N,I2C1_SDA*
X64800000Y-49300000D03*
G04 #@! TD*
D13*
G04 #@! TO.N,SPI1_CS*
G04 #@! TO.C,J6*
X63180000Y-94700000D03*
G04 #@! TO.N,SPI1_SCK*
X65720000Y-94700000D03*
G04 #@! TO.N,SPI1_MISO*
X68260000Y-94700000D03*
D12*
G04 #@! TO.N,SPI1_MOSI*
X70800000Y-94700000D03*
G04 #@! TD*
D14*
G04 #@! TO.N,GND*
X55300000Y-73000000D03*
X58200000Y-67600000D03*
D15*
X43500000Y-70250000D03*
X43500000Y-67750000D03*
X45500000Y-72750000D03*
X43500000Y-72750000D03*
X43500000Y-75250000D03*
X45500000Y-75250000D03*
D14*
X64000000Y-62750000D03*
X65000000Y-62750000D03*
X59500000Y-63400000D03*
X75900000Y-65700000D03*
X73100000Y-65000000D03*
X77400000Y-68500000D03*
X74900000Y-78600000D03*
X74300000Y-79600000D03*
X74300000Y-80500000D03*
X70200000Y-82000000D03*
X68700000Y-80800000D03*
X62000000Y-79200000D03*
X62000000Y-80200000D03*
X60100000Y-72500000D03*
X59200000Y-72500000D03*
D15*
X51800000Y-71500000D03*
X53200000Y-71500000D03*
D14*
X53400000Y-63200000D03*
X59100000Y-66000000D03*
X81650000Y-61650000D03*
X81650000Y-62950000D03*
X81650000Y-65450000D03*
X80000000Y-50000000D03*
X75000000Y-50000000D03*
X70000000Y-50000000D03*
X70000000Y-55000000D03*
X75000000Y-55000000D03*
X80000000Y-55000000D03*
X80000000Y-60000000D03*
X75000000Y-60000000D03*
X70000000Y-60000000D03*
X62500000Y-55000000D03*
X57500000Y-55000000D03*
X52500000Y-55000000D03*
X52500000Y-50000000D03*
X62500000Y-50000000D03*
X62500000Y-60000000D03*
X57500000Y-60000000D03*
X47500000Y-57500000D03*
X57500000Y-65000000D03*
X52500000Y-65000000D03*
X80000000Y-65000000D03*
X70000000Y-65000000D03*
X80000000Y-75000000D03*
X85000000Y-75000000D03*
X80000000Y-80000000D03*
X85000000Y-80000000D03*
X90000000Y-80000000D03*
X90000000Y-85000000D03*
X85000000Y-85000000D03*
X80000000Y-90000000D03*
X75000000Y-90000000D03*
X75000000Y-95000000D03*
X80000000Y-95000000D03*
X70000000Y-85000000D03*
X62500000Y-85000000D03*
X57500000Y-80000000D03*
X57500000Y-85000000D03*
X57500000Y-90000000D03*
X62500000Y-90000000D03*
X57500000Y-95000000D03*
X52500000Y-85000000D03*
X75000000Y-52500000D03*
X75000000Y-52500000D03*
X75000000Y-52500000D03*
X75000000Y-62500000D03*
X75000000Y-57500000D03*
X75000000Y-57500000D03*
X75000000Y-57500000D03*
X80000000Y-52500000D03*
X80000000Y-57500000D03*
X80000000Y-62500000D03*
X70000000Y-52500000D03*
X70000000Y-57500000D03*
X62500000Y-52500000D03*
X52500000Y-52500000D03*
X57500000Y-57500000D03*
X62500000Y-57500000D03*
X52500000Y-57500000D03*
X85000000Y-77500000D03*
X80000000Y-77500000D03*
X80000000Y-82500000D03*
X85000000Y-82500000D03*
X90000000Y-82500000D03*
X75000000Y-92500000D03*
X80000000Y-92500000D03*
X70000000Y-87500000D03*
X62500000Y-82500000D03*
X62500000Y-87500000D03*
X57500000Y-92500000D03*
X57500000Y-87500000D03*
X57500000Y-82500000D03*
X52500000Y-87500000D03*
X47500000Y-85000000D03*
X57500000Y-62500000D03*
X80000000Y-72500000D03*
X75000000Y-72500000D03*
X90000000Y-77500000D03*
X90000000Y-57500000D03*
X52500000Y-90000000D03*
X52500000Y-92500000D03*
X52500000Y-95000000D03*
X75000000Y-82500000D03*
X70000000Y-62500000D03*
X62500000Y-92500000D03*
X70000000Y-90000000D03*
G04 #@! TO.N,+3V3*
X63000000Y-62750000D03*
D15*
X45000000Y-61500000D03*
X50500000Y-61500000D03*
X46250000Y-63750000D03*
X49000000Y-63750000D03*
X49000000Y-65500000D03*
X46250000Y-65500000D03*
D14*
X62000000Y-62750000D03*
X59950000Y-68800000D03*
X55400000Y-78100000D03*
X56600000Y-78100000D03*
X63900000Y-81500000D03*
X71400000Y-81000000D03*
X72300000Y-81000000D03*
X76900000Y-66800000D03*
X59500000Y-64900000D03*
X63100000Y-60900000D03*
X69400000Y-60900000D03*
X75900000Y-66800000D03*
X63900000Y-82500000D03*
X55400000Y-75800000D03*
X55400000Y-76900000D03*
X81650000Y-60350000D03*
D15*
G04 #@! TO.N,NRST*
X87450000Y-66850000D03*
X64800000Y-71250000D03*
G04 #@! TD*
D16*
G04 #@! TO.N,GND*
X55300000Y-73000000D02*
X55300000Y-74400000D01*
G04 #@! TD*
D17*
G04 #@! TO.N,GND*
G36*
X84263506Y-47777510D02*
X84146139Y-47855932D01*
X83645290Y-48465684D01*
X84145441Y-48965835D01*
X84145441Y-48965836D01*
X87000000Y-51820395D01*
X87014143Y-51806253D01*
X87193748Y-51985858D01*
X87179605Y-52000000D01*
X90034164Y-54854559D01*
X90034165Y-54854559D01*
X90534316Y-55354710D01*
X91144068Y-54853861D01*
X91290000Y-54515071D01*
X91290001Y-89433185D01*
X91222490Y-89263506D01*
X91144068Y-89146139D01*
X90534316Y-88645290D01*
X90034165Y-89145441D01*
X90034164Y-89145441D01*
X87179605Y-92000000D01*
X87193748Y-92014143D01*
X87014143Y-92193748D01*
X87000000Y-92179605D01*
X84145441Y-95034164D01*
X84145441Y-95034165D01*
X83645290Y-95534316D01*
X84146139Y-96144068D01*
X84484929Y-96290000D01*
X49566817Y-96290000D01*
X49736494Y-96222490D01*
X49853861Y-96144068D01*
X50354710Y-95534316D01*
X49854559Y-95034165D01*
X49854559Y-95034164D01*
X47000000Y-92179605D01*
X46985858Y-92193748D01*
X46806253Y-92014143D01*
X46820395Y-92000000D01*
X47179605Y-92000000D01*
X50034164Y-94854559D01*
X50034165Y-94854559D01*
X50534316Y-95354710D01*
X51144068Y-94853861D01*
X51210342Y-94700000D01*
X61665908Y-94700000D01*
X61781161Y-95279418D01*
X62109375Y-95770625D01*
X62600582Y-96098839D01*
X63033744Y-96185000D01*
X63326256Y-96185000D01*
X63759418Y-96098839D01*
X64250625Y-95770625D01*
X64450000Y-95472239D01*
X64649375Y-95770625D01*
X65140582Y-96098839D01*
X65573744Y-96185000D01*
X65866256Y-96185000D01*
X66299418Y-96098839D01*
X66790625Y-95770625D01*
X66990000Y-95472239D01*
X67189375Y-95770625D01*
X67680582Y-96098839D01*
X68113744Y-96185000D01*
X68406256Y-96185000D01*
X68839418Y-96098839D01*
X69330625Y-95770625D01*
X69342816Y-95752381D01*
X69351843Y-95797765D01*
X69492191Y-96007809D01*
X69702235Y-96148157D01*
X69950000Y-96197440D01*
X71650000Y-96197440D01*
X71897765Y-96148157D01*
X72107809Y-96007809D01*
X72248157Y-95797765D01*
X72297440Y-95550000D01*
X72297440Y-93850000D01*
X72248157Y-93602235D01*
X72107809Y-93392191D01*
X71897765Y-93251843D01*
X71650000Y-93202560D01*
X69950000Y-93202560D01*
X69702235Y-93251843D01*
X69492191Y-93392191D01*
X69351843Y-93602235D01*
X69342816Y-93647619D01*
X69330625Y-93629375D01*
X68839418Y-93301161D01*
X68406256Y-93215000D01*
X68113744Y-93215000D01*
X67680582Y-93301161D01*
X67189375Y-93629375D01*
X66990000Y-93927761D01*
X66790625Y-93629375D01*
X66299418Y-93301161D01*
X65866256Y-93215000D01*
X65573744Y-93215000D01*
X65140582Y-93301161D01*
X64649375Y-93629375D01*
X64450000Y-93927761D01*
X64250625Y-93629375D01*
X63759418Y-93301161D01*
X63326256Y-93215000D01*
X63033744Y-93215000D01*
X62600582Y-93301161D01*
X62109375Y-93629375D01*
X61781161Y-94120582D01*
X61665908Y-94700000D01*
X51210342Y-94700000D01*
X51920745Y-93050758D01*
X51922687Y-92912314D01*
X82051717Y-92912314D01*
X82777510Y-94736494D01*
X82855932Y-94853861D01*
X83465684Y-95354710D01*
X83965835Y-94854559D01*
X83965836Y-94854559D01*
X86820395Y-92000000D01*
X83965836Y-89145441D01*
X83965835Y-89145441D01*
X83465684Y-88645290D01*
X82855932Y-89146139D01*
X82079255Y-90949242D01*
X82051717Y-92912314D01*
X51922687Y-92912314D01*
X51948283Y-91087686D01*
X51222490Y-89263506D01*
X51144068Y-89146139D01*
X50534316Y-88645290D01*
X50034165Y-89145441D01*
X50034164Y-89145441D01*
X47179605Y-92000000D01*
X46820395Y-92000000D01*
X43965836Y-89145441D01*
X43965835Y-89145441D01*
X43465684Y-88645290D01*
X42855932Y-89146139D01*
X42710000Y-89484929D01*
X42710000Y-88465684D01*
X43645290Y-88465684D01*
X44145441Y-88965835D01*
X44145441Y-88965836D01*
X47000000Y-91820395D01*
X49854559Y-88965836D01*
X49854559Y-88965835D01*
X50354710Y-88465684D01*
X83645290Y-88465684D01*
X84145441Y-88965835D01*
X84145441Y-88965836D01*
X87000000Y-91820395D01*
X89854559Y-88965836D01*
X89854559Y-88965835D01*
X90354710Y-88465684D01*
X89853861Y-87855932D01*
X88050758Y-87079255D01*
X86087686Y-87051717D01*
X84263506Y-87777510D01*
X84146139Y-87855932D01*
X83645290Y-88465684D01*
X50354710Y-88465684D01*
X49853861Y-87855932D01*
X48050758Y-87079255D01*
X46087686Y-87051717D01*
X44263506Y-87777510D01*
X44146139Y-87855932D01*
X43645290Y-88465684D01*
X42710000Y-88465684D01*
X42710000Y-81950000D01*
X42802560Y-81950000D01*
X42802560Y-83650000D01*
X42851843Y-83897765D01*
X42992191Y-84107809D01*
X43202235Y-84248157D01*
X43450000Y-84297440D01*
X45150000Y-84297440D01*
X45397765Y-84248157D01*
X45607809Y-84107809D01*
X45748157Y-83897765D01*
X45797440Y-83650000D01*
X45797440Y-81950000D01*
X45748157Y-81702235D01*
X45607809Y-81492191D01*
X45397765Y-81351843D01*
X45294292Y-81331261D01*
X45328134Y-81294126D01*
X62865000Y-81294126D01*
X62865000Y-81705874D01*
X62986831Y-82000000D01*
X62865000Y-82294126D01*
X62865000Y-82705874D01*
X63022569Y-83086280D01*
X63313720Y-83377431D01*
X63694126Y-83535000D01*
X64105874Y-83535000D01*
X64486280Y-83377431D01*
X64777431Y-83086280D01*
X64935000Y-82705874D01*
X64935000Y-82294126D01*
X64813169Y-82000000D01*
X64935000Y-81705874D01*
X64935000Y-81294126D01*
X64777431Y-80913720D01*
X64657837Y-80794126D01*
X70365000Y-80794126D01*
X70365000Y-81205874D01*
X70522569Y-81586280D01*
X70813720Y-81877431D01*
X71194126Y-82035000D01*
X71605874Y-82035000D01*
X71850000Y-81933880D01*
X72094126Y-82035000D01*
X72505874Y-82035000D01*
X72886280Y-81877431D01*
X73177431Y-81586280D01*
X73335000Y-81205874D01*
X73335000Y-80794126D01*
X73177431Y-80413720D01*
X72886280Y-80122569D01*
X72505874Y-79965000D01*
X72094126Y-79965000D01*
X71850000Y-80066120D01*
X71605874Y-79965000D01*
X71194126Y-79965000D01*
X70813720Y-80122569D01*
X70522569Y-80413720D01*
X70365000Y-80794126D01*
X64657837Y-80794126D01*
X64486280Y-80622569D01*
X64105874Y-80465000D01*
X63694126Y-80465000D01*
X63313720Y-80622569D01*
X63022569Y-80913720D01*
X62865000Y-81294126D01*
X45328134Y-81294126D01*
X45571645Y-81026924D01*
X45741476Y-80616890D01*
X45620155Y-80387000D01*
X44427000Y-80387000D01*
X44427000Y-80407000D01*
X44173000Y-80407000D01*
X44173000Y-80387000D01*
X42979845Y-80387000D01*
X42858524Y-80616890D01*
X43028355Y-81026924D01*
X43305708Y-81331261D01*
X43202235Y-81351843D01*
X42992191Y-81492191D01*
X42851843Y-81702235D01*
X42802560Y-81950000D01*
X42710000Y-81950000D01*
X42710000Y-79903110D01*
X42858524Y-79903110D01*
X42979845Y-80133000D01*
X44173000Y-80133000D01*
X44173000Y-78939181D01*
X44427000Y-78939181D01*
X44427000Y-80133000D01*
X45620155Y-80133000D01*
X45741476Y-79903110D01*
X45571645Y-79493076D01*
X45181358Y-79064817D01*
X44656892Y-78818514D01*
X44427000Y-78939181D01*
X44173000Y-78939181D01*
X43943108Y-78818514D01*
X43418642Y-79064817D01*
X43028355Y-79493076D01*
X42858524Y-79903110D01*
X42710000Y-79903110D01*
X42710000Y-75594126D01*
X54365000Y-75594126D01*
X54365000Y-76005874D01*
X54507541Y-76350000D01*
X54365000Y-76694126D01*
X54365000Y-77105874D01*
X54522569Y-77486280D01*
X54536289Y-77500000D01*
X54522569Y-77513720D01*
X54365000Y-77894126D01*
X54365000Y-78305874D01*
X54522569Y-78686280D01*
X54813720Y-78977431D01*
X55194126Y-79135000D01*
X55605874Y-79135000D01*
X55986280Y-78977431D01*
X56000000Y-78963711D01*
X56013720Y-78977431D01*
X56394126Y-79135000D01*
X56805874Y-79135000D01*
X57186280Y-78977431D01*
X57477431Y-78686280D01*
X57635000Y-78305874D01*
X57635000Y-77894126D01*
X57477431Y-77513720D01*
X57186280Y-77222569D01*
X56805874Y-77065000D01*
X56435000Y-77065000D01*
X56435000Y-76694126D01*
X56292459Y-76350000D01*
X56435000Y-76005874D01*
X56435000Y-75594126D01*
X56277431Y-75213720D01*
X55986280Y-74922569D01*
X55605874Y-74765000D01*
X55194126Y-74765000D01*
X54813720Y-74922569D01*
X54522569Y-75213720D01*
X54365000Y-75594126D01*
X42710000Y-75594126D01*
X42710000Y-63524234D01*
X45115000Y-63524234D01*
X45115000Y-63975766D01*
X45287793Y-64392926D01*
X45519867Y-64625000D01*
X45287793Y-64857074D01*
X45115000Y-65274234D01*
X45115000Y-65725766D01*
X45287793Y-66142926D01*
X45607074Y-66462207D01*
X46024234Y-66635000D01*
X46475766Y-66635000D01*
X46892926Y-66462207D01*
X47212207Y-66142926D01*
X47385000Y-65725766D01*
X47385000Y-65274234D01*
X47212207Y-64857074D01*
X46980133Y-64625000D01*
X47212207Y-64392926D01*
X47385000Y-63975766D01*
X47385000Y-63524234D01*
X47865000Y-63524234D01*
X47865000Y-63975766D01*
X48037793Y-64392926D01*
X48269867Y-64625000D01*
X48037793Y-64857074D01*
X47865000Y-65274234D01*
X47865000Y-65725766D01*
X48037793Y-66142926D01*
X48357074Y-66462207D01*
X48774234Y-66635000D01*
X49225766Y-66635000D01*
X49551685Y-66500000D01*
X54473000Y-66500000D01*
X54473000Y-74000000D01*
X54482667Y-74048601D01*
X54510197Y-74089803D01*
X54551399Y-74117333D01*
X54600000Y-74127000D01*
X58300000Y-74127000D01*
X58348601Y-74117333D01*
X58389803Y-74089803D01*
X58417333Y-74048601D01*
X58427000Y-74000000D01*
X58427000Y-73840000D01*
X88185908Y-73840000D01*
X88301161Y-74419418D01*
X88629375Y-74910625D01*
X89120582Y-75238839D01*
X89553744Y-75325000D01*
X89846256Y-75325000D01*
X90279418Y-75238839D01*
X90770625Y-74910625D01*
X91098839Y-74419418D01*
X91214092Y-73840000D01*
X91098839Y-73260582D01*
X90770625Y-72769375D01*
X90752381Y-72757184D01*
X90797765Y-72748157D01*
X91007809Y-72607809D01*
X91148157Y-72397765D01*
X91197440Y-72150000D01*
X91197440Y-70450000D01*
X91148157Y-70202235D01*
X91007809Y-69992191D01*
X90797765Y-69851843D01*
X90550000Y-69802560D01*
X88850000Y-69802560D01*
X88602235Y-69851843D01*
X88392191Y-69992191D01*
X88251843Y-70202235D01*
X88202560Y-70450000D01*
X88202560Y-72150000D01*
X88251843Y-72397765D01*
X88392191Y-72607809D01*
X88602235Y-72748157D01*
X88647619Y-72757184D01*
X88629375Y-72769375D01*
X88301161Y-73260582D01*
X88185908Y-73840000D01*
X58427000Y-73840000D01*
X58427000Y-73027000D01*
X59000000Y-73027000D01*
X59048601Y-73017333D01*
X59089803Y-72989803D01*
X59117333Y-72948601D01*
X59127000Y-72900000D01*
X59127000Y-72027000D01*
X60500000Y-72027000D01*
X60548601Y-72017333D01*
X60589803Y-71989803D01*
X60617333Y-71948601D01*
X60627000Y-71900000D01*
X60627000Y-71427000D01*
X62000000Y-71427000D01*
X62048601Y-71417333D01*
X62089803Y-71389803D01*
X62117333Y-71348601D01*
X62127000Y-71300000D01*
X62127000Y-71024234D01*
X63665000Y-71024234D01*
X63665000Y-71475766D01*
X63837793Y-71892926D01*
X64157074Y-72212207D01*
X64574234Y-72385000D01*
X65025766Y-72385000D01*
X65442926Y-72212207D01*
X65762207Y-71892926D01*
X65935000Y-71475766D01*
X65935000Y-71024234D01*
X65762207Y-70607074D01*
X65442926Y-70287793D01*
X65025766Y-70115000D01*
X64574234Y-70115000D01*
X64157074Y-70287793D01*
X63837793Y-70607074D01*
X63665000Y-71024234D01*
X62127000Y-71024234D01*
X62127000Y-69700000D01*
X62117333Y-69651399D01*
X62089803Y-69610197D01*
X62048601Y-69582667D01*
X62000000Y-69573000D01*
X60640711Y-69573000D01*
X60827431Y-69386280D01*
X60985000Y-69005874D01*
X60985000Y-68594126D01*
X60827431Y-68213720D01*
X60536280Y-67922569D01*
X60155874Y-67765000D01*
X59744126Y-67765000D01*
X59363720Y-67922569D01*
X59127000Y-68159289D01*
X59127000Y-66594126D01*
X74865000Y-66594126D01*
X74865000Y-67005874D01*
X75022569Y-67386280D01*
X75313720Y-67677431D01*
X75694126Y-67835000D01*
X76105874Y-67835000D01*
X76400000Y-67713169D01*
X76694126Y-67835000D01*
X77105874Y-67835000D01*
X77486280Y-67677431D01*
X77777431Y-67386280D01*
X77935000Y-67005874D01*
X77935000Y-66624234D01*
X86315000Y-66624234D01*
X86315000Y-67075766D01*
X86487793Y-67492926D01*
X86807074Y-67812207D01*
X87224234Y-67985000D01*
X87675766Y-67985000D01*
X88092926Y-67812207D01*
X88412207Y-67492926D01*
X88585000Y-67075766D01*
X88585000Y-66624234D01*
X88412207Y-66207074D01*
X88092926Y-65887793D01*
X87675766Y-65715000D01*
X87224234Y-65715000D01*
X86807074Y-65887793D01*
X86487793Y-66207074D01*
X86315000Y-66624234D01*
X77935000Y-66624234D01*
X77935000Y-66594126D01*
X77777431Y-66213720D01*
X77486280Y-65922569D01*
X77105874Y-65765000D01*
X76694126Y-65765000D01*
X76400000Y-65886831D01*
X76105874Y-65765000D01*
X75694126Y-65765000D01*
X75313720Y-65922569D01*
X75022569Y-66213720D01*
X74865000Y-66594126D01*
X59127000Y-66594126D01*
X59127000Y-66500000D01*
X59117333Y-66451399D01*
X59089803Y-66410197D01*
X59048601Y-66382667D01*
X59000000Y-66373000D01*
X54600000Y-66373000D01*
X54551399Y-66382667D01*
X54510197Y-66410197D01*
X54482667Y-66451399D01*
X54473000Y-66500000D01*
X49551685Y-66500000D01*
X49642926Y-66462207D01*
X49962207Y-66142926D01*
X50135000Y-65725766D01*
X50135000Y-65274234D01*
X49962207Y-64857074D01*
X49799259Y-64694126D01*
X58465000Y-64694126D01*
X58465000Y-65105874D01*
X58622569Y-65486280D01*
X58913720Y-65777431D01*
X59294126Y-65935000D01*
X59705874Y-65935000D01*
X60086280Y-65777431D01*
X60377431Y-65486280D01*
X60535000Y-65105874D01*
X60535000Y-64694126D01*
X60377431Y-64313720D01*
X60086280Y-64022569D01*
X59705874Y-63865000D01*
X59294126Y-63865000D01*
X58913720Y-64022569D01*
X58622569Y-64313720D01*
X58465000Y-64694126D01*
X49799259Y-64694126D01*
X49730133Y-64625000D01*
X49962207Y-64392926D01*
X50135000Y-63975766D01*
X50135000Y-63524234D01*
X49962207Y-63107074D01*
X49642926Y-62787793D01*
X49225766Y-62615000D01*
X48774234Y-62615000D01*
X48357074Y-62787793D01*
X48037793Y-63107074D01*
X47865000Y-63524234D01*
X47385000Y-63524234D01*
X47212207Y-63107074D01*
X46892926Y-62787793D01*
X46475766Y-62615000D01*
X46024234Y-62615000D01*
X45607074Y-62787793D01*
X45287793Y-63107074D01*
X45115000Y-63524234D01*
X42710000Y-63524234D01*
X42710000Y-61274234D01*
X43865000Y-61274234D01*
X43865000Y-61725766D01*
X44037793Y-62142926D01*
X44357074Y-62462207D01*
X44774234Y-62635000D01*
X45225766Y-62635000D01*
X45642926Y-62462207D01*
X45962207Y-62142926D01*
X46135000Y-61725766D01*
X46135000Y-61274234D01*
X49365000Y-61274234D01*
X49365000Y-61725766D01*
X49537793Y-62142926D01*
X49857074Y-62462207D01*
X50274234Y-62635000D01*
X50725766Y-62635000D01*
X50945155Y-62544126D01*
X60965000Y-62544126D01*
X60965000Y-62955874D01*
X61122569Y-63336280D01*
X61413720Y-63627431D01*
X61794126Y-63785000D01*
X62205874Y-63785000D01*
X62500000Y-63663169D01*
X62794126Y-63785000D01*
X63205874Y-63785000D01*
X63586280Y-63627431D01*
X63877431Y-63336280D01*
X64035000Y-62955874D01*
X64035000Y-62544126D01*
X63877431Y-62163720D01*
X63586280Y-61872569D01*
X63521438Y-61845711D01*
X63686280Y-61777431D01*
X63977431Y-61486280D01*
X64135000Y-61105874D01*
X64135000Y-60694126D01*
X68365000Y-60694126D01*
X68365000Y-61105874D01*
X68522569Y-61486280D01*
X68813720Y-61777431D01*
X69194126Y-61935000D01*
X69605874Y-61935000D01*
X69986280Y-61777431D01*
X70277431Y-61486280D01*
X70435000Y-61105874D01*
X70435000Y-60694126D01*
X70277431Y-60313720D01*
X70107837Y-60144126D01*
X80615000Y-60144126D01*
X80615000Y-60555874D01*
X80772569Y-60936280D01*
X81063720Y-61227431D01*
X81444126Y-61385000D01*
X81855874Y-61385000D01*
X82236280Y-61227431D01*
X82527431Y-60936280D01*
X82685000Y-60555874D01*
X82685000Y-60144126D01*
X82527431Y-59763720D01*
X82236280Y-59472569D01*
X81855874Y-59315000D01*
X81444126Y-59315000D01*
X81063720Y-59472569D01*
X80772569Y-59763720D01*
X80615000Y-60144126D01*
X70107837Y-60144126D01*
X69986280Y-60022569D01*
X69605874Y-59865000D01*
X69194126Y-59865000D01*
X68813720Y-60022569D01*
X68522569Y-60313720D01*
X68365000Y-60694126D01*
X64135000Y-60694126D01*
X63977431Y-60313720D01*
X63686280Y-60022569D01*
X63305874Y-59865000D01*
X62894126Y-59865000D01*
X62513720Y-60022569D01*
X62222569Y-60313720D01*
X62065000Y-60694126D01*
X62065000Y-61105874D01*
X62222569Y-61486280D01*
X62513720Y-61777431D01*
X62578562Y-61804289D01*
X62500000Y-61836831D01*
X62205874Y-61715000D01*
X61794126Y-61715000D01*
X61413720Y-61872569D01*
X61122569Y-62163720D01*
X60965000Y-62544126D01*
X50945155Y-62544126D01*
X51142926Y-62462207D01*
X51462207Y-62142926D01*
X51635000Y-61725766D01*
X51635000Y-61274234D01*
X51462207Y-60857074D01*
X51142926Y-60537793D01*
X50725766Y-60365000D01*
X50274234Y-60365000D01*
X49857074Y-60537793D01*
X49537793Y-60857074D01*
X49365000Y-61274234D01*
X46135000Y-61274234D01*
X45962207Y-60857074D01*
X45642926Y-60537793D01*
X45225766Y-60365000D01*
X44774234Y-60365000D01*
X44357074Y-60537793D01*
X44037793Y-60857074D01*
X43865000Y-61274234D01*
X42710000Y-61274234D01*
X42710000Y-55534316D01*
X43645290Y-55534316D01*
X44146139Y-56144068D01*
X45949242Y-56920745D01*
X47912314Y-56948283D01*
X49736494Y-56222490D01*
X49853861Y-56144068D01*
X50354710Y-55534316D01*
X83645290Y-55534316D01*
X84146139Y-56144068D01*
X85949242Y-56920745D01*
X87912314Y-56948283D01*
X89736494Y-56222490D01*
X89853861Y-56144068D01*
X90354710Y-55534316D01*
X89854559Y-55034165D01*
X89854559Y-55034164D01*
X87000000Y-52179605D01*
X84145441Y-55034164D01*
X84145441Y-55034165D01*
X83645290Y-55534316D01*
X50354710Y-55534316D01*
X49854559Y-55034165D01*
X49854559Y-55034164D01*
X47000000Y-52179605D01*
X44145441Y-55034164D01*
X44145441Y-55034165D01*
X43645290Y-55534316D01*
X42710000Y-55534316D01*
X42710000Y-54566817D01*
X42777510Y-54736494D01*
X42855932Y-54853861D01*
X43465684Y-55354710D01*
X43965835Y-54854559D01*
X43965836Y-54854559D01*
X46820395Y-52000000D01*
X47179605Y-52000000D01*
X50034164Y-54854559D01*
X50034165Y-54854559D01*
X50534316Y-55354710D01*
X51144068Y-54853861D01*
X51920745Y-53050758D01*
X51922687Y-52912314D01*
X82051717Y-52912314D01*
X82777510Y-54736494D01*
X82855932Y-54853861D01*
X83465684Y-55354710D01*
X83965835Y-54854559D01*
X83965836Y-54854559D01*
X86820395Y-52000000D01*
X83965836Y-49145441D01*
X83965835Y-49145441D01*
X83465684Y-48645290D01*
X82855932Y-49146139D01*
X82079255Y-50949242D01*
X82051717Y-52912314D01*
X51922687Y-52912314D01*
X51948283Y-51087686D01*
X51222490Y-49263506D01*
X51144068Y-49146139D01*
X50534316Y-48645290D01*
X50034165Y-49145441D01*
X50034164Y-49145441D01*
X47179605Y-52000000D01*
X46820395Y-52000000D01*
X46806253Y-51985858D01*
X46985858Y-51806253D01*
X47000000Y-51820395D01*
X49854559Y-48965836D01*
X49854559Y-48965835D01*
X50354710Y-48465684D01*
X50341828Y-48450000D01*
X55102560Y-48450000D01*
X55102560Y-50150000D01*
X55151843Y-50397765D01*
X55292191Y-50607809D01*
X55502235Y-50748157D01*
X55750000Y-50797440D01*
X57450000Y-50797440D01*
X57697765Y-50748157D01*
X57907809Y-50607809D01*
X58048157Y-50397765D01*
X58068739Y-50294292D01*
X58373076Y-50571645D01*
X58783110Y-50741476D01*
X59013000Y-50620155D01*
X59013000Y-49427000D01*
X59267000Y-49427000D01*
X59267000Y-50620155D01*
X59496890Y-50741476D01*
X59906924Y-50571645D01*
X60335183Y-50181358D01*
X60581486Y-49656892D01*
X60460819Y-49427000D01*
X59267000Y-49427000D01*
X59013000Y-49427000D01*
X58993000Y-49427000D01*
X58993000Y-49173000D01*
X59013000Y-49173000D01*
X59013000Y-47979845D01*
X59267000Y-47979845D01*
X59267000Y-49173000D01*
X60460819Y-49173000D01*
X60581486Y-48943108D01*
X60349910Y-48450000D01*
X63302560Y-48450000D01*
X63302560Y-50150000D01*
X63351843Y-50397765D01*
X63492191Y-50607809D01*
X63702235Y-50748157D01*
X63950000Y-50797440D01*
X65650000Y-50797440D01*
X65897765Y-50748157D01*
X66107809Y-50607809D01*
X66248157Y-50397765D01*
X66257184Y-50352381D01*
X66269375Y-50370625D01*
X66760582Y-50698839D01*
X67193744Y-50785000D01*
X67486256Y-50785000D01*
X67919418Y-50698839D01*
X68410625Y-50370625D01*
X68738839Y-49879418D01*
X68854092Y-49300000D01*
X68738839Y-48720582D01*
X68410625Y-48229375D01*
X67919418Y-47901161D01*
X67486256Y-47815000D01*
X67193744Y-47815000D01*
X66760582Y-47901161D01*
X66269375Y-48229375D01*
X66257184Y-48247619D01*
X66248157Y-48202235D01*
X66107809Y-47992191D01*
X65897765Y-47851843D01*
X65650000Y-47802560D01*
X63950000Y-47802560D01*
X63702235Y-47851843D01*
X63492191Y-47992191D01*
X63351843Y-48202235D01*
X63302560Y-48450000D01*
X60349910Y-48450000D01*
X60335183Y-48418642D01*
X59906924Y-48028355D01*
X59496890Y-47858524D01*
X59267000Y-47979845D01*
X59013000Y-47979845D01*
X58783110Y-47858524D01*
X58373076Y-48028355D01*
X58068739Y-48305708D01*
X58048157Y-48202235D01*
X57907809Y-47992191D01*
X57697765Y-47851843D01*
X57450000Y-47802560D01*
X55750000Y-47802560D01*
X55502235Y-47851843D01*
X55292191Y-47992191D01*
X55151843Y-48202235D01*
X55102560Y-48450000D01*
X50341828Y-48450000D01*
X49853861Y-47855932D01*
X49515071Y-47710000D01*
X84433183Y-47710000D01*
X84263506Y-47777510D01*
X84263506Y-47777510D01*
G37*
X84263506Y-47777510D02*
X84146139Y-47855932D01*
X83645290Y-48465684D01*
X84145441Y-48965835D01*
X84145441Y-48965836D01*
X87000000Y-51820395D01*
X87014143Y-51806253D01*
X87193748Y-51985858D01*
X87179605Y-52000000D01*
X90034164Y-54854559D01*
X90034165Y-54854559D01*
X90534316Y-55354710D01*
X91144068Y-54853861D01*
X91290000Y-54515071D01*
X91290001Y-89433185D01*
X91222490Y-89263506D01*
X91144068Y-89146139D01*
X90534316Y-88645290D01*
X90034165Y-89145441D01*
X90034164Y-89145441D01*
X87179605Y-92000000D01*
X87193748Y-92014143D01*
X87014143Y-92193748D01*
X87000000Y-92179605D01*
X84145441Y-95034164D01*
X84145441Y-95034165D01*
X83645290Y-95534316D01*
X84146139Y-96144068D01*
X84484929Y-96290000D01*
X49566817Y-96290000D01*
X49736494Y-96222490D01*
X49853861Y-96144068D01*
X50354710Y-95534316D01*
X49854559Y-95034165D01*
X49854559Y-95034164D01*
X47000000Y-92179605D01*
X46985858Y-92193748D01*
X46806253Y-92014143D01*
X46820395Y-92000000D01*
X47179605Y-92000000D01*
X50034164Y-94854559D01*
X50034165Y-94854559D01*
X50534316Y-95354710D01*
X51144068Y-94853861D01*
X51210342Y-94700000D01*
X61665908Y-94700000D01*
X61781161Y-95279418D01*
X62109375Y-95770625D01*
X62600582Y-96098839D01*
X63033744Y-96185000D01*
X63326256Y-96185000D01*
X63759418Y-96098839D01*
X64250625Y-95770625D01*
X64450000Y-95472239D01*
X64649375Y-95770625D01*
X65140582Y-96098839D01*
X65573744Y-96185000D01*
X65866256Y-96185000D01*
X66299418Y-96098839D01*
X66790625Y-95770625D01*
X66990000Y-95472239D01*
X67189375Y-95770625D01*
X67680582Y-96098839D01*
X68113744Y-96185000D01*
X68406256Y-96185000D01*
X68839418Y-96098839D01*
X69330625Y-95770625D01*
X69342816Y-95752381D01*
X69351843Y-95797765D01*
X69492191Y-96007809D01*
X69702235Y-96148157D01*
X69950000Y-96197440D01*
X71650000Y-96197440D01*
X71897765Y-96148157D01*
X72107809Y-96007809D01*
X72248157Y-95797765D01*
X72297440Y-95550000D01*
X72297440Y-93850000D01*
X72248157Y-93602235D01*
X72107809Y-93392191D01*
X71897765Y-93251843D01*
X71650000Y-93202560D01*
X69950000Y-93202560D01*
X69702235Y-93251843D01*
X69492191Y-93392191D01*
X69351843Y-93602235D01*
X69342816Y-93647619D01*
X69330625Y-93629375D01*
X68839418Y-93301161D01*
X68406256Y-93215000D01*
X68113744Y-93215000D01*
X67680582Y-93301161D01*
X67189375Y-93629375D01*
X66990000Y-93927761D01*
X66790625Y-93629375D01*
X66299418Y-93301161D01*
X65866256Y-93215000D01*
X65573744Y-93215000D01*
X65140582Y-93301161D01*
X64649375Y-93629375D01*
X64450000Y-93927761D01*
X64250625Y-93629375D01*
X63759418Y-93301161D01*
X63326256Y-93215000D01*
X63033744Y-93215000D01*
X62600582Y-93301161D01*
X62109375Y-93629375D01*
X61781161Y-94120582D01*
X61665908Y-94700000D01*
X51210342Y-94700000D01*
X51920745Y-93050758D01*
X51922687Y-92912314D01*
X82051717Y-92912314D01*
X82777510Y-94736494D01*
X82855932Y-94853861D01*
X83465684Y-95354710D01*
X83965835Y-94854559D01*
X83965836Y-94854559D01*
X86820395Y-92000000D01*
X83965836Y-89145441D01*
X83965835Y-89145441D01*
X83465684Y-88645290D01*
X82855932Y-89146139D01*
X82079255Y-90949242D01*
X82051717Y-92912314D01*
X51922687Y-92912314D01*
X51948283Y-91087686D01*
X51222490Y-89263506D01*
X51144068Y-89146139D01*
X50534316Y-88645290D01*
X50034165Y-89145441D01*
X50034164Y-89145441D01*
X47179605Y-92000000D01*
X46820395Y-92000000D01*
X43965836Y-89145441D01*
X43965835Y-89145441D01*
X43465684Y-88645290D01*
X42855932Y-89146139D01*
X42710000Y-89484929D01*
X42710000Y-88465684D01*
X43645290Y-88465684D01*
X44145441Y-88965835D01*
X44145441Y-88965836D01*
X47000000Y-91820395D01*
X49854559Y-88965836D01*
X49854559Y-88965835D01*
X50354710Y-88465684D01*
X83645290Y-88465684D01*
X84145441Y-88965835D01*
X84145441Y-88965836D01*
X87000000Y-91820395D01*
X89854559Y-88965836D01*
X89854559Y-88965835D01*
X90354710Y-88465684D01*
X89853861Y-87855932D01*
X88050758Y-87079255D01*
X86087686Y-87051717D01*
X84263506Y-87777510D01*
X84146139Y-87855932D01*
X83645290Y-88465684D01*
X50354710Y-88465684D01*
X49853861Y-87855932D01*
X48050758Y-87079255D01*
X46087686Y-87051717D01*
X44263506Y-87777510D01*
X44146139Y-87855932D01*
X43645290Y-88465684D01*
X42710000Y-88465684D01*
X42710000Y-81950000D01*
X42802560Y-81950000D01*
X42802560Y-83650000D01*
X42851843Y-83897765D01*
X42992191Y-84107809D01*
X43202235Y-84248157D01*
X43450000Y-84297440D01*
X45150000Y-84297440D01*
X45397765Y-84248157D01*
X45607809Y-84107809D01*
X45748157Y-83897765D01*
X45797440Y-83650000D01*
X45797440Y-81950000D01*
X45748157Y-81702235D01*
X45607809Y-81492191D01*
X45397765Y-81351843D01*
X45294292Y-81331261D01*
X45328134Y-81294126D01*
X62865000Y-81294126D01*
X62865000Y-81705874D01*
X62986831Y-82000000D01*
X62865000Y-82294126D01*
X62865000Y-82705874D01*
X63022569Y-83086280D01*
X63313720Y-83377431D01*
X63694126Y-83535000D01*
X64105874Y-83535000D01*
X64486280Y-83377431D01*
X64777431Y-83086280D01*
X64935000Y-82705874D01*
X64935000Y-82294126D01*
X64813169Y-82000000D01*
X64935000Y-81705874D01*
X64935000Y-81294126D01*
X64777431Y-80913720D01*
X64657837Y-80794126D01*
X70365000Y-80794126D01*
X70365000Y-81205874D01*
X70522569Y-81586280D01*
X70813720Y-81877431D01*
X71194126Y-82035000D01*
X71605874Y-82035000D01*
X71850000Y-81933880D01*
X72094126Y-82035000D01*
X72505874Y-82035000D01*
X72886280Y-81877431D01*
X73177431Y-81586280D01*
X73335000Y-81205874D01*
X73335000Y-80794126D01*
X73177431Y-80413720D01*
X72886280Y-80122569D01*
X72505874Y-79965000D01*
X72094126Y-79965000D01*
X71850000Y-80066120D01*
X71605874Y-79965000D01*
X71194126Y-79965000D01*
X70813720Y-80122569D01*
X70522569Y-80413720D01*
X70365000Y-80794126D01*
X64657837Y-80794126D01*
X64486280Y-80622569D01*
X64105874Y-80465000D01*
X63694126Y-80465000D01*
X63313720Y-80622569D01*
X63022569Y-80913720D01*
X62865000Y-81294126D01*
X45328134Y-81294126D01*
X45571645Y-81026924D01*
X45741476Y-80616890D01*
X45620155Y-80387000D01*
X44427000Y-80387000D01*
X44427000Y-80407000D01*
X44173000Y-80407000D01*
X44173000Y-80387000D01*
X42979845Y-80387000D01*
X42858524Y-80616890D01*
X43028355Y-81026924D01*
X43305708Y-81331261D01*
X43202235Y-81351843D01*
X42992191Y-81492191D01*
X42851843Y-81702235D01*
X42802560Y-81950000D01*
X42710000Y-81950000D01*
X42710000Y-79903110D01*
X42858524Y-79903110D01*
X42979845Y-80133000D01*
X44173000Y-80133000D01*
X44173000Y-78939181D01*
X44427000Y-78939181D01*
X44427000Y-80133000D01*
X45620155Y-80133000D01*
X45741476Y-79903110D01*
X45571645Y-79493076D01*
X45181358Y-79064817D01*
X44656892Y-78818514D01*
X44427000Y-78939181D01*
X44173000Y-78939181D01*
X43943108Y-78818514D01*
X43418642Y-79064817D01*
X43028355Y-79493076D01*
X42858524Y-79903110D01*
X42710000Y-79903110D01*
X42710000Y-75594126D01*
X54365000Y-75594126D01*
X54365000Y-76005874D01*
X54507541Y-76350000D01*
X54365000Y-76694126D01*
X54365000Y-77105874D01*
X54522569Y-77486280D01*
X54536289Y-77500000D01*
X54522569Y-77513720D01*
X54365000Y-77894126D01*
X54365000Y-78305874D01*
X54522569Y-78686280D01*
X54813720Y-78977431D01*
X55194126Y-79135000D01*
X55605874Y-79135000D01*
X55986280Y-78977431D01*
X56000000Y-78963711D01*
X56013720Y-78977431D01*
X56394126Y-79135000D01*
X56805874Y-79135000D01*
X57186280Y-78977431D01*
X57477431Y-78686280D01*
X57635000Y-78305874D01*
X57635000Y-77894126D01*
X57477431Y-77513720D01*
X57186280Y-77222569D01*
X56805874Y-77065000D01*
X56435000Y-77065000D01*
X56435000Y-76694126D01*
X56292459Y-76350000D01*
X56435000Y-76005874D01*
X56435000Y-75594126D01*
X56277431Y-75213720D01*
X55986280Y-74922569D01*
X55605874Y-74765000D01*
X55194126Y-74765000D01*
X54813720Y-74922569D01*
X54522569Y-75213720D01*
X54365000Y-75594126D01*
X42710000Y-75594126D01*
X42710000Y-63524234D01*
X45115000Y-63524234D01*
X45115000Y-63975766D01*
X45287793Y-64392926D01*
X45519867Y-64625000D01*
X45287793Y-64857074D01*
X45115000Y-65274234D01*
X45115000Y-65725766D01*
X45287793Y-66142926D01*
X45607074Y-66462207D01*
X46024234Y-66635000D01*
X46475766Y-66635000D01*
X46892926Y-66462207D01*
X47212207Y-66142926D01*
X47385000Y-65725766D01*
X47385000Y-65274234D01*
X47212207Y-64857074D01*
X46980133Y-64625000D01*
X47212207Y-64392926D01*
X47385000Y-63975766D01*
X47385000Y-63524234D01*
X47865000Y-63524234D01*
X47865000Y-63975766D01*
X48037793Y-64392926D01*
X48269867Y-64625000D01*
X48037793Y-64857074D01*
X47865000Y-65274234D01*
X47865000Y-65725766D01*
X48037793Y-66142926D01*
X48357074Y-66462207D01*
X48774234Y-66635000D01*
X49225766Y-66635000D01*
X49551685Y-66500000D01*
X54473000Y-66500000D01*
X54473000Y-74000000D01*
X54482667Y-74048601D01*
X54510197Y-74089803D01*
X54551399Y-74117333D01*
X54600000Y-74127000D01*
X58300000Y-74127000D01*
X58348601Y-74117333D01*
X58389803Y-74089803D01*
X58417333Y-74048601D01*
X58427000Y-74000000D01*
X58427000Y-73840000D01*
X88185908Y-73840000D01*
X88301161Y-74419418D01*
X88629375Y-74910625D01*
X89120582Y-75238839D01*
X89553744Y-75325000D01*
X89846256Y-75325000D01*
X90279418Y-75238839D01*
X90770625Y-74910625D01*
X91098839Y-74419418D01*
X91214092Y-73840000D01*
X91098839Y-73260582D01*
X90770625Y-72769375D01*
X90752381Y-72757184D01*
X90797765Y-72748157D01*
X91007809Y-72607809D01*
X91148157Y-72397765D01*
X91197440Y-72150000D01*
X91197440Y-70450000D01*
X91148157Y-70202235D01*
X91007809Y-69992191D01*
X90797765Y-69851843D01*
X90550000Y-69802560D01*
X88850000Y-69802560D01*
X88602235Y-69851843D01*
X88392191Y-69992191D01*
X88251843Y-70202235D01*
X88202560Y-70450000D01*
X88202560Y-72150000D01*
X88251843Y-72397765D01*
X88392191Y-72607809D01*
X88602235Y-72748157D01*
X88647619Y-72757184D01*
X88629375Y-72769375D01*
X88301161Y-73260582D01*
X88185908Y-73840000D01*
X58427000Y-73840000D01*
X58427000Y-73027000D01*
X59000000Y-73027000D01*
X59048601Y-73017333D01*
X59089803Y-72989803D01*
X59117333Y-72948601D01*
X59127000Y-72900000D01*
X59127000Y-72027000D01*
X60500000Y-72027000D01*
X60548601Y-72017333D01*
X60589803Y-71989803D01*
X60617333Y-71948601D01*
X60627000Y-71900000D01*
X60627000Y-71427000D01*
X62000000Y-71427000D01*
X62048601Y-71417333D01*
X62089803Y-71389803D01*
X62117333Y-71348601D01*
X62127000Y-71300000D01*
X62127000Y-71024234D01*
X63665000Y-71024234D01*
X63665000Y-71475766D01*
X63837793Y-71892926D01*
X64157074Y-72212207D01*
X64574234Y-72385000D01*
X65025766Y-72385000D01*
X65442926Y-72212207D01*
X65762207Y-71892926D01*
X65935000Y-71475766D01*
X65935000Y-71024234D01*
X65762207Y-70607074D01*
X65442926Y-70287793D01*
X65025766Y-70115000D01*
X64574234Y-70115000D01*
X64157074Y-70287793D01*
X63837793Y-70607074D01*
X63665000Y-71024234D01*
X62127000Y-71024234D01*
X62127000Y-69700000D01*
X62117333Y-69651399D01*
X62089803Y-69610197D01*
X62048601Y-69582667D01*
X62000000Y-69573000D01*
X60640711Y-69573000D01*
X60827431Y-69386280D01*
X60985000Y-69005874D01*
X60985000Y-68594126D01*
X60827431Y-68213720D01*
X60536280Y-67922569D01*
X60155874Y-67765000D01*
X59744126Y-67765000D01*
X59363720Y-67922569D01*
X59127000Y-68159289D01*
X59127000Y-66594126D01*
X74865000Y-66594126D01*
X74865000Y-67005874D01*
X75022569Y-67386280D01*
X75313720Y-67677431D01*
X75694126Y-67835000D01*
X76105874Y-67835000D01*
X76400000Y-67713169D01*
X76694126Y-67835000D01*
X77105874Y-67835000D01*
X77486280Y-67677431D01*
X77777431Y-67386280D01*
X77935000Y-67005874D01*
X77935000Y-66624234D01*
X86315000Y-66624234D01*
X86315000Y-67075766D01*
X86487793Y-67492926D01*
X86807074Y-67812207D01*
X87224234Y-67985000D01*
X87675766Y-67985000D01*
X88092926Y-67812207D01*
X88412207Y-67492926D01*
X88585000Y-67075766D01*
X88585000Y-66624234D01*
X88412207Y-66207074D01*
X88092926Y-65887793D01*
X87675766Y-65715000D01*
X87224234Y-65715000D01*
X86807074Y-65887793D01*
X86487793Y-66207074D01*
X86315000Y-66624234D01*
X77935000Y-66624234D01*
X77935000Y-66594126D01*
X77777431Y-66213720D01*
X77486280Y-65922569D01*
X77105874Y-65765000D01*
X76694126Y-65765000D01*
X76400000Y-65886831D01*
X76105874Y-65765000D01*
X75694126Y-65765000D01*
X75313720Y-65922569D01*
X75022569Y-66213720D01*
X74865000Y-66594126D01*
X59127000Y-66594126D01*
X59127000Y-66500000D01*
X59117333Y-66451399D01*
X59089803Y-66410197D01*
X59048601Y-66382667D01*
X59000000Y-66373000D01*
X54600000Y-66373000D01*
X54551399Y-66382667D01*
X54510197Y-66410197D01*
X54482667Y-66451399D01*
X54473000Y-66500000D01*
X49551685Y-66500000D01*
X49642926Y-66462207D01*
X49962207Y-66142926D01*
X50135000Y-65725766D01*
X50135000Y-65274234D01*
X49962207Y-64857074D01*
X49799259Y-64694126D01*
X58465000Y-64694126D01*
X58465000Y-65105874D01*
X58622569Y-65486280D01*
X58913720Y-65777431D01*
X59294126Y-65935000D01*
X59705874Y-65935000D01*
X60086280Y-65777431D01*
X60377431Y-65486280D01*
X60535000Y-65105874D01*
X60535000Y-64694126D01*
X60377431Y-64313720D01*
X60086280Y-64022569D01*
X59705874Y-63865000D01*
X59294126Y-63865000D01*
X58913720Y-64022569D01*
X58622569Y-64313720D01*
X58465000Y-64694126D01*
X49799259Y-64694126D01*
X49730133Y-64625000D01*
X49962207Y-64392926D01*
X50135000Y-63975766D01*
X50135000Y-63524234D01*
X49962207Y-63107074D01*
X49642926Y-62787793D01*
X49225766Y-62615000D01*
X48774234Y-62615000D01*
X48357074Y-62787793D01*
X48037793Y-63107074D01*
X47865000Y-63524234D01*
X47385000Y-63524234D01*
X47212207Y-63107074D01*
X46892926Y-62787793D01*
X46475766Y-62615000D01*
X46024234Y-62615000D01*
X45607074Y-62787793D01*
X45287793Y-63107074D01*
X45115000Y-63524234D01*
X42710000Y-63524234D01*
X42710000Y-61274234D01*
X43865000Y-61274234D01*
X43865000Y-61725766D01*
X44037793Y-62142926D01*
X44357074Y-62462207D01*
X44774234Y-62635000D01*
X45225766Y-62635000D01*
X45642926Y-62462207D01*
X45962207Y-62142926D01*
X46135000Y-61725766D01*
X46135000Y-61274234D01*
X49365000Y-61274234D01*
X49365000Y-61725766D01*
X49537793Y-62142926D01*
X49857074Y-62462207D01*
X50274234Y-62635000D01*
X50725766Y-62635000D01*
X50945155Y-62544126D01*
X60965000Y-62544126D01*
X60965000Y-62955874D01*
X61122569Y-63336280D01*
X61413720Y-63627431D01*
X61794126Y-63785000D01*
X62205874Y-63785000D01*
X62500000Y-63663169D01*
X62794126Y-63785000D01*
X63205874Y-63785000D01*
X63586280Y-63627431D01*
X63877431Y-63336280D01*
X64035000Y-62955874D01*
X64035000Y-62544126D01*
X63877431Y-62163720D01*
X63586280Y-61872569D01*
X63521438Y-61845711D01*
X63686280Y-61777431D01*
X63977431Y-61486280D01*
X64135000Y-61105874D01*
X64135000Y-60694126D01*
X68365000Y-60694126D01*
X68365000Y-61105874D01*
X68522569Y-61486280D01*
X68813720Y-61777431D01*
X69194126Y-61935000D01*
X69605874Y-61935000D01*
X69986280Y-61777431D01*
X70277431Y-61486280D01*
X70435000Y-61105874D01*
X70435000Y-60694126D01*
X70277431Y-60313720D01*
X70107837Y-60144126D01*
X80615000Y-60144126D01*
X80615000Y-60555874D01*
X80772569Y-60936280D01*
X81063720Y-61227431D01*
X81444126Y-61385000D01*
X81855874Y-61385000D01*
X82236280Y-61227431D01*
X82527431Y-60936280D01*
X82685000Y-60555874D01*
X82685000Y-60144126D01*
X82527431Y-59763720D01*
X82236280Y-59472569D01*
X81855874Y-59315000D01*
X81444126Y-59315000D01*
X81063720Y-59472569D01*
X80772569Y-59763720D01*
X80615000Y-60144126D01*
X70107837Y-60144126D01*
X69986280Y-60022569D01*
X69605874Y-59865000D01*
X69194126Y-59865000D01*
X68813720Y-60022569D01*
X68522569Y-60313720D01*
X68365000Y-60694126D01*
X64135000Y-60694126D01*
X63977431Y-60313720D01*
X63686280Y-60022569D01*
X63305874Y-59865000D01*
X62894126Y-59865000D01*
X62513720Y-60022569D01*
X62222569Y-60313720D01*
X62065000Y-60694126D01*
X62065000Y-61105874D01*
X62222569Y-61486280D01*
X62513720Y-61777431D01*
X62578562Y-61804289D01*
X62500000Y-61836831D01*
X62205874Y-61715000D01*
X61794126Y-61715000D01*
X61413720Y-61872569D01*
X61122569Y-62163720D01*
X60965000Y-62544126D01*
X50945155Y-62544126D01*
X51142926Y-62462207D01*
X51462207Y-62142926D01*
X51635000Y-61725766D01*
X51635000Y-61274234D01*
X51462207Y-60857074D01*
X51142926Y-60537793D01*
X50725766Y-60365000D01*
X50274234Y-60365000D01*
X49857074Y-60537793D01*
X49537793Y-60857074D01*
X49365000Y-61274234D01*
X46135000Y-61274234D01*
X45962207Y-60857074D01*
X45642926Y-60537793D01*
X45225766Y-60365000D01*
X44774234Y-60365000D01*
X44357074Y-60537793D01*
X44037793Y-60857074D01*
X43865000Y-61274234D01*
X42710000Y-61274234D01*
X42710000Y-55534316D01*
X43645290Y-55534316D01*
X44146139Y-56144068D01*
X45949242Y-56920745D01*
X47912314Y-56948283D01*
X49736494Y-56222490D01*
X49853861Y-56144068D01*
X50354710Y-55534316D01*
X83645290Y-55534316D01*
X84146139Y-56144068D01*
X85949242Y-56920745D01*
X87912314Y-56948283D01*
X89736494Y-56222490D01*
X89853861Y-56144068D01*
X90354710Y-55534316D01*
X89854559Y-55034165D01*
X89854559Y-55034164D01*
X87000000Y-52179605D01*
X84145441Y-55034164D01*
X84145441Y-55034165D01*
X83645290Y-55534316D01*
X50354710Y-55534316D01*
X49854559Y-55034165D01*
X49854559Y-55034164D01*
X47000000Y-52179605D01*
X44145441Y-55034164D01*
X44145441Y-55034165D01*
X43645290Y-55534316D01*
X42710000Y-55534316D01*
X42710000Y-54566817D01*
X42777510Y-54736494D01*
X42855932Y-54853861D01*
X43465684Y-55354710D01*
X43965835Y-54854559D01*
X43965836Y-54854559D01*
X46820395Y-52000000D01*
X47179605Y-52000000D01*
X50034164Y-54854559D01*
X50034165Y-54854559D01*
X50534316Y-55354710D01*
X51144068Y-54853861D01*
X51920745Y-53050758D01*
X51922687Y-52912314D01*
X82051717Y-52912314D01*
X82777510Y-54736494D01*
X82855932Y-54853861D01*
X83465684Y-55354710D01*
X83965835Y-54854559D01*
X83965836Y-54854559D01*
X86820395Y-52000000D01*
X83965836Y-49145441D01*
X83965835Y-49145441D01*
X83465684Y-48645290D01*
X82855932Y-49146139D01*
X82079255Y-50949242D01*
X82051717Y-52912314D01*
X51922687Y-52912314D01*
X51948283Y-51087686D01*
X51222490Y-49263506D01*
X51144068Y-49146139D01*
X50534316Y-48645290D01*
X50034165Y-49145441D01*
X50034164Y-49145441D01*
X47179605Y-52000000D01*
X46820395Y-52000000D01*
X46806253Y-51985858D01*
X46985858Y-51806253D01*
X47000000Y-51820395D01*
X49854559Y-48965836D01*
X49854559Y-48965835D01*
X50354710Y-48465684D01*
X50341828Y-48450000D01*
X55102560Y-48450000D01*
X55102560Y-50150000D01*
X55151843Y-50397765D01*
X55292191Y-50607809D01*
X55502235Y-50748157D01*
X55750000Y-50797440D01*
X57450000Y-50797440D01*
X57697765Y-50748157D01*
X57907809Y-50607809D01*
X58048157Y-50397765D01*
X58068739Y-50294292D01*
X58373076Y-50571645D01*
X58783110Y-50741476D01*
X59013000Y-50620155D01*
X59013000Y-49427000D01*
X59267000Y-49427000D01*
X59267000Y-50620155D01*
X59496890Y-50741476D01*
X59906924Y-50571645D01*
X60335183Y-50181358D01*
X60581486Y-49656892D01*
X60460819Y-49427000D01*
X59267000Y-49427000D01*
X59013000Y-49427000D01*
X58993000Y-49427000D01*
X58993000Y-49173000D01*
X59013000Y-49173000D01*
X59013000Y-47979845D01*
X59267000Y-47979845D01*
X59267000Y-49173000D01*
X60460819Y-49173000D01*
X60581486Y-48943108D01*
X60349910Y-48450000D01*
X63302560Y-48450000D01*
X63302560Y-50150000D01*
X63351843Y-50397765D01*
X63492191Y-50607809D01*
X63702235Y-50748157D01*
X63950000Y-50797440D01*
X65650000Y-50797440D01*
X65897765Y-50748157D01*
X66107809Y-50607809D01*
X66248157Y-50397765D01*
X66257184Y-50352381D01*
X66269375Y-50370625D01*
X66760582Y-50698839D01*
X67193744Y-50785000D01*
X67486256Y-50785000D01*
X67919418Y-50698839D01*
X68410625Y-50370625D01*
X68738839Y-49879418D01*
X68854092Y-49300000D01*
X68738839Y-48720582D01*
X68410625Y-48229375D01*
X67919418Y-47901161D01*
X67486256Y-47815000D01*
X67193744Y-47815000D01*
X66760582Y-47901161D01*
X66269375Y-48229375D01*
X66257184Y-48247619D01*
X66248157Y-48202235D01*
X66107809Y-47992191D01*
X65897765Y-47851843D01*
X65650000Y-47802560D01*
X63950000Y-47802560D01*
X63702235Y-47851843D01*
X63492191Y-47992191D01*
X63351843Y-48202235D01*
X63302560Y-48450000D01*
X60349910Y-48450000D01*
X60335183Y-48418642D01*
X59906924Y-48028355D01*
X59496890Y-47858524D01*
X59267000Y-47979845D01*
X59013000Y-47979845D01*
X58783110Y-47858524D01*
X58373076Y-48028355D01*
X58068739Y-48305708D01*
X58048157Y-48202235D01*
X57907809Y-47992191D01*
X57697765Y-47851843D01*
X57450000Y-47802560D01*
X55750000Y-47802560D01*
X55502235Y-47851843D01*
X55292191Y-47992191D01*
X55151843Y-48202235D01*
X55102560Y-48450000D01*
X50341828Y-48450000D01*
X49853861Y-47855932D01*
X49515071Y-47710000D01*
X84433183Y-47710000D01*
X84263506Y-47777510D01*
G36*
X58373000Y-70000000D02*
X58382667Y-70048601D01*
X58410197Y-70089803D01*
X58451399Y-70117333D01*
X58500000Y-70127000D01*
X61573000Y-70127000D01*
X61573000Y-70873000D01*
X60300000Y-70873000D01*
X60251399Y-70882667D01*
X60210197Y-70910197D01*
X60182667Y-70951399D01*
X60173000Y-71000000D01*
X60173000Y-71573000D01*
X58500000Y-71573000D01*
X58451399Y-71582667D01*
X58410197Y-71610197D01*
X58382667Y-71651399D01*
X58373000Y-71700000D01*
X58373000Y-72273000D01*
X57900000Y-72273000D01*
X57851399Y-72282667D01*
X57810197Y-72310197D01*
X57782667Y-72351399D01*
X57773000Y-72400000D01*
X57773000Y-73373000D01*
X55127000Y-73373000D01*
X55127000Y-67027000D01*
X58373000Y-67027000D01*
X58373000Y-70000000D01*
X58373000Y-70000000D01*
G37*
X58373000Y-70000000D02*
X58382667Y-70048601D01*
X58410197Y-70089803D01*
X58451399Y-70117333D01*
X58500000Y-70127000D01*
X61573000Y-70127000D01*
X61573000Y-70873000D01*
X60300000Y-70873000D01*
X60251399Y-70882667D01*
X60210197Y-70910197D01*
X60182667Y-70951399D01*
X60173000Y-71000000D01*
X60173000Y-71573000D01*
X58500000Y-71573000D01*
X58451399Y-71582667D01*
X58410197Y-71610197D01*
X58382667Y-71651399D01*
X58373000Y-71700000D01*
X58373000Y-72273000D01*
X57900000Y-72273000D01*
X57851399Y-72282667D01*
X57810197Y-72310197D01*
X57782667Y-72351399D01*
X57773000Y-72400000D01*
X57773000Y-73373000D01*
X55127000Y-73373000D01*
X55127000Y-67027000D01*
X58373000Y-67027000D01*
X58373000Y-70000000D01*
G04 #@! TD*
M02*
