G04 #@! TF.GenerationSoftware,KiCad,Pcbnew,(5.0.1-3-g963ef8bb5)*
G04 #@! TF.CreationDate,2020-12-22T09:25:36-05:00*
G04 #@! TF.ProjectId,STM32F4_Breakout,53544D333246345F427265616B6F7574,rev?*
G04 #@! TF.SameCoordinates,Original*
G04 #@! TF.FileFunction,Soldermask,Bot*
G04 #@! TF.FilePolarity,Negative*
%FSLAX46Y46*%
G04 Gerber Fmt 4.6, Leading zero omitted, Abs format (unit mm)*
G04 Created by KiCad (PCBNEW (5.0.1-3-g963ef8bb5)) date Tuesday, December 22, 2020 at 09:25:36 am*
%MOMM*%
%LPD*%
G01*
G04 APERTURE LIST*
%ADD10C,0.100000*%
G04 APERTURE END LIST*
D10*
G36*
X87548156Y-87672794D02*
X88269140Y-87816206D01*
X89060972Y-88144193D01*
X89773601Y-88620357D01*
X90379643Y-89226399D01*
X90855807Y-89939028D01*
X91183794Y-90730860D01*
X91351000Y-91571464D01*
X91351000Y-92428536D01*
X91183794Y-93269140D01*
X90855807Y-94060972D01*
X90379643Y-94773601D01*
X89773601Y-95379643D01*
X89060972Y-95855807D01*
X88269140Y-96183794D01*
X87548156Y-96327206D01*
X87428537Y-96351000D01*
X86571463Y-96351000D01*
X86451844Y-96327206D01*
X85730860Y-96183794D01*
X84939028Y-95855807D01*
X84226399Y-95379643D01*
X83620357Y-94773601D01*
X83144193Y-94060972D01*
X82816206Y-93269140D01*
X82649000Y-92428536D01*
X82649000Y-91571464D01*
X82816206Y-90730860D01*
X83144193Y-89939028D01*
X83620357Y-89226399D01*
X84226399Y-88620357D01*
X84939028Y-88144193D01*
X85730860Y-87816206D01*
X86451844Y-87672794D01*
X86571463Y-87649000D01*
X87428537Y-87649000D01*
X87548156Y-87672794D01*
X87548156Y-87672794D01*
G37*
G36*
X47548156Y-87672794D02*
X48269140Y-87816206D01*
X49060972Y-88144193D01*
X49773601Y-88620357D01*
X50379643Y-89226399D01*
X50855807Y-89939028D01*
X51183794Y-90730860D01*
X51351000Y-91571464D01*
X51351000Y-92428536D01*
X51183794Y-93269140D01*
X50855807Y-94060972D01*
X50379643Y-94773601D01*
X49773601Y-95379643D01*
X49060972Y-95855807D01*
X48269140Y-96183794D01*
X47548156Y-96327206D01*
X47428537Y-96351000D01*
X46571463Y-96351000D01*
X46451844Y-96327206D01*
X45730860Y-96183794D01*
X44939028Y-95855807D01*
X44226399Y-95379643D01*
X43620357Y-94773601D01*
X43144193Y-94060972D01*
X42816206Y-93269140D01*
X42649000Y-92428536D01*
X42649000Y-91571464D01*
X42816206Y-90730860D01*
X43144193Y-89939028D01*
X43620357Y-89226399D01*
X44226399Y-88620357D01*
X44939028Y-88144193D01*
X45730860Y-87816206D01*
X46451844Y-87672794D01*
X46571463Y-87649000D01*
X47428537Y-87649000D01*
X47548156Y-87672794D01*
X47548156Y-87672794D01*
G37*
G36*
X71701000Y-95601000D02*
X69899000Y-95601000D01*
X69899000Y-93799000D01*
X71701000Y-93799000D01*
X71701000Y-95601000D01*
X71701000Y-95601000D01*
G37*
G36*
X68370443Y-93805519D02*
X68436627Y-93812037D01*
X68549853Y-93846384D01*
X68606467Y-93863557D01*
X68745087Y-93937652D01*
X68762991Y-93947222D01*
X68779840Y-93961050D01*
X68900186Y-94059814D01*
X68961300Y-94134283D01*
X69012778Y-94197009D01*
X69012779Y-94197011D01*
X69096443Y-94353533D01*
X69096443Y-94353534D01*
X69147963Y-94523373D01*
X69165359Y-94700000D01*
X69147963Y-94876627D01*
X69114273Y-94987688D01*
X69096443Y-95046467D01*
X69079126Y-95078864D01*
X69012778Y-95202991D01*
X68983448Y-95238729D01*
X68900186Y-95340186D01*
X68798729Y-95423448D01*
X68762991Y-95452778D01*
X68762989Y-95452779D01*
X68606467Y-95536443D01*
X68549853Y-95553616D01*
X68436627Y-95587963D01*
X68370442Y-95594482D01*
X68304260Y-95601000D01*
X68215740Y-95601000D01*
X68149558Y-95594482D01*
X68083373Y-95587963D01*
X67970147Y-95553616D01*
X67913533Y-95536443D01*
X67757011Y-95452779D01*
X67757009Y-95452778D01*
X67721271Y-95423448D01*
X67619814Y-95340186D01*
X67536552Y-95238729D01*
X67507222Y-95202991D01*
X67440874Y-95078864D01*
X67423557Y-95046467D01*
X67405727Y-94987688D01*
X67372037Y-94876627D01*
X67354641Y-94700000D01*
X67372037Y-94523373D01*
X67423557Y-94353534D01*
X67423557Y-94353533D01*
X67507221Y-94197011D01*
X67507222Y-94197009D01*
X67558700Y-94134283D01*
X67619814Y-94059814D01*
X67740160Y-93961050D01*
X67757009Y-93947222D01*
X67774913Y-93937652D01*
X67913533Y-93863557D01*
X67970147Y-93846384D01*
X68083373Y-93812037D01*
X68149557Y-93805519D01*
X68215740Y-93799000D01*
X68304260Y-93799000D01*
X68370443Y-93805519D01*
X68370443Y-93805519D01*
G37*
G36*
X65830443Y-93805519D02*
X65896627Y-93812037D01*
X66009853Y-93846384D01*
X66066467Y-93863557D01*
X66205087Y-93937652D01*
X66222991Y-93947222D01*
X66239840Y-93961050D01*
X66360186Y-94059814D01*
X66421300Y-94134283D01*
X66472778Y-94197009D01*
X66472779Y-94197011D01*
X66556443Y-94353533D01*
X66556443Y-94353534D01*
X66607963Y-94523373D01*
X66625359Y-94700000D01*
X66607963Y-94876627D01*
X66574273Y-94987688D01*
X66556443Y-95046467D01*
X66539126Y-95078864D01*
X66472778Y-95202991D01*
X66443448Y-95238729D01*
X66360186Y-95340186D01*
X66258729Y-95423448D01*
X66222991Y-95452778D01*
X66222989Y-95452779D01*
X66066467Y-95536443D01*
X66009853Y-95553616D01*
X65896627Y-95587963D01*
X65830442Y-95594482D01*
X65764260Y-95601000D01*
X65675740Y-95601000D01*
X65609558Y-95594482D01*
X65543373Y-95587963D01*
X65430147Y-95553616D01*
X65373533Y-95536443D01*
X65217011Y-95452779D01*
X65217009Y-95452778D01*
X65181271Y-95423448D01*
X65079814Y-95340186D01*
X64996552Y-95238729D01*
X64967222Y-95202991D01*
X64900874Y-95078864D01*
X64883557Y-95046467D01*
X64865727Y-94987688D01*
X64832037Y-94876627D01*
X64814641Y-94700000D01*
X64832037Y-94523373D01*
X64883557Y-94353534D01*
X64883557Y-94353533D01*
X64967221Y-94197011D01*
X64967222Y-94197009D01*
X65018700Y-94134283D01*
X65079814Y-94059814D01*
X65200160Y-93961050D01*
X65217009Y-93947222D01*
X65234913Y-93937652D01*
X65373533Y-93863557D01*
X65430147Y-93846384D01*
X65543373Y-93812037D01*
X65609557Y-93805519D01*
X65675740Y-93799000D01*
X65764260Y-93799000D01*
X65830443Y-93805519D01*
X65830443Y-93805519D01*
G37*
G36*
X63290443Y-93805519D02*
X63356627Y-93812037D01*
X63469853Y-93846384D01*
X63526467Y-93863557D01*
X63665087Y-93937652D01*
X63682991Y-93947222D01*
X63699840Y-93961050D01*
X63820186Y-94059814D01*
X63881300Y-94134283D01*
X63932778Y-94197009D01*
X63932779Y-94197011D01*
X64016443Y-94353533D01*
X64016443Y-94353534D01*
X64067963Y-94523373D01*
X64085359Y-94700000D01*
X64067963Y-94876627D01*
X64034273Y-94987688D01*
X64016443Y-95046467D01*
X63999126Y-95078864D01*
X63932778Y-95202991D01*
X63903448Y-95238729D01*
X63820186Y-95340186D01*
X63718729Y-95423448D01*
X63682991Y-95452778D01*
X63682989Y-95452779D01*
X63526467Y-95536443D01*
X63469853Y-95553616D01*
X63356627Y-95587963D01*
X63290442Y-95594482D01*
X63224260Y-95601000D01*
X63135740Y-95601000D01*
X63069558Y-95594482D01*
X63003373Y-95587963D01*
X62890147Y-95553616D01*
X62833533Y-95536443D01*
X62677011Y-95452779D01*
X62677009Y-95452778D01*
X62641271Y-95423448D01*
X62539814Y-95340186D01*
X62456552Y-95238729D01*
X62427222Y-95202991D01*
X62360874Y-95078864D01*
X62343557Y-95046467D01*
X62325727Y-94987688D01*
X62292037Y-94876627D01*
X62274641Y-94700000D01*
X62292037Y-94523373D01*
X62343557Y-94353534D01*
X62343557Y-94353533D01*
X62427221Y-94197011D01*
X62427222Y-94197009D01*
X62478700Y-94134283D01*
X62539814Y-94059814D01*
X62660160Y-93961050D01*
X62677009Y-93947222D01*
X62694913Y-93937652D01*
X62833533Y-93863557D01*
X62890147Y-93846384D01*
X63003373Y-93812037D01*
X63069557Y-93805519D01*
X63135740Y-93799000D01*
X63224260Y-93799000D01*
X63290443Y-93805519D01*
X63290443Y-93805519D01*
G37*
G36*
X45201000Y-83701000D02*
X43399000Y-83701000D01*
X43399000Y-81899000D01*
X45201000Y-81899000D01*
X45201000Y-83701000D01*
X45201000Y-83701000D01*
G37*
G36*
X44410442Y-79365518D02*
X44476627Y-79372037D01*
X44589853Y-79406384D01*
X44646467Y-79423557D01*
X44785087Y-79497652D01*
X44802991Y-79507222D01*
X44838729Y-79536552D01*
X44940186Y-79619814D01*
X45023448Y-79721271D01*
X45052778Y-79757009D01*
X45052779Y-79757011D01*
X45136443Y-79913533D01*
X45136443Y-79913534D01*
X45187963Y-80083373D01*
X45205359Y-80260000D01*
X45187963Y-80436627D01*
X45153616Y-80549853D01*
X45136443Y-80606467D01*
X45062348Y-80745087D01*
X45052778Y-80762991D01*
X45023448Y-80798729D01*
X44940186Y-80900186D01*
X44838729Y-80983448D01*
X44802991Y-81012778D01*
X44802989Y-81012779D01*
X44646467Y-81096443D01*
X44589853Y-81113616D01*
X44476627Y-81147963D01*
X44410443Y-81154481D01*
X44344260Y-81161000D01*
X44255740Y-81161000D01*
X44189557Y-81154481D01*
X44123373Y-81147963D01*
X44010147Y-81113616D01*
X43953533Y-81096443D01*
X43797011Y-81012779D01*
X43797009Y-81012778D01*
X43761271Y-80983448D01*
X43659814Y-80900186D01*
X43576552Y-80798729D01*
X43547222Y-80762991D01*
X43537652Y-80745087D01*
X43463557Y-80606467D01*
X43446384Y-80549853D01*
X43412037Y-80436627D01*
X43394641Y-80260000D01*
X43412037Y-80083373D01*
X43463557Y-79913534D01*
X43463557Y-79913533D01*
X43547221Y-79757011D01*
X43547222Y-79757009D01*
X43576552Y-79721271D01*
X43659814Y-79619814D01*
X43761271Y-79536552D01*
X43797009Y-79507222D01*
X43814913Y-79497652D01*
X43953533Y-79423557D01*
X44010147Y-79406384D01*
X44123373Y-79372037D01*
X44189558Y-79365518D01*
X44255740Y-79359000D01*
X44344260Y-79359000D01*
X44410442Y-79365518D01*
X44410442Y-79365518D01*
G37*
G36*
X89810443Y-72945519D02*
X89876627Y-72952037D01*
X89989853Y-72986384D01*
X90046467Y-73003557D01*
X90185087Y-73077652D01*
X90202991Y-73087222D01*
X90238729Y-73116552D01*
X90340186Y-73199814D01*
X90423448Y-73301271D01*
X90452778Y-73337009D01*
X90452779Y-73337011D01*
X90536443Y-73493533D01*
X90536443Y-73493534D01*
X90587963Y-73663373D01*
X90605359Y-73840000D01*
X90587963Y-74016627D01*
X90553616Y-74129853D01*
X90536443Y-74186467D01*
X90462348Y-74325087D01*
X90452778Y-74342991D01*
X90423448Y-74378729D01*
X90340186Y-74480186D01*
X90238729Y-74563448D01*
X90202991Y-74592778D01*
X90202989Y-74592779D01*
X90046467Y-74676443D01*
X89989853Y-74693616D01*
X89876627Y-74727963D01*
X89810443Y-74734481D01*
X89744260Y-74741000D01*
X89655740Y-74741000D01*
X89589557Y-74734481D01*
X89523373Y-74727963D01*
X89410147Y-74693616D01*
X89353533Y-74676443D01*
X89197011Y-74592779D01*
X89197009Y-74592778D01*
X89161271Y-74563448D01*
X89059814Y-74480186D01*
X88976552Y-74378729D01*
X88947222Y-74342991D01*
X88937652Y-74325087D01*
X88863557Y-74186467D01*
X88846384Y-74129853D01*
X88812037Y-74016627D01*
X88794641Y-73840000D01*
X88812037Y-73663373D01*
X88863557Y-73493534D01*
X88863557Y-73493533D01*
X88947221Y-73337011D01*
X88947222Y-73337009D01*
X88976552Y-73301271D01*
X89059814Y-73199814D01*
X89161271Y-73116552D01*
X89197009Y-73087222D01*
X89214913Y-73077652D01*
X89353533Y-73003557D01*
X89410147Y-72986384D01*
X89523373Y-72952037D01*
X89589557Y-72945519D01*
X89655740Y-72939000D01*
X89744260Y-72939000D01*
X89810443Y-72945519D01*
X89810443Y-72945519D01*
G37*
G36*
X90601000Y-72201000D02*
X88799000Y-72201000D01*
X88799000Y-70399000D01*
X90601000Y-70399000D01*
X90601000Y-72201000D01*
X90601000Y-72201000D01*
G37*
G36*
X87548156Y-47672794D02*
X88269140Y-47816206D01*
X89060972Y-48144193D01*
X89773601Y-48620357D01*
X90379643Y-49226399D01*
X90855807Y-49939028D01*
X91183794Y-50730860D01*
X91351000Y-51571464D01*
X91351000Y-52428536D01*
X91183794Y-53269140D01*
X90855807Y-54060972D01*
X90379643Y-54773601D01*
X89773601Y-55379643D01*
X89060972Y-55855807D01*
X88269140Y-56183794D01*
X87548156Y-56327206D01*
X87428537Y-56351000D01*
X86571463Y-56351000D01*
X86451844Y-56327206D01*
X85730860Y-56183794D01*
X84939028Y-55855807D01*
X84226399Y-55379643D01*
X83620357Y-54773601D01*
X83144193Y-54060972D01*
X82816206Y-53269140D01*
X82649000Y-52428536D01*
X82649000Y-51571464D01*
X82816206Y-50730860D01*
X83144193Y-49939028D01*
X83620357Y-49226399D01*
X84226399Y-48620357D01*
X84939028Y-48144193D01*
X85730860Y-47816206D01*
X86451844Y-47672794D01*
X86571463Y-47649000D01*
X87428537Y-47649000D01*
X87548156Y-47672794D01*
X87548156Y-47672794D01*
G37*
G36*
X47548156Y-47672794D02*
X48269140Y-47816206D01*
X49060972Y-48144193D01*
X49773601Y-48620357D01*
X50379643Y-49226399D01*
X50855807Y-49939028D01*
X51183794Y-50730860D01*
X51351000Y-51571464D01*
X51351000Y-52428536D01*
X51183794Y-53269140D01*
X50855807Y-54060972D01*
X50379643Y-54773601D01*
X49773601Y-55379643D01*
X49060972Y-55855807D01*
X48269140Y-56183794D01*
X47548156Y-56327206D01*
X47428537Y-56351000D01*
X46571463Y-56351000D01*
X46451844Y-56327206D01*
X45730860Y-56183794D01*
X44939028Y-55855807D01*
X44226399Y-55379643D01*
X43620357Y-54773601D01*
X43144193Y-54060972D01*
X42816206Y-53269140D01*
X42649000Y-52428536D01*
X42649000Y-51571464D01*
X42816206Y-50730860D01*
X43144193Y-49939028D01*
X43620357Y-49226399D01*
X44226399Y-48620357D01*
X44939028Y-48144193D01*
X45730860Y-47816206D01*
X46451844Y-47672794D01*
X46571463Y-47649000D01*
X47428537Y-47649000D01*
X47548156Y-47672794D01*
X47548156Y-47672794D01*
G37*
G36*
X67450443Y-48405519D02*
X67516627Y-48412037D01*
X67629853Y-48446384D01*
X67686467Y-48463557D01*
X67825087Y-48537652D01*
X67842991Y-48547222D01*
X67878729Y-48576552D01*
X67980186Y-48659814D01*
X68034220Y-48725656D01*
X68092778Y-48797009D01*
X68092779Y-48797011D01*
X68176443Y-48953533D01*
X68176443Y-48953534D01*
X68227963Y-49123373D01*
X68245359Y-49300000D01*
X68227963Y-49476627D01*
X68198594Y-49573445D01*
X68176443Y-49646467D01*
X68163737Y-49670237D01*
X68092778Y-49802991D01*
X68063448Y-49838729D01*
X67980186Y-49940186D01*
X67878729Y-50023448D01*
X67842991Y-50052778D01*
X67842989Y-50052779D01*
X67686467Y-50136443D01*
X67629853Y-50153616D01*
X67516627Y-50187963D01*
X67450442Y-50194482D01*
X67384260Y-50201000D01*
X67295740Y-50201000D01*
X67229558Y-50194482D01*
X67163373Y-50187963D01*
X67050147Y-50153616D01*
X66993533Y-50136443D01*
X66837011Y-50052779D01*
X66837009Y-50052778D01*
X66801271Y-50023448D01*
X66699814Y-49940186D01*
X66616552Y-49838729D01*
X66587222Y-49802991D01*
X66516263Y-49670237D01*
X66503557Y-49646467D01*
X66481406Y-49573445D01*
X66452037Y-49476627D01*
X66434641Y-49300000D01*
X66452037Y-49123373D01*
X66503557Y-48953534D01*
X66503557Y-48953533D01*
X66587221Y-48797011D01*
X66587222Y-48797009D01*
X66645780Y-48725656D01*
X66699814Y-48659814D01*
X66801271Y-48576552D01*
X66837009Y-48547222D01*
X66854913Y-48537652D01*
X66993533Y-48463557D01*
X67050147Y-48446384D01*
X67163373Y-48412037D01*
X67229557Y-48405519D01*
X67295740Y-48399000D01*
X67384260Y-48399000D01*
X67450443Y-48405519D01*
X67450443Y-48405519D01*
G37*
G36*
X65701000Y-50201000D02*
X63899000Y-50201000D01*
X63899000Y-48399000D01*
X65701000Y-48399000D01*
X65701000Y-50201000D01*
X65701000Y-50201000D01*
G37*
G36*
X59250443Y-48405519D02*
X59316627Y-48412037D01*
X59429853Y-48446384D01*
X59486467Y-48463557D01*
X59625087Y-48537652D01*
X59642991Y-48547222D01*
X59678729Y-48576552D01*
X59780186Y-48659814D01*
X59834220Y-48725656D01*
X59892778Y-48797009D01*
X59892779Y-48797011D01*
X59976443Y-48953533D01*
X59976443Y-48953534D01*
X60027963Y-49123373D01*
X60045359Y-49300000D01*
X60027963Y-49476627D01*
X59998594Y-49573445D01*
X59976443Y-49646467D01*
X59963737Y-49670237D01*
X59892778Y-49802991D01*
X59863448Y-49838729D01*
X59780186Y-49940186D01*
X59678729Y-50023448D01*
X59642991Y-50052778D01*
X59642989Y-50052779D01*
X59486467Y-50136443D01*
X59429853Y-50153616D01*
X59316627Y-50187963D01*
X59250442Y-50194482D01*
X59184260Y-50201000D01*
X59095740Y-50201000D01*
X59029558Y-50194482D01*
X58963373Y-50187963D01*
X58850147Y-50153616D01*
X58793533Y-50136443D01*
X58637011Y-50052779D01*
X58637009Y-50052778D01*
X58601271Y-50023448D01*
X58499814Y-49940186D01*
X58416552Y-49838729D01*
X58387222Y-49802991D01*
X58316263Y-49670237D01*
X58303557Y-49646467D01*
X58281406Y-49573445D01*
X58252037Y-49476627D01*
X58234641Y-49300000D01*
X58252037Y-49123373D01*
X58303557Y-48953534D01*
X58303557Y-48953533D01*
X58387221Y-48797011D01*
X58387222Y-48797009D01*
X58445780Y-48725656D01*
X58499814Y-48659814D01*
X58601271Y-48576552D01*
X58637009Y-48547222D01*
X58654913Y-48537652D01*
X58793533Y-48463557D01*
X58850147Y-48446384D01*
X58963373Y-48412037D01*
X59029557Y-48405519D01*
X59095740Y-48399000D01*
X59184260Y-48399000D01*
X59250443Y-48405519D01*
X59250443Y-48405519D01*
G37*
G36*
X57501000Y-50201000D02*
X55699000Y-50201000D01*
X55699000Y-48399000D01*
X57501000Y-48399000D01*
X57501000Y-50201000D01*
X57501000Y-50201000D01*
G37*
M02*
