G04 #@! TF.GenerationSoftware,KiCad,Pcbnew,(5.0.1-3-g963ef8bb5)*
G04 #@! TF.CreationDate,2020-12-22T09:25:36-05:00*
G04 #@! TF.ProjectId,STM32F4_Breakout,53544D333246345F427265616B6F7574,rev?*
G04 #@! TF.SameCoordinates,Original*
G04 #@! TF.FileFunction,Legend,Bot*
G04 #@! TF.FilePolarity,Positive*
%FSLAX46Y46*%
G04 Gerber Fmt 4.6, Leading zero omitted, Abs format (unit mm)*
G04 Created by KiCad (PCBNEW (5.0.1-3-g963ef8bb5)) date Tuesday, December 22, 2020 at 09:25:36 am*
%MOMM*%
%LPD*%
G01*
G04 APERTURE LIST*
%ADD10C,0.150000*%
G04 APERTURE END LIST*
D10*
X46938095Y-80800000D02*
X46842857Y-80847619D01*
X46700000Y-80847619D01*
X46557142Y-80800000D01*
X46461904Y-80704761D01*
X46414285Y-80609523D01*
X46366666Y-80419047D01*
X46366666Y-80276190D01*
X46414285Y-80085714D01*
X46461904Y-79990476D01*
X46557142Y-79895238D01*
X46700000Y-79847619D01*
X46795238Y-79847619D01*
X46938095Y-79895238D01*
X46985714Y-79942857D01*
X46985714Y-80276190D01*
X46795238Y-80276190D01*
X47414285Y-79847619D02*
X47414285Y-80847619D01*
X47985714Y-79847619D01*
X47985714Y-80847619D01*
X48461904Y-79847619D02*
X48461904Y-80847619D01*
X48700000Y-80847619D01*
X48842857Y-80800000D01*
X48938095Y-80704761D01*
X48985714Y-80609523D01*
X49033333Y-80419047D01*
X49033333Y-80276190D01*
X48985714Y-80085714D01*
X48938095Y-79990476D01*
X48842857Y-79895238D01*
X48700000Y-79847619D01*
X48461904Y-79847619D01*
X46266666Y-83347619D02*
X46600000Y-82347619D01*
X46933333Y-83347619D01*
X47838095Y-82442857D02*
X47790476Y-82395238D01*
X47647619Y-82347619D01*
X47552380Y-82347619D01*
X47409523Y-82395238D01*
X47314285Y-82490476D01*
X47266666Y-82585714D01*
X47219047Y-82776190D01*
X47219047Y-82919047D01*
X47266666Y-83109523D01*
X47314285Y-83204761D01*
X47409523Y-83300000D01*
X47552380Y-83347619D01*
X47647619Y-83347619D01*
X47790476Y-83300000D01*
X47838095Y-83252380D01*
X48838095Y-82442857D02*
X48790476Y-82395238D01*
X48647619Y-82347619D01*
X48552380Y-82347619D01*
X48409523Y-82395238D01*
X48314285Y-82490476D01*
X48266666Y-82585714D01*
X48219047Y-82776190D01*
X48219047Y-82919047D01*
X48266666Y-83109523D01*
X48314285Y-83204761D01*
X48409523Y-83300000D01*
X48552380Y-83347619D01*
X48647619Y-83347619D01*
X48790476Y-83300000D01*
X48838095Y-83252380D01*
X62842857Y-93176190D02*
X62795238Y-93128571D01*
X62747619Y-93176190D01*
X62795238Y-93223809D01*
X62842857Y-93176190D01*
X62747619Y-93176190D01*
X63128571Y-93176190D02*
X63700000Y-93223809D01*
X63747619Y-93176190D01*
X63700000Y-93128571D01*
X63128571Y-93176190D01*
X63747619Y-93176190D01*
X62842857Y-92128571D02*
X62795238Y-92176190D01*
X62747619Y-92319047D01*
X62747619Y-92414285D01*
X62795238Y-92557142D01*
X62890476Y-92652380D01*
X62985714Y-92700000D01*
X63176190Y-92747619D01*
X63319047Y-92747619D01*
X63509523Y-92700000D01*
X63604761Y-92652380D01*
X63700000Y-92557142D01*
X63747619Y-92414285D01*
X63747619Y-92319047D01*
X63700000Y-92176190D01*
X63652380Y-92128571D01*
X62795238Y-91747619D02*
X62747619Y-91604761D01*
X62747619Y-91366666D01*
X62795238Y-91271428D01*
X62842857Y-91223809D01*
X62938095Y-91176190D01*
X63033333Y-91176190D01*
X63128571Y-91223809D01*
X63176190Y-91271428D01*
X63223809Y-91366666D01*
X63271428Y-91557142D01*
X63319047Y-91652380D01*
X63366666Y-91700000D01*
X63461904Y-91747619D01*
X63557142Y-91747619D01*
X63652380Y-91700000D01*
X63700000Y-91652380D01*
X63747619Y-91557142D01*
X63747619Y-91319047D01*
X63700000Y-91176190D01*
X65295238Y-92985714D02*
X65247619Y-92842857D01*
X65247619Y-92604761D01*
X65295238Y-92509523D01*
X65342857Y-92461904D01*
X65438095Y-92414285D01*
X65533333Y-92414285D01*
X65628571Y-92461904D01*
X65676190Y-92509523D01*
X65723809Y-92604761D01*
X65771428Y-92795238D01*
X65819047Y-92890476D01*
X65866666Y-92938095D01*
X65961904Y-92985714D01*
X66057142Y-92985714D01*
X66152380Y-92938095D01*
X66200000Y-92890476D01*
X66247619Y-92795238D01*
X66247619Y-92557142D01*
X66200000Y-92414285D01*
X65342857Y-91414285D02*
X65295238Y-91461904D01*
X65247619Y-91604761D01*
X65247619Y-91700000D01*
X65295238Y-91842857D01*
X65390476Y-91938095D01*
X65485714Y-91985714D01*
X65676190Y-92033333D01*
X65819047Y-92033333D01*
X66009523Y-91985714D01*
X66104761Y-91938095D01*
X66200000Y-91842857D01*
X66247619Y-91700000D01*
X66247619Y-91604761D01*
X66200000Y-91461904D01*
X66152380Y-91414285D01*
X65247619Y-90985714D02*
X66247619Y-90985714D01*
X65247619Y-90414285D02*
X65819047Y-90842857D01*
X66247619Y-90414285D02*
X65676190Y-90985714D01*
X67847619Y-92971428D02*
X68847619Y-92971428D01*
X68133333Y-92638095D01*
X68847619Y-92304761D01*
X67847619Y-92304761D01*
X67847619Y-91828571D02*
X68847619Y-91828571D01*
X67895238Y-91400000D02*
X67847619Y-91257142D01*
X67847619Y-91019047D01*
X67895238Y-90923809D01*
X67942857Y-90876190D01*
X68038095Y-90828571D01*
X68133333Y-90828571D01*
X68228571Y-90876190D01*
X68276190Y-90923809D01*
X68323809Y-91019047D01*
X68371428Y-91209523D01*
X68419047Y-91304761D01*
X68466666Y-91352380D01*
X68561904Y-91400000D01*
X68657142Y-91400000D01*
X68752380Y-91352380D01*
X68800000Y-91304761D01*
X68847619Y-91209523D01*
X68847619Y-90971428D01*
X68800000Y-90828571D01*
X68847619Y-90209523D02*
X68847619Y-90019047D01*
X68800000Y-89923809D01*
X68704761Y-89828571D01*
X68514285Y-89780952D01*
X68180952Y-89780952D01*
X67990476Y-89828571D01*
X67895238Y-89923809D01*
X67847619Y-90019047D01*
X67847619Y-90209523D01*
X67895238Y-90304761D01*
X67990476Y-90400000D01*
X68180952Y-90447619D01*
X68514285Y-90447619D01*
X68704761Y-90400000D01*
X68800000Y-90304761D01*
X68847619Y-90209523D01*
X70347619Y-92971428D02*
X71347619Y-92971428D01*
X70633333Y-92638095D01*
X71347619Y-92304761D01*
X70347619Y-92304761D01*
X71347619Y-91638095D02*
X71347619Y-91447619D01*
X71300000Y-91352380D01*
X71204761Y-91257142D01*
X71014285Y-91209523D01*
X70680952Y-91209523D01*
X70490476Y-91257142D01*
X70395238Y-91352380D01*
X70347619Y-91447619D01*
X70347619Y-91638095D01*
X70395238Y-91733333D01*
X70490476Y-91828571D01*
X70680952Y-91876190D01*
X71014285Y-91876190D01*
X71204761Y-91828571D01*
X71300000Y-91733333D01*
X71347619Y-91638095D01*
X70395238Y-90828571D02*
X70347619Y-90685714D01*
X70347619Y-90447619D01*
X70395238Y-90352380D01*
X70442857Y-90304761D01*
X70538095Y-90257142D01*
X70633333Y-90257142D01*
X70728571Y-90304761D01*
X70776190Y-90352380D01*
X70823809Y-90447619D01*
X70871428Y-90638095D01*
X70919047Y-90733333D01*
X70966666Y-90780952D01*
X71061904Y-90828571D01*
X71157142Y-90828571D01*
X71252380Y-90780952D01*
X71300000Y-90733333D01*
X71347619Y-90638095D01*
X71347619Y-90400000D01*
X71300000Y-90257142D01*
X70347619Y-89828571D02*
X71347619Y-89828571D01*
X86138095Y-74547619D02*
X86709523Y-74547619D01*
X86423809Y-73547619D02*
X86423809Y-74547619D01*
X86947619Y-74547619D02*
X87614285Y-73547619D01*
X87614285Y-74547619D02*
X86947619Y-73547619D01*
X86733333Y-71047619D02*
X86400000Y-71523809D01*
X86161904Y-71047619D02*
X86161904Y-72047619D01*
X86542857Y-72047619D01*
X86638095Y-72000000D01*
X86685714Y-71952380D01*
X86733333Y-71857142D01*
X86733333Y-71714285D01*
X86685714Y-71619047D01*
X86638095Y-71571428D01*
X86542857Y-71523809D01*
X86161904Y-71523809D01*
X87066666Y-72047619D02*
X87733333Y-71047619D01*
X87733333Y-72047619D02*
X87066666Y-71047619D01*
X66995238Y-54090476D02*
X66947619Y-53947619D01*
X66947619Y-53709523D01*
X66995238Y-53614285D01*
X67042857Y-53566666D01*
X67138095Y-53519047D01*
X67233333Y-53519047D01*
X67328571Y-53566666D01*
X67376190Y-53614285D01*
X67423809Y-53709523D01*
X67471428Y-53900000D01*
X67519047Y-53995238D01*
X67566666Y-54042857D01*
X67661904Y-54090476D01*
X67757142Y-54090476D01*
X67852380Y-54042857D01*
X67900000Y-53995238D01*
X67947619Y-53900000D01*
X67947619Y-53661904D01*
X67900000Y-53519047D01*
X67042857Y-52519047D02*
X66995238Y-52566666D01*
X66947619Y-52709523D01*
X66947619Y-52804761D01*
X66995238Y-52947619D01*
X67090476Y-53042857D01*
X67185714Y-53090476D01*
X67376190Y-53138095D01*
X67519047Y-53138095D01*
X67709523Y-53090476D01*
X67804761Y-53042857D01*
X67900000Y-52947619D01*
X67947619Y-52804761D01*
X67947619Y-52709523D01*
X67900000Y-52566666D01*
X67852380Y-52519047D01*
X66947619Y-51614285D02*
X66947619Y-52090476D01*
X67947619Y-52090476D01*
X64395238Y-54114285D02*
X64347619Y-53971428D01*
X64347619Y-53733333D01*
X64395238Y-53638095D01*
X64442857Y-53590476D01*
X64538095Y-53542857D01*
X64633333Y-53542857D01*
X64728571Y-53590476D01*
X64776190Y-53638095D01*
X64823809Y-53733333D01*
X64871428Y-53923809D01*
X64919047Y-54019047D01*
X64966666Y-54066666D01*
X65061904Y-54114285D01*
X65157142Y-54114285D01*
X65252380Y-54066666D01*
X65300000Y-54019047D01*
X65347619Y-53923809D01*
X65347619Y-53685714D01*
X65300000Y-53542857D01*
X64347619Y-53114285D02*
X65347619Y-53114285D01*
X65347619Y-52876190D01*
X65300000Y-52733333D01*
X65204761Y-52638095D01*
X65109523Y-52590476D01*
X64919047Y-52542857D01*
X64776190Y-52542857D01*
X64585714Y-52590476D01*
X64490476Y-52638095D01*
X64395238Y-52733333D01*
X64347619Y-52876190D01*
X64347619Y-53114285D01*
X64633333Y-52161904D02*
X64633333Y-51685714D01*
X64347619Y-52257142D02*
X65347619Y-51923809D01*
X64347619Y-51590476D01*
X57247619Y-54138095D02*
X57247619Y-53519047D01*
X56866666Y-53852380D01*
X56866666Y-53709523D01*
X56819047Y-53614285D01*
X56771428Y-53566666D01*
X56676190Y-53519047D01*
X56438095Y-53519047D01*
X56342857Y-53566666D01*
X56295238Y-53614285D01*
X56247619Y-53709523D01*
X56247619Y-53995238D01*
X56295238Y-54090476D01*
X56342857Y-54138095D01*
X57247619Y-53233333D02*
X56247619Y-52900000D01*
X57247619Y-52566666D01*
X57247619Y-52328571D02*
X57247619Y-51709523D01*
X56866666Y-52042857D01*
X56866666Y-51900000D01*
X56819047Y-51804761D01*
X56771428Y-51757142D01*
X56676190Y-51709523D01*
X56438095Y-51709523D01*
X56342857Y-51757142D01*
X56295238Y-51804761D01*
X56247619Y-51900000D01*
X56247619Y-52185714D01*
X56295238Y-52280952D01*
X56342857Y-52328571D01*
X59700000Y-53661904D02*
X59747619Y-53757142D01*
X59747619Y-53900000D01*
X59700000Y-54042857D01*
X59604761Y-54138095D01*
X59509523Y-54185714D01*
X59319047Y-54233333D01*
X59176190Y-54233333D01*
X58985714Y-54185714D01*
X58890476Y-54138095D01*
X58795238Y-54042857D01*
X58747619Y-53900000D01*
X58747619Y-53804761D01*
X58795238Y-53661904D01*
X58842857Y-53614285D01*
X59176190Y-53614285D01*
X59176190Y-53804761D01*
X58747619Y-53185714D02*
X59747619Y-53185714D01*
X58747619Y-52614285D01*
X59747619Y-52614285D01*
X58747619Y-52138095D02*
X59747619Y-52138095D01*
X59747619Y-51900000D01*
X59700000Y-51757142D01*
X59604761Y-51661904D01*
X59509523Y-51614285D01*
X59319047Y-51566666D01*
X59176190Y-51566666D01*
X58985714Y-51614285D01*
X58890476Y-51661904D01*
X58795238Y-51757142D01*
X58747619Y-51900000D01*
X58747619Y-52138095D01*
M02*
