M48
;DRILL file {KiCad (5.0.1-3-g963ef8bb5)} date Tuesday, December 22, 2020 at 09:27:07 am
;FORMAT={2:4/ absolute / inch / suppress leading zeros}
FMAT,2
INCH,TZ
T1C0.0157
T2C0.0236
T3C0.0315
T4C0.0394
T5C0.1693
%
G90
G05
M72
T1
X18701Y-22638
X18701Y-33465
X20669Y-19685
X20669Y-20669
X20669Y-21654
X20669Y-22638
X20669Y-25591
X20669Y-33465
X20669Y-34449
X20669Y-35433
X20669Y-36417
X20669Y-37402
X21024Y-24882
X21772Y-28740
X21811Y-29843
X21811Y-30276
X21811Y-30748
X22283Y-30748
X22638Y-21654
X22638Y-22638
X22638Y-23622
X22638Y-24606
X22638Y-25591
X22638Y-31496
X22638Y-32480
X22638Y-33465
X22638Y-34449
X22638Y-35433
X22638Y-36417
X22638Y-37402
X22913Y-26614
X23268Y-25984
X23307Y-28543
X23425Y-24961
X23425Y-25551
X23602Y-27087
X23661Y-28543
X24409Y-24705
X24409Y-31181
X24409Y-31575
X24606Y-19685
X24606Y-20669
X24606Y-21654
X24606Y-22638
X24606Y-23622
X24606Y-32480
X24606Y-33465
X24606Y-34449
X24606Y-35433
X24606Y-36417
X24803Y-24705
X24843Y-23976
X25157Y-32087
X25157Y-32480
X25197Y-24705
X25591Y-24705
X27047Y-31811
X27323Y-23976
X27559Y-19685
X27559Y-20669
X27559Y-21654
X27559Y-22638
X27559Y-23622
X27559Y-24606
X27559Y-25591
X27559Y-33465
X27559Y-34449
X27559Y-35433
X27638Y-32283
X28110Y-31890
X28465Y-31890
X28780Y-25591
X29252Y-31339
X29252Y-31693
X29488Y-30945
X29528Y-19685
X29528Y-20669
X29528Y-20669
X29528Y-20669
X29528Y-21654
X29528Y-22638
X29528Y-22638
X29528Y-22638
X29528Y-23622
X29528Y-24606
X29528Y-28543
X29528Y-32480
X29528Y-35433
X29528Y-36417
X29528Y-37402
X29882Y-25866
X29882Y-26299
X30276Y-26299
X30472Y-26969
X31496Y-19685
X31496Y-20669
X31496Y-21654
X31496Y-22638
X31496Y-23622
X31496Y-24606
X31496Y-25591
X31496Y-28543
X31496Y-29528
X31496Y-30512
X31496Y-31496
X31496Y-32480
X31496Y-35433
X31496Y-36417
X31496Y-37402
X32146Y-23760
X32146Y-24272
X32146Y-24783
X32146Y-25768
X33465Y-29528
X33465Y-30512
X33465Y-31496
X33465Y-32480
X33465Y-33465
X35433Y-22638
X35433Y-30512
X35433Y-31496
X35433Y-32480
X35433Y-33465
T2
X17234Y-20472
X17606Y-19575
X17606Y-21370
X18504Y-19203
X18504Y-21742
X19402Y-19575
X19402Y-21370
X19774Y-20472
X17234Y-36220
X17606Y-35323
X17606Y-37118
X18504Y-34951
X18504Y-37490
X19402Y-35323
X19402Y-37118
X19774Y-36220
X32982Y-36220
X33354Y-35323
X33354Y-37118
X34252Y-34951
X34252Y-37490
X35150Y-35323
X35150Y-37118
X35522Y-36220
X32982Y-20472
X33354Y-19575
X33354Y-21370
X34252Y-19203
X34252Y-21742
X35150Y-19575
X35150Y-21370
X35522Y-20472
T3
X17126Y-26673
X17126Y-27657
X17126Y-28642
X17126Y-29626
X17717Y-24213
X17913Y-28642
X17913Y-29626
X18209Y-25098
X18209Y-25787
X19291Y-25098
X19291Y-25787
X19882Y-24213
X20394Y-28150
X20945Y-28150
X25512Y-28051
X34429Y-26319
T4
X17441Y-31598
X17441Y-32598
X25512Y-19409
X26512Y-19409
X35315Y-28071
X35315Y-29071
X22283Y-19409
X23283Y-19409
X24874Y-37283
X25874Y-37283
X26874Y-37283
X27874Y-37283
T5
X18504Y-36220
X34252Y-36220
X34252Y-20472
X18504Y-20472
T0
M30
