G04 #@! TF.GenerationSoftware,KiCad,Pcbnew,(5.0.1-3-g963ef8bb5)*
G04 #@! TF.CreationDate,2020-12-22T09:25:36-05:00*
G04 #@! TF.ProjectId,STM32F4_Breakout,53544D333246345F427265616B6F7574,rev?*
G04 #@! TF.SameCoordinates,Original*
G04 #@! TF.FileFunction,Legend,Top*
G04 #@! TF.FilePolarity,Positive*
%FSLAX46Y46*%
G04 Gerber Fmt 4.6, Leading zero omitted, Abs format (unit mm)*
G04 Created by KiCad (PCBNEW (5.0.1-3-g963ef8bb5)) date Tuesday, December 22, 2020 at 09:25:36 am*
%MOMM*%
%LPD*%
G01*
G04 APERTURE LIST*
%ADD10C,0.200000*%
%ADD11C,0.120000*%
%ADD12C,0.150000*%
%ADD13C,0.010000*%
G04 APERTURE END LIST*
D10*
X54770000Y-69230000D02*
G75*
G03X54770000Y-69230000I-20000J0D01*
G01*
X45360000Y-69130000D02*
G75*
G03X45360000Y-69130000I-20000J0D01*
G01*
X82150000Y-60340000D02*
G75*
G03X82150000Y-60340000I-20000J0D01*
G01*
X60530000Y-68260000D02*
G75*
G03X60530000Y-68260000I-20000J0D01*
G01*
D11*
X73919047Y-76251428D02*
X74680952Y-76251428D01*
X74300000Y-76632380D02*
X74300000Y-75870476D01*
X52379047Y-60251428D02*
X53140952Y-60251428D01*
X52760000Y-60632380D02*
X52760000Y-59870476D01*
D12*
X52119047Y-83271428D02*
X52880952Y-83271428D01*
X52500000Y-83652380D02*
X52500000Y-82890476D01*
X74123809Y-74454761D02*
X74266666Y-74502380D01*
X74504761Y-74502380D01*
X74600000Y-74454761D01*
X74647619Y-74407142D01*
X74695238Y-74311904D01*
X74695238Y-74216666D01*
X74647619Y-74121428D01*
X74600000Y-74073809D01*
X74504761Y-74026190D01*
X74314285Y-73978571D01*
X74219047Y-73930952D01*
X74171428Y-73883333D01*
X74123809Y-73788095D01*
X74123809Y-73692857D01*
X74171428Y-73597619D01*
X74219047Y-73550000D01*
X74314285Y-73502380D01*
X74552380Y-73502380D01*
X74695238Y-73550000D01*
X74980952Y-73502380D02*
X75552380Y-73502380D01*
X75266666Y-74502380D02*
X75266666Y-73502380D01*
X75838095Y-74216666D02*
X76314285Y-74216666D01*
X75742857Y-74502380D02*
X76076190Y-73502380D01*
X76409523Y-74502380D01*
X76600000Y-73502380D02*
X77171428Y-73502380D01*
X76885714Y-74502380D02*
X76885714Y-73502380D01*
X52961904Y-57652380D02*
X53580952Y-57652380D01*
X53247619Y-58033333D01*
X53390476Y-58033333D01*
X53485714Y-58080952D01*
X53533333Y-58128571D01*
X53580952Y-58223809D01*
X53580952Y-58461904D01*
X53533333Y-58557142D01*
X53485714Y-58604761D01*
X53390476Y-58652380D01*
X53104761Y-58652380D01*
X53009523Y-58604761D01*
X52961904Y-58557142D01*
X53866666Y-57652380D02*
X54200000Y-58652380D01*
X54533333Y-57652380D01*
X54771428Y-57652380D02*
X55390476Y-57652380D01*
X55057142Y-58033333D01*
X55200000Y-58033333D01*
X55295238Y-58080952D01*
X55342857Y-58128571D01*
X55390476Y-58223809D01*
X55390476Y-58461904D01*
X55342857Y-58557142D01*
X55295238Y-58604761D01*
X55200000Y-58652380D01*
X54914285Y-58652380D01*
X54819047Y-58604761D01*
X54771428Y-58557142D01*
X56342857Y-52652380D02*
X56342857Y-51652380D01*
X56723809Y-51652380D01*
X56819047Y-51700000D01*
X56866666Y-51747619D01*
X56914285Y-51842857D01*
X56914285Y-51985714D01*
X56866666Y-52080952D01*
X56819047Y-52128571D01*
X56723809Y-52176190D01*
X56342857Y-52176190D01*
X57533333Y-51652380D02*
X57723809Y-51652380D01*
X57819047Y-51700000D01*
X57914285Y-51795238D01*
X57961904Y-51985714D01*
X57961904Y-52319047D01*
X57914285Y-52509523D01*
X57819047Y-52604761D01*
X57723809Y-52652380D01*
X57533333Y-52652380D01*
X57438095Y-52604761D01*
X57342857Y-52509523D01*
X57295238Y-52319047D01*
X57295238Y-51985714D01*
X57342857Y-51795238D01*
X57438095Y-51700000D01*
X57533333Y-51652380D01*
X58295238Y-51652380D02*
X58533333Y-52652380D01*
X58723809Y-51938095D01*
X58914285Y-52652380D01*
X59152380Y-51652380D01*
X46436666Y-82162380D02*
X46436666Y-81162380D01*
X46817619Y-81162380D01*
X46912857Y-81210000D01*
X46960476Y-81257619D01*
X47008095Y-81352857D01*
X47008095Y-81495714D01*
X46960476Y-81590952D01*
X46912857Y-81638571D01*
X46817619Y-81686190D01*
X46436666Y-81686190D01*
X47341428Y-81162380D02*
X47579523Y-82162380D01*
X47770000Y-81448095D01*
X47960476Y-82162380D01*
X48198571Y-81162380D01*
X49150952Y-82162380D02*
X48817619Y-81686190D01*
X48579523Y-82162380D02*
X48579523Y-81162380D01*
X48960476Y-81162380D01*
X49055714Y-81210000D01*
X49103333Y-81257619D01*
X49150952Y-81352857D01*
X49150952Y-81495714D01*
X49103333Y-81590952D01*
X49055714Y-81638571D01*
X48960476Y-81686190D01*
X48579523Y-81686190D01*
X65976190Y-92204761D02*
X66119047Y-92252380D01*
X66357142Y-92252380D01*
X66452380Y-92204761D01*
X66500000Y-92157142D01*
X66547619Y-92061904D01*
X66547619Y-91966666D01*
X66500000Y-91871428D01*
X66452380Y-91823809D01*
X66357142Y-91776190D01*
X66166666Y-91728571D01*
X66071428Y-91680952D01*
X66023809Y-91633333D01*
X65976190Y-91538095D01*
X65976190Y-91442857D01*
X66023809Y-91347619D01*
X66071428Y-91300000D01*
X66166666Y-91252380D01*
X66404761Y-91252380D01*
X66547619Y-91300000D01*
X66976190Y-92252380D02*
X66976190Y-91252380D01*
X67357142Y-91252380D01*
X67452380Y-91300000D01*
X67500000Y-91347619D01*
X67547619Y-91442857D01*
X67547619Y-91585714D01*
X67500000Y-91680952D01*
X67452380Y-91728571D01*
X67357142Y-91776190D01*
X66976190Y-91776190D01*
X67976190Y-92252380D02*
X67976190Y-91252380D01*
X84204761Y-71952380D02*
X84204761Y-72761904D01*
X84252380Y-72857142D01*
X84300000Y-72904761D01*
X84395238Y-72952380D01*
X84585714Y-72952380D01*
X84680952Y-72904761D01*
X84728571Y-72857142D01*
X84776190Y-72761904D01*
X84776190Y-71952380D01*
X85204761Y-72666666D02*
X85680952Y-72666666D01*
X85109523Y-72952380D02*
X85442857Y-71952380D01*
X85776190Y-72952380D01*
X86680952Y-72952380D02*
X86347619Y-72476190D01*
X86109523Y-72952380D02*
X86109523Y-71952380D01*
X86490476Y-71952380D01*
X86585714Y-72000000D01*
X86633333Y-72047619D01*
X86680952Y-72142857D01*
X86680952Y-72285714D01*
X86633333Y-72380952D01*
X86585714Y-72428571D01*
X86490476Y-72476190D01*
X86109523Y-72476190D01*
X86966666Y-71952380D02*
X87538095Y-71952380D01*
X87252380Y-72952380D02*
X87252380Y-71952380D01*
X65023809Y-52652380D02*
X65023809Y-51652380D01*
X65452380Y-51747619D02*
X65500000Y-51700000D01*
X65595238Y-51652380D01*
X65833333Y-51652380D01*
X65928571Y-51700000D01*
X65976190Y-51747619D01*
X66023809Y-51842857D01*
X66023809Y-51938095D01*
X65976190Y-52080952D01*
X65404761Y-52652380D01*
X66023809Y-52652380D01*
X67023809Y-52557142D02*
X66976190Y-52604761D01*
X66833333Y-52652380D01*
X66738095Y-52652380D01*
X66595238Y-52604761D01*
X66500000Y-52509523D01*
X66452380Y-52414285D01*
X66404761Y-52223809D01*
X66404761Y-52080952D01*
X66452380Y-51890476D01*
X66500000Y-51795238D01*
X66595238Y-51700000D01*
X66738095Y-51652380D01*
X66833333Y-51652380D01*
X66976190Y-51700000D01*
X67023809Y-51747619D01*
X84142857Y-58604761D02*
X84285714Y-58652380D01*
X84523809Y-58652380D01*
X84619047Y-58604761D01*
X84666666Y-58557142D01*
X84714285Y-58461904D01*
X84714285Y-58366666D01*
X84666666Y-58271428D01*
X84619047Y-58223809D01*
X84523809Y-58176190D01*
X84333333Y-58128571D01*
X84238095Y-58080952D01*
X84190476Y-58033333D01*
X84142857Y-57938095D01*
X84142857Y-57842857D01*
X84190476Y-57747619D01*
X84238095Y-57700000D01*
X84333333Y-57652380D01*
X84571428Y-57652380D01*
X84714285Y-57700000D01*
X85047619Y-57652380D02*
X85285714Y-58652380D01*
X85476190Y-57938095D01*
X85666666Y-58652380D01*
X85904761Y-57652380D01*
X86285714Y-58652380D02*
X86285714Y-57652380D01*
X86523809Y-57652380D01*
X86666666Y-57700000D01*
X86761904Y-57795238D01*
X86809523Y-57890476D01*
X86857142Y-58080952D01*
X86857142Y-58223809D01*
X86809523Y-58414285D01*
X86761904Y-58509523D01*
X86666666Y-58604761D01*
X86523809Y-58652380D01*
X86285714Y-58652380D01*
D11*
G04 #@! TO.C,J4*
X87265000Y-66070000D02*
X87265000Y-66135000D01*
X83735000Y-66070000D02*
X83735000Y-66135000D01*
X87265000Y-59665000D02*
X87265000Y-59730000D01*
X83735000Y-59665000D02*
X83735000Y-59730000D01*
X82410000Y-59730000D02*
X83735000Y-59730000D01*
X83735000Y-66135000D02*
X87265000Y-66135000D01*
X83735000Y-59665000D02*
X87265000Y-59665000D01*
G04 #@! TO.C,C1*
X53150000Y-69400000D02*
X53150000Y-68400000D01*
X51450000Y-68400000D02*
X51450000Y-69400000D01*
G04 #@! TO.C,C2*
X47050000Y-69350000D02*
X46050000Y-69350000D01*
X46050000Y-71050000D02*
X47050000Y-71050000D01*
G04 #@! TO.C,C4*
X60470000Y-67400000D02*
X60470000Y-66900000D01*
X59530000Y-66900000D02*
X59530000Y-67400000D01*
G04 #@! TO.C,C5*
X63300000Y-79645000D02*
X63800000Y-79645000D01*
X63800000Y-78705000D02*
X63300000Y-78705000D01*
G04 #@! TO.C,C6*
X63800000Y-79705000D02*
X63300000Y-79705000D01*
X63300000Y-80645000D02*
X63800000Y-80645000D01*
G04 #@! TO.C,C7*
X72820719Y-79501942D02*
X72320719Y-79501942D01*
X72320719Y-80441942D02*
X72820719Y-80441942D01*
G04 #@! TO.C,C8*
X72320719Y-79441942D02*
X72820719Y-79441942D01*
X72820719Y-78501942D02*
X72320719Y-78501942D01*
G04 #@! TO.C,C9*
X74530000Y-66000000D02*
X74530000Y-66500000D01*
X75470000Y-66500000D02*
X75470000Y-66000000D01*
G04 #@! TO.C,C10*
X74470000Y-66500000D02*
X74470000Y-66000000D01*
X73530000Y-66000000D02*
X73530000Y-66500000D01*
G04 #@! TO.C,C11*
X63800000Y-64430000D02*
X63300000Y-64430000D01*
X63300000Y-65370000D02*
X63800000Y-65370000D01*
G04 #@! TO.C,C12*
X63300000Y-64370000D02*
X63800000Y-64370000D01*
X63800000Y-63430000D02*
X63300000Y-63430000D01*
G04 #@! TO.C,C13*
X57000000Y-67130000D02*
X56500000Y-67130000D01*
X56500000Y-68070000D02*
X57000000Y-68070000D01*
G04 #@! TO.C,C14*
X56500000Y-73470000D02*
X57000000Y-73470000D01*
X57000000Y-72530000D02*
X56500000Y-72530000D01*
G04 #@! TO.C,C15*
X59270000Y-74300000D02*
X59270000Y-73800000D01*
X58330000Y-73800000D02*
X58330000Y-74300000D01*
G04 #@! TO.C,C16*
X60370000Y-74300000D02*
X60370000Y-73800000D01*
X59430000Y-73800000D02*
X59430000Y-74300000D01*
G04 #@! TO.C,C18*
X75050000Y-67950000D02*
X75750000Y-67950000D01*
X75750000Y-69150000D02*
X75050000Y-69150000D01*
G04 #@! TO.C,D1*
X52500000Y-78750000D02*
X52500000Y-82650000D01*
X50500000Y-78750000D02*
X50500000Y-82650000D01*
X52500000Y-78750000D02*
X50500000Y-78750000D01*
G04 #@! TO.C,D2*
X55427000Y-60250000D02*
X53327000Y-60250000D01*
X55427000Y-59250000D02*
X53327000Y-59250000D01*
X55427000Y-60250000D02*
X55427000Y-59250000D01*
G04 #@! TO.C,D3*
X76950000Y-76250000D02*
X76950000Y-75250000D01*
X76950000Y-75250000D02*
X74850000Y-75250000D01*
X76950000Y-76250000D02*
X74850000Y-76250000D01*
G04 #@! TO.C,F1*
X48930000Y-76600000D02*
X48930000Y-74600000D01*
X51070000Y-74600000D02*
X51070000Y-76600000D01*
G04 #@! TO.C,FB1*
X50880000Y-70300000D02*
X50880000Y-71500000D01*
X49120000Y-71500000D02*
X49120000Y-70300000D01*
G04 #@! TO.C,FB2*
X57250000Y-75420000D02*
X58450000Y-75420000D01*
X58450000Y-77180000D02*
X57250000Y-77180000D01*
G04 #@! TO.C,HSE1*
X55100000Y-68300000D02*
X55100000Y-72300000D01*
X58400000Y-68300000D02*
X55100000Y-68300000D01*
G04 #@! TO.C,J1*
X88370000Y-75170000D02*
X91030000Y-75170000D01*
X88370000Y-72570000D02*
X88370000Y-75170000D01*
X91030000Y-72570000D02*
X91030000Y-75170000D01*
X88370000Y-72570000D02*
X91030000Y-72570000D01*
X88370000Y-71300000D02*
X88370000Y-69970000D01*
X88370000Y-69970000D02*
X89700000Y-69970000D01*
G04 #@! TO.C,J2*
X45630000Y-78930000D02*
X42970000Y-78930000D01*
X45630000Y-81530000D02*
X45630000Y-78930000D01*
X42970000Y-81530000D02*
X42970000Y-78930000D01*
X45630000Y-81530000D02*
X42970000Y-81530000D01*
X45630000Y-82800000D02*
X45630000Y-84130000D01*
X45630000Y-84130000D02*
X44300000Y-84130000D01*
G04 #@! TO.C,J3*
X55270000Y-50630000D02*
X55270000Y-49300000D01*
X56600000Y-50630000D02*
X55270000Y-50630000D01*
X57870000Y-50630000D02*
X57870000Y-47970000D01*
X57870000Y-47970000D02*
X60470000Y-47970000D01*
X57870000Y-50630000D02*
X60470000Y-50630000D01*
X60470000Y-50630000D02*
X60470000Y-47970000D01*
G04 #@! TO.C,J5*
X63470000Y-50630000D02*
X63470000Y-49300000D01*
X64800000Y-50630000D02*
X63470000Y-50630000D01*
X66070000Y-50630000D02*
X66070000Y-47970000D01*
X66070000Y-47970000D02*
X68670000Y-47970000D01*
X66070000Y-50630000D02*
X68670000Y-50630000D01*
X68670000Y-50630000D02*
X68670000Y-47970000D01*
G04 #@! TO.C,J6*
X72130000Y-93370000D02*
X72130000Y-94700000D01*
X70800000Y-93370000D02*
X72130000Y-93370000D01*
X69530000Y-93370000D02*
X69530000Y-96030000D01*
X69530000Y-96030000D02*
X61850000Y-96030000D01*
X69530000Y-93370000D02*
X61850000Y-93370000D01*
X61850000Y-93370000D02*
X61850000Y-96030000D01*
G04 #@! TO.C,R1*
X53700000Y-61102000D02*
X54700000Y-61102000D01*
X54700000Y-62462000D02*
X53700000Y-62462000D01*
G04 #@! TO.C,R2*
X59700000Y-70470000D02*
X59200000Y-70470000D01*
X59200000Y-71530000D02*
X59700000Y-71530000D01*
G04 #@! TO.C,R3*
X65450000Y-61530000D02*
X64450000Y-61530000D01*
X64450000Y-60170000D02*
X65450000Y-60170000D01*
G04 #@! TO.C,R4*
X68000000Y-61530000D02*
X67000000Y-61530000D01*
X67000000Y-60170000D02*
X68000000Y-60170000D01*
G04 #@! TO.C,R5*
X64570000Y-64250000D02*
X64570000Y-64750000D01*
X65630000Y-64750000D02*
X65630000Y-64250000D01*
G04 #@! TO.C,R6*
X68220000Y-79200000D02*
X68220000Y-79700000D01*
X69280000Y-79700000D02*
X69280000Y-79200000D01*
G04 #@! TO.C,R7*
X76200000Y-78080000D02*
X75200000Y-78080000D01*
X75200000Y-76720000D02*
X76200000Y-76720000D01*
G04 #@! TO.C,U1*
X44290000Y-68800000D02*
X44290000Y-62790000D01*
X51110000Y-66550000D02*
X51110000Y-62790000D01*
X44290000Y-62790000D02*
X45550000Y-62790000D01*
X51110000Y-62790000D02*
X49850000Y-62790000D01*
D12*
G04 #@! TO.C,U2*
X61825000Y-67825000D02*
X60800000Y-67825000D01*
X72175000Y-66825000D02*
X71100000Y-66825000D01*
X72175000Y-77175000D02*
X71100000Y-77175000D01*
X61825000Y-77175000D02*
X62900000Y-77175000D01*
X61825000Y-66825000D02*
X62900000Y-66825000D01*
X61825000Y-77175000D02*
X61825000Y-76100000D01*
X72175000Y-77175000D02*
X72175000Y-76100000D01*
X72175000Y-66825000D02*
X72175000Y-67900000D01*
X61825000Y-66825000D02*
X61825000Y-67825000D01*
D11*
G04 #@! TO.C,C17*
X70850000Y-79700000D02*
X70850000Y-80400000D01*
X69650000Y-80400000D02*
X69650000Y-79700000D01*
G04 #@! TO.C,C3*
X60150000Y-64500000D02*
X60150000Y-63800000D01*
X61350000Y-63800000D02*
X61350000Y-64500000D01*
D13*
G04 #@! TO.C,G\002A\002A\002A*
G36*
X80653920Y-84557320D02*
X80801240Y-84557320D01*
X80801240Y-84709720D01*
X80653920Y-84709720D01*
X80653920Y-85161840D01*
X80354200Y-85161840D01*
X80354200Y-84709720D01*
X79749680Y-84709720D01*
X79749680Y-84564037D01*
X79760466Y-84550531D01*
X79901709Y-84550531D01*
X79902055Y-84552273D01*
X79904974Y-84553689D01*
X79911304Y-84554813D01*
X79921883Y-84555679D01*
X79937549Y-84556319D01*
X79959139Y-84556768D01*
X79987492Y-84557059D01*
X80023444Y-84557225D01*
X80067833Y-84557301D01*
X80121497Y-84557319D01*
X80124812Y-84557320D01*
X80354200Y-84557320D01*
X80354200Y-84271751D01*
X80354169Y-84209832D01*
X80354068Y-84157366D01*
X80353876Y-84113646D01*
X80353577Y-84077965D01*
X80353154Y-84049617D01*
X80352588Y-84027893D01*
X80351861Y-84012088D01*
X80350957Y-84001494D01*
X80349857Y-83995404D01*
X80348544Y-83993112D01*
X80347247Y-83993621D01*
X80342968Y-83998769D01*
X80332895Y-84011194D01*
X80317564Y-84030224D01*
X80297512Y-84055189D01*
X80273277Y-84085420D01*
X80245396Y-84120246D01*
X80214406Y-84158997D01*
X80180843Y-84201003D01*
X80145245Y-84245594D01*
X80125535Y-84270300D01*
X80089039Y-84316043D01*
X80054273Y-84359597D01*
X80021777Y-84400288D01*
X79992090Y-84437440D01*
X79965753Y-84470380D01*
X79943303Y-84498431D01*
X79925282Y-84520920D01*
X79912229Y-84537172D01*
X79904682Y-84546512D01*
X79903100Y-84548430D01*
X79901709Y-84550531D01*
X79760466Y-84550531D01*
X80052593Y-84184758D01*
X80355507Y-83805480D01*
X80653920Y-83805480D01*
X80653920Y-84557320D01*
X80653920Y-84557320D01*
G37*
X80653920Y-84557320D02*
X80801240Y-84557320D01*
X80801240Y-84709720D01*
X80653920Y-84709720D01*
X80653920Y-85161840D01*
X80354200Y-85161840D01*
X80354200Y-84709720D01*
X79749680Y-84709720D01*
X79749680Y-84564037D01*
X79760466Y-84550531D01*
X79901709Y-84550531D01*
X79902055Y-84552273D01*
X79904974Y-84553689D01*
X79911304Y-84554813D01*
X79921883Y-84555679D01*
X79937549Y-84556319D01*
X79959139Y-84556768D01*
X79987492Y-84557059D01*
X80023444Y-84557225D01*
X80067833Y-84557301D01*
X80121497Y-84557319D01*
X80124812Y-84557320D01*
X80354200Y-84557320D01*
X80354200Y-84271751D01*
X80354169Y-84209832D01*
X80354068Y-84157366D01*
X80353876Y-84113646D01*
X80353577Y-84077965D01*
X80353154Y-84049617D01*
X80352588Y-84027893D01*
X80351861Y-84012088D01*
X80350957Y-84001494D01*
X80349857Y-83995404D01*
X80348544Y-83993112D01*
X80347247Y-83993621D01*
X80342968Y-83998769D01*
X80332895Y-84011194D01*
X80317564Y-84030224D01*
X80297512Y-84055189D01*
X80273277Y-84085420D01*
X80245396Y-84120246D01*
X80214406Y-84158997D01*
X80180843Y-84201003D01*
X80145245Y-84245594D01*
X80125535Y-84270300D01*
X80089039Y-84316043D01*
X80054273Y-84359597D01*
X80021777Y-84400288D01*
X79992090Y-84437440D01*
X79965753Y-84470380D01*
X79943303Y-84498431D01*
X79925282Y-84520920D01*
X79912229Y-84537172D01*
X79904682Y-84546512D01*
X79903100Y-84548430D01*
X79901709Y-84550531D01*
X79760466Y-84550531D01*
X80052593Y-84184758D01*
X80355507Y-83805480D01*
X80653920Y-83805480D01*
X80653920Y-84557320D01*
G36*
X79597280Y-83957880D02*
X79145160Y-83957880D01*
X79145160Y-84404920D01*
X79444880Y-84404920D01*
X79444880Y-84557320D01*
X79145160Y-84557320D01*
X79145160Y-85161840D01*
X78845440Y-85161840D01*
X78845440Y-83805480D01*
X79597280Y-83805480D01*
X79597280Y-83957880D01*
X79597280Y-83957880D01*
G37*
X79597280Y-83957880D02*
X79145160Y-83957880D01*
X79145160Y-84404920D01*
X79444880Y-84404920D01*
X79444880Y-84557320D01*
X79145160Y-84557320D01*
X79145160Y-85161840D01*
X78845440Y-85161840D01*
X78845440Y-83805480D01*
X79597280Y-83805480D01*
X79597280Y-83957880D01*
G36*
X78139163Y-83808059D02*
X78180755Y-83808150D01*
X78214403Y-83808371D01*
X78241214Y-83808774D01*
X78262298Y-83809413D01*
X78278761Y-83810340D01*
X78291712Y-83811608D01*
X78302259Y-83813269D01*
X78311509Y-83815376D01*
X78320570Y-83817982D01*
X78324740Y-83819287D01*
X78375394Y-83840454D01*
X78421331Y-83870463D01*
X78459067Y-83905319D01*
X78487300Y-83939027D01*
X78508803Y-83973340D01*
X78524224Y-84010122D01*
X78534211Y-84051239D01*
X78539413Y-84098556D01*
X78540564Y-84139864D01*
X78539460Y-84180509D01*
X78535526Y-84215822D01*
X78527979Y-84247950D01*
X78516034Y-84279037D01*
X78498906Y-84311229D01*
X78475812Y-84346671D01*
X78453877Y-84376980D01*
X78425097Y-84412635D01*
X78388855Y-84452652D01*
X78346252Y-84495917D01*
X78298389Y-84541320D01*
X78246365Y-84587750D01*
X78238380Y-84594640D01*
X78169613Y-84655862D01*
X78109777Y-84713674D01*
X78058934Y-84767996D01*
X78017146Y-84818746D01*
X77984476Y-84865842D01*
X77960987Y-84909206D01*
X77946742Y-84948754D01*
X77942058Y-84977371D01*
X77940016Y-85009440D01*
X78540640Y-85009440D01*
X78540640Y-85161840D01*
X77641480Y-85161840D01*
X77641480Y-85076547D01*
X77641937Y-85035596D01*
X77643368Y-85003468D01*
X77645859Y-84978862D01*
X77649244Y-84961445D01*
X77664317Y-84919535D01*
X77688466Y-84874159D01*
X77721372Y-84825725D01*
X77762717Y-84774639D01*
X77812184Y-84721308D01*
X77869454Y-84666138D01*
X77904888Y-84634528D01*
X77964384Y-84582062D01*
X78016202Y-84534677D01*
X78061002Y-84491645D01*
X78099443Y-84452238D01*
X78132185Y-84415728D01*
X78159887Y-84381389D01*
X78183209Y-84348493D01*
X78202808Y-84316313D01*
X78215839Y-84291440D01*
X78228633Y-84262896D01*
X78237457Y-84236527D01*
X78242831Y-84209474D01*
X78245272Y-84178876D01*
X78245300Y-84141874D01*
X78244977Y-84130862D01*
X78243823Y-84103112D01*
X78242271Y-84083039D01*
X78239892Y-84068162D01*
X78236254Y-84055999D01*
X78230928Y-84044067D01*
X78229408Y-84041073D01*
X78217491Y-84022438D01*
X78201806Y-84003485D01*
X78192618Y-83994464D01*
X78179247Y-83983387D01*
X78166336Y-83974783D01*
X78152377Y-83968345D01*
X78135858Y-83963766D01*
X78115267Y-83960740D01*
X78089096Y-83958960D01*
X78055832Y-83958118D01*
X78013965Y-83957908D01*
X78012685Y-83957908D01*
X77979126Y-83958150D01*
X77947953Y-83958811D01*
X77920976Y-83959817D01*
X77900004Y-83961096D01*
X77886847Y-83962576D01*
X77884722Y-83963041D01*
X77854383Y-83976563D01*
X77828809Y-83998380D01*
X77808935Y-84027378D01*
X77795694Y-84062442D01*
X77793570Y-84071822D01*
X77786936Y-84105199D01*
X77713977Y-84105200D01*
X77641019Y-84105200D01*
X77644213Y-84086150D01*
X77657985Y-84023829D01*
X77677135Y-83969946D01*
X77701936Y-83924154D01*
X77732660Y-83886107D01*
X77769578Y-83855460D01*
X77812963Y-83831865D01*
X77855889Y-83816886D01*
X77865182Y-83814617D01*
X77875713Y-83812766D01*
X77888563Y-83811292D01*
X77904814Y-83810152D01*
X77925550Y-83809308D01*
X77951853Y-83808716D01*
X77984804Y-83808337D01*
X78025486Y-83808128D01*
X78074981Y-83808049D01*
X78088520Y-83808045D01*
X78139163Y-83808059D01*
X78139163Y-83808059D01*
G37*
X78139163Y-83808059D02*
X78180755Y-83808150D01*
X78214403Y-83808371D01*
X78241214Y-83808774D01*
X78262298Y-83809413D01*
X78278761Y-83810340D01*
X78291712Y-83811608D01*
X78302259Y-83813269D01*
X78311509Y-83815376D01*
X78320570Y-83817982D01*
X78324740Y-83819287D01*
X78375394Y-83840454D01*
X78421331Y-83870463D01*
X78459067Y-83905319D01*
X78487300Y-83939027D01*
X78508803Y-83973340D01*
X78524224Y-84010122D01*
X78534211Y-84051239D01*
X78539413Y-84098556D01*
X78540564Y-84139864D01*
X78539460Y-84180509D01*
X78535526Y-84215822D01*
X78527979Y-84247950D01*
X78516034Y-84279037D01*
X78498906Y-84311229D01*
X78475812Y-84346671D01*
X78453877Y-84376980D01*
X78425097Y-84412635D01*
X78388855Y-84452652D01*
X78346252Y-84495917D01*
X78298389Y-84541320D01*
X78246365Y-84587750D01*
X78238380Y-84594640D01*
X78169613Y-84655862D01*
X78109777Y-84713674D01*
X78058934Y-84767996D01*
X78017146Y-84818746D01*
X77984476Y-84865842D01*
X77960987Y-84909206D01*
X77946742Y-84948754D01*
X77942058Y-84977371D01*
X77940016Y-85009440D01*
X78540640Y-85009440D01*
X78540640Y-85161840D01*
X77641480Y-85161840D01*
X77641480Y-85076547D01*
X77641937Y-85035596D01*
X77643368Y-85003468D01*
X77645859Y-84978862D01*
X77649244Y-84961445D01*
X77664317Y-84919535D01*
X77688466Y-84874159D01*
X77721372Y-84825725D01*
X77762717Y-84774639D01*
X77812184Y-84721308D01*
X77869454Y-84666138D01*
X77904888Y-84634528D01*
X77964384Y-84582062D01*
X78016202Y-84534677D01*
X78061002Y-84491645D01*
X78099443Y-84452238D01*
X78132185Y-84415728D01*
X78159887Y-84381389D01*
X78183209Y-84348493D01*
X78202808Y-84316313D01*
X78215839Y-84291440D01*
X78228633Y-84262896D01*
X78237457Y-84236527D01*
X78242831Y-84209474D01*
X78245272Y-84178876D01*
X78245300Y-84141874D01*
X78244977Y-84130862D01*
X78243823Y-84103112D01*
X78242271Y-84083039D01*
X78239892Y-84068162D01*
X78236254Y-84055999D01*
X78230928Y-84044067D01*
X78229408Y-84041073D01*
X78217491Y-84022438D01*
X78201806Y-84003485D01*
X78192618Y-83994464D01*
X78179247Y-83983387D01*
X78166336Y-83974783D01*
X78152377Y-83968345D01*
X78135858Y-83963766D01*
X78115267Y-83960740D01*
X78089096Y-83958960D01*
X78055832Y-83958118D01*
X78013965Y-83957908D01*
X78012685Y-83957908D01*
X77979126Y-83958150D01*
X77947953Y-83958811D01*
X77920976Y-83959817D01*
X77900004Y-83961096D01*
X77886847Y-83962576D01*
X77884722Y-83963041D01*
X77854383Y-83976563D01*
X77828809Y-83998380D01*
X77808935Y-84027378D01*
X77795694Y-84062442D01*
X77793570Y-84071822D01*
X77786936Y-84105199D01*
X77713977Y-84105200D01*
X77641019Y-84105200D01*
X77644213Y-84086150D01*
X77657985Y-84023829D01*
X77677135Y-83969946D01*
X77701936Y-83924154D01*
X77732660Y-83886107D01*
X77769578Y-83855460D01*
X77812963Y-83831865D01*
X77855889Y-83816886D01*
X77865182Y-83814617D01*
X77875713Y-83812766D01*
X77888563Y-83811292D01*
X77904814Y-83810152D01*
X77925550Y-83809308D01*
X77951853Y-83808716D01*
X77984804Y-83808337D01*
X78025486Y-83808128D01*
X78074981Y-83808049D01*
X78088520Y-83808045D01*
X78139163Y-83808059D01*
G36*
X77336680Y-83956783D02*
X76883926Y-84256113D01*
X76984573Y-84259028D01*
X77028603Y-84260675D01*
X77064220Y-84262993D01*
X77093163Y-84266292D01*
X77117171Y-84270878D01*
X77137986Y-84277061D01*
X77157346Y-84285150D01*
X77170866Y-84292057D01*
X77207400Y-84316661D01*
X77242572Y-84349440D01*
X77274575Y-84388415D01*
X77301601Y-84431612D01*
X77305678Y-84439447D01*
X77313338Y-84455046D01*
X77319623Y-84469387D01*
X77324668Y-84483664D01*
X77328609Y-84499073D01*
X77331581Y-84516808D01*
X77333720Y-84538065D01*
X77335163Y-84564037D01*
X77336044Y-84595921D01*
X77336499Y-84634911D01*
X77336663Y-84682201D01*
X77336680Y-84712514D01*
X77336637Y-84761486D01*
X77336474Y-84801505D01*
X77336136Y-84833779D01*
X77335569Y-84859514D01*
X77334717Y-84879918D01*
X77333527Y-84896199D01*
X77331944Y-84909562D01*
X77329913Y-84921216D01*
X77327381Y-84932368D01*
X77326631Y-84935345D01*
X77314806Y-84972957D01*
X77299181Y-85005477D01*
X77277857Y-85036265D01*
X77254681Y-85062688D01*
X77211938Y-85101000D01*
X77164757Y-85130398D01*
X77123320Y-85147545D01*
X77113913Y-85150449D01*
X77104425Y-85152800D01*
X77093666Y-85154665D01*
X77080443Y-85156113D01*
X77063566Y-85157213D01*
X77041844Y-85158034D01*
X77014085Y-85158643D01*
X76979098Y-85159110D01*
X76935692Y-85159503D01*
X76912500Y-85159678D01*
X76868916Y-85159865D01*
X76826791Y-85159801D01*
X76787653Y-85159506D01*
X76753028Y-85159000D01*
X76724443Y-85158305D01*
X76703425Y-85157441D01*
X76694060Y-85156749D01*
X76640816Y-85146887D01*
X76593643Y-85128980D01*
X76552500Y-85102981D01*
X76517344Y-85068845D01*
X76488134Y-85026527D01*
X76464826Y-84975980D01*
X76447381Y-84917160D01*
X76440253Y-84881170D01*
X76437059Y-84862120D01*
X76582976Y-84862120D01*
X76589610Y-84895497D01*
X76601085Y-84931876D01*
X76619422Y-84962462D01*
X76643687Y-84986140D01*
X76672946Y-85001795D01*
X76680762Y-85004278D01*
X76691151Y-85005770D01*
X76709943Y-85007088D01*
X76735379Y-85008165D01*
X76765701Y-85008933D01*
X76799153Y-85009325D01*
X76813440Y-85009362D01*
X76850606Y-85009308D01*
X76879142Y-85009076D01*
X76900579Y-85008533D01*
X76916447Y-85007549D01*
X76928275Y-85005991D01*
X76937593Y-85003728D01*
X76945933Y-85000630D01*
X76953140Y-84997361D01*
X76983050Y-84978618D01*
X77008948Y-84953507D01*
X77027858Y-84924950D01*
X77028758Y-84923080D01*
X77031640Y-84916491D01*
X77033971Y-84909505D01*
X77035821Y-84900987D01*
X77037260Y-84889804D01*
X77038359Y-84874820D01*
X77039187Y-84854900D01*
X77039814Y-84828911D01*
X77040311Y-84795718D01*
X77040747Y-84754185D01*
X77041011Y-84724525D01*
X77041389Y-84677374D01*
X77041595Y-84639215D01*
X77041577Y-84608882D01*
X77041283Y-84585209D01*
X77040663Y-84567028D01*
X77039664Y-84553174D01*
X77038236Y-84542479D01*
X77036326Y-84533777D01*
X77033884Y-84525901D01*
X77032034Y-84520799D01*
X77014382Y-84483535D01*
X76992173Y-84452891D01*
X76966516Y-84430282D01*
X76956365Y-84424233D01*
X76929119Y-84410000D01*
X76589920Y-84410000D01*
X76590198Y-84260140D01*
X76817389Y-84109016D01*
X77044580Y-83957893D01*
X76741050Y-83957886D01*
X76437520Y-83957880D01*
X76437520Y-83805480D01*
X77336680Y-83805480D01*
X77336680Y-83956783D01*
X77336680Y-83956783D01*
G37*
X77336680Y-83956783D02*
X76883926Y-84256113D01*
X76984573Y-84259028D01*
X77028603Y-84260675D01*
X77064220Y-84262993D01*
X77093163Y-84266292D01*
X77117171Y-84270878D01*
X77137986Y-84277061D01*
X77157346Y-84285150D01*
X77170866Y-84292057D01*
X77207400Y-84316661D01*
X77242572Y-84349440D01*
X77274575Y-84388415D01*
X77301601Y-84431612D01*
X77305678Y-84439447D01*
X77313338Y-84455046D01*
X77319623Y-84469387D01*
X77324668Y-84483664D01*
X77328609Y-84499073D01*
X77331581Y-84516808D01*
X77333720Y-84538065D01*
X77335163Y-84564037D01*
X77336044Y-84595921D01*
X77336499Y-84634911D01*
X77336663Y-84682201D01*
X77336680Y-84712514D01*
X77336637Y-84761486D01*
X77336474Y-84801505D01*
X77336136Y-84833779D01*
X77335569Y-84859514D01*
X77334717Y-84879918D01*
X77333527Y-84896199D01*
X77331944Y-84909562D01*
X77329913Y-84921216D01*
X77327381Y-84932368D01*
X77326631Y-84935345D01*
X77314806Y-84972957D01*
X77299181Y-85005477D01*
X77277857Y-85036265D01*
X77254681Y-85062688D01*
X77211938Y-85101000D01*
X77164757Y-85130398D01*
X77123320Y-85147545D01*
X77113913Y-85150449D01*
X77104425Y-85152800D01*
X77093666Y-85154665D01*
X77080443Y-85156113D01*
X77063566Y-85157213D01*
X77041844Y-85158034D01*
X77014085Y-85158643D01*
X76979098Y-85159110D01*
X76935692Y-85159503D01*
X76912500Y-85159678D01*
X76868916Y-85159865D01*
X76826791Y-85159801D01*
X76787653Y-85159506D01*
X76753028Y-85159000D01*
X76724443Y-85158305D01*
X76703425Y-85157441D01*
X76694060Y-85156749D01*
X76640816Y-85146887D01*
X76593643Y-85128980D01*
X76552500Y-85102981D01*
X76517344Y-85068845D01*
X76488134Y-85026527D01*
X76464826Y-84975980D01*
X76447381Y-84917160D01*
X76440253Y-84881170D01*
X76437059Y-84862120D01*
X76582976Y-84862120D01*
X76589610Y-84895497D01*
X76601085Y-84931876D01*
X76619422Y-84962462D01*
X76643687Y-84986140D01*
X76672946Y-85001795D01*
X76680762Y-85004278D01*
X76691151Y-85005770D01*
X76709943Y-85007088D01*
X76735379Y-85008165D01*
X76765701Y-85008933D01*
X76799153Y-85009325D01*
X76813440Y-85009362D01*
X76850606Y-85009308D01*
X76879142Y-85009076D01*
X76900579Y-85008533D01*
X76916447Y-85007549D01*
X76928275Y-85005991D01*
X76937593Y-85003728D01*
X76945933Y-85000630D01*
X76953140Y-84997361D01*
X76983050Y-84978618D01*
X77008948Y-84953507D01*
X77027858Y-84924950D01*
X77028758Y-84923080D01*
X77031640Y-84916491D01*
X77033971Y-84909505D01*
X77035821Y-84900987D01*
X77037260Y-84889804D01*
X77038359Y-84874820D01*
X77039187Y-84854900D01*
X77039814Y-84828911D01*
X77040311Y-84795718D01*
X77040747Y-84754185D01*
X77041011Y-84724525D01*
X77041389Y-84677374D01*
X77041595Y-84639215D01*
X77041577Y-84608882D01*
X77041283Y-84585209D01*
X77040663Y-84567028D01*
X77039664Y-84553174D01*
X77038236Y-84542479D01*
X77036326Y-84533777D01*
X77033884Y-84525901D01*
X77032034Y-84520799D01*
X77014382Y-84483535D01*
X76992173Y-84452891D01*
X76966516Y-84430282D01*
X76956365Y-84424233D01*
X76929119Y-84410000D01*
X76589920Y-84410000D01*
X76590198Y-84260140D01*
X76817389Y-84109016D01*
X77044580Y-83957893D01*
X76741050Y-83957886D01*
X76437520Y-83957880D01*
X76437520Y-83805480D01*
X77336680Y-83805480D01*
X77336680Y-83956783D01*
G36*
X75016381Y-84129160D02*
X75340549Y-84452841D01*
X75664259Y-84129160D01*
X75987969Y-83805480D01*
X76132720Y-83805480D01*
X76132720Y-85161840D01*
X75833000Y-85161840D01*
X75833000Y-84331296D01*
X75305368Y-84858854D01*
X75045418Y-84596327D01*
X75002918Y-84553467D01*
X74962456Y-84512782D01*
X74924606Y-84474842D01*
X74889940Y-84440214D01*
X74859030Y-84409467D01*
X74832450Y-84383170D01*
X74810772Y-84361889D01*
X74794568Y-84346195D01*
X74784411Y-84336654D01*
X74780914Y-84333800D01*
X74780151Y-84338777D01*
X74779439Y-84353302D01*
X74778784Y-84376761D01*
X74778192Y-84408541D01*
X74777671Y-84448030D01*
X74777227Y-84494614D01*
X74776868Y-84547681D01*
X74776599Y-84606618D01*
X74776427Y-84670812D01*
X74776360Y-84739650D01*
X74776360Y-85161840D01*
X74629040Y-85161840D01*
X74629040Y-83805480D01*
X74692213Y-83805480D01*
X75016381Y-84129160D01*
X75016381Y-84129160D01*
G37*
X75016381Y-84129160D02*
X75340549Y-84452841D01*
X75664259Y-84129160D01*
X75987969Y-83805480D01*
X76132720Y-83805480D01*
X76132720Y-85161840D01*
X75833000Y-85161840D01*
X75833000Y-84331296D01*
X75305368Y-84858854D01*
X75045418Y-84596327D01*
X75002918Y-84553467D01*
X74962456Y-84512782D01*
X74924606Y-84474842D01*
X74889940Y-84440214D01*
X74859030Y-84409467D01*
X74832450Y-84383170D01*
X74810772Y-84361889D01*
X74794568Y-84346195D01*
X74784411Y-84336654D01*
X74780914Y-84333800D01*
X74780151Y-84338777D01*
X74779439Y-84353302D01*
X74778784Y-84376761D01*
X74778192Y-84408541D01*
X74777671Y-84448030D01*
X74777227Y-84494614D01*
X74776868Y-84547681D01*
X74776599Y-84606618D01*
X74776427Y-84670812D01*
X74776360Y-84739650D01*
X74776360Y-85161840D01*
X74629040Y-85161840D01*
X74629040Y-83805480D01*
X74692213Y-83805480D01*
X75016381Y-84129160D01*
G36*
X74476640Y-83957880D02*
X74171840Y-83957880D01*
X74171840Y-85161840D01*
X73877200Y-85161840D01*
X73877200Y-83957880D01*
X73572400Y-83957880D01*
X73572400Y-83805480D01*
X74476640Y-83805480D01*
X74476640Y-83957880D01*
X74476640Y-83957880D01*
G37*
X74476640Y-83957880D02*
X74171840Y-83957880D01*
X74171840Y-85161840D01*
X73877200Y-85161840D01*
X73877200Y-83957880D01*
X73572400Y-83957880D01*
X73572400Y-83805480D01*
X74476640Y-83805480D01*
X74476640Y-83957880D01*
G36*
X73085460Y-83808058D02*
X73123224Y-83809171D01*
X73157319Y-83811025D01*
X73185775Y-83813617D01*
X73206620Y-83816946D01*
X73208233Y-83817325D01*
X73253792Y-83831976D01*
X73292701Y-83852467D01*
X73327413Y-83880131D01*
X73331713Y-83884291D01*
X73363935Y-83923198D01*
X73388410Y-83968575D01*
X73405047Y-84020210D01*
X73413154Y-84070910D01*
X73416378Y-84105200D01*
X73345036Y-84105200D01*
X73273693Y-84105199D01*
X73267305Y-84078530D01*
X73259252Y-84049796D01*
X73249868Y-84027688D01*
X73237445Y-84008676D01*
X73228114Y-83997612D01*
X73208817Y-83979385D01*
X73188274Y-83967395D01*
X73163854Y-83960632D01*
X73132929Y-83958086D01*
X73125012Y-83957991D01*
X73080306Y-83960986D01*
X73043444Y-83970342D01*
X73014202Y-83986245D01*
X72992359Y-84008880D01*
X72977691Y-84038431D01*
X72969976Y-84075084D01*
X72968988Y-84087420D01*
X72968939Y-84122480D01*
X72973498Y-84151014D01*
X72983298Y-84175844D01*
X72991993Y-84190192D01*
X72998078Y-84197961D01*
X73010243Y-84212480D01*
X73027780Y-84232937D01*
X73049981Y-84258522D01*
X73076140Y-84288424D01*
X73105549Y-84321831D01*
X73137500Y-84357933D01*
X73171286Y-84395918D01*
X73178684Y-84404211D01*
X73221580Y-84452405D01*
X73258172Y-84493872D01*
X73289039Y-84529358D01*
X73314760Y-84559607D01*
X73335916Y-84585365D01*
X73353085Y-84607377D01*
X73366848Y-84626389D01*
X73377783Y-84643146D01*
X73386470Y-84658394D01*
X73393489Y-84672877D01*
X73399419Y-84687341D01*
X73399985Y-84688841D01*
X73408400Y-84719085D01*
X73414303Y-84756350D01*
X73417622Y-84797795D01*
X73418285Y-84840581D01*
X73416221Y-84881865D01*
X73411357Y-84918808D01*
X73406339Y-84940254D01*
X73388160Y-84985850D01*
X73361623Y-85029774D01*
X73328508Y-85069669D01*
X73290595Y-85103178D01*
X73275378Y-85113698D01*
X73256547Y-85124149D01*
X73232902Y-85135083D01*
X73209403Y-85144217D01*
X73208305Y-85144591D01*
X73193879Y-85149242D01*
X73180764Y-85152720D01*
X73167061Y-85155225D01*
X73150867Y-85156959D01*
X73130283Y-85158123D01*
X73103406Y-85158918D01*
X73068338Y-85159546D01*
X73066940Y-85159568D01*
X73032198Y-85159837D01*
X72997575Y-85159640D01*
X72965620Y-85159024D01*
X72938882Y-85158037D01*
X72920819Y-85156817D01*
X72864108Y-85147510D01*
X72814753Y-85131212D01*
X72772678Y-85107850D01*
X72737809Y-85077346D01*
X72710073Y-85039625D01*
X72689394Y-84994612D01*
X72675699Y-84942230D01*
X72670259Y-84901490D01*
X72666758Y-84862120D01*
X72815480Y-84862120D01*
X72815508Y-84883710D01*
X72818850Y-84915845D01*
X72829461Y-84942545D01*
X72848084Y-84966111D01*
X72876069Y-84987917D01*
X72909117Y-85002001D01*
X72948224Y-85008721D01*
X72968361Y-85009440D01*
X73003059Y-85008081D01*
X73030309Y-85003544D01*
X73052512Y-84995138D01*
X73072070Y-84982172D01*
X73076673Y-84978274D01*
X73095473Y-84958035D01*
X73108060Y-84934939D01*
X73115214Y-84906873D01*
X73117715Y-84871728D01*
X73117740Y-84867200D01*
X73116709Y-84842740D01*
X73113027Y-84821147D01*
X73105809Y-84800653D01*
X73094168Y-84779494D01*
X73077221Y-84755904D01*
X73054082Y-84728117D01*
X73040059Y-84712260D01*
X72986119Y-84652025D01*
X72938553Y-84598820D01*
X72896925Y-84552137D01*
X72860800Y-84511464D01*
X72829743Y-84476291D01*
X72803318Y-84446108D01*
X72781090Y-84420405D01*
X72762624Y-84398672D01*
X72747485Y-84380399D01*
X72735237Y-84365076D01*
X72725445Y-84352192D01*
X72717674Y-84341237D01*
X72711488Y-84331702D01*
X72706452Y-84323076D01*
X72703884Y-84318282D01*
X72689653Y-84287656D01*
X72679505Y-84257290D01*
X72672918Y-84224611D01*
X72669369Y-84187050D01*
X72668336Y-84143300D01*
X72670304Y-84089158D01*
X72676652Y-84042670D01*
X72688048Y-84002031D01*
X72705159Y-83965437D01*
X72728653Y-83931084D01*
X72759196Y-83897168D01*
X72759496Y-83896869D01*
X72797786Y-83863226D01*
X72837167Y-83838290D01*
X72879934Y-83820682D01*
X72892253Y-83817034D01*
X72910624Y-83813665D01*
X72937156Y-83811048D01*
X72969877Y-83809180D01*
X73006816Y-83808061D01*
X73046001Y-83807687D01*
X73085460Y-83808058D01*
X73085460Y-83808058D01*
G37*
X73085460Y-83808058D02*
X73123224Y-83809171D01*
X73157319Y-83811025D01*
X73185775Y-83813617D01*
X73206620Y-83816946D01*
X73208233Y-83817325D01*
X73253792Y-83831976D01*
X73292701Y-83852467D01*
X73327413Y-83880131D01*
X73331713Y-83884291D01*
X73363935Y-83923198D01*
X73388410Y-83968575D01*
X73405047Y-84020210D01*
X73413154Y-84070910D01*
X73416378Y-84105200D01*
X73345036Y-84105200D01*
X73273693Y-84105199D01*
X73267305Y-84078530D01*
X73259252Y-84049796D01*
X73249868Y-84027688D01*
X73237445Y-84008676D01*
X73228114Y-83997612D01*
X73208817Y-83979385D01*
X73188274Y-83967395D01*
X73163854Y-83960632D01*
X73132929Y-83958086D01*
X73125012Y-83957991D01*
X73080306Y-83960986D01*
X73043444Y-83970342D01*
X73014202Y-83986245D01*
X72992359Y-84008880D01*
X72977691Y-84038431D01*
X72969976Y-84075084D01*
X72968988Y-84087420D01*
X72968939Y-84122480D01*
X72973498Y-84151014D01*
X72983298Y-84175844D01*
X72991993Y-84190192D01*
X72998078Y-84197961D01*
X73010243Y-84212480D01*
X73027780Y-84232937D01*
X73049981Y-84258522D01*
X73076140Y-84288424D01*
X73105549Y-84321831D01*
X73137500Y-84357933D01*
X73171286Y-84395918D01*
X73178684Y-84404211D01*
X73221580Y-84452405D01*
X73258172Y-84493872D01*
X73289039Y-84529358D01*
X73314760Y-84559607D01*
X73335916Y-84585365D01*
X73353085Y-84607377D01*
X73366848Y-84626389D01*
X73377783Y-84643146D01*
X73386470Y-84658394D01*
X73393489Y-84672877D01*
X73399419Y-84687341D01*
X73399985Y-84688841D01*
X73408400Y-84719085D01*
X73414303Y-84756350D01*
X73417622Y-84797795D01*
X73418285Y-84840581D01*
X73416221Y-84881865D01*
X73411357Y-84918808D01*
X73406339Y-84940254D01*
X73388160Y-84985850D01*
X73361623Y-85029774D01*
X73328508Y-85069669D01*
X73290595Y-85103178D01*
X73275378Y-85113698D01*
X73256547Y-85124149D01*
X73232902Y-85135083D01*
X73209403Y-85144217D01*
X73208305Y-85144591D01*
X73193879Y-85149242D01*
X73180764Y-85152720D01*
X73167061Y-85155225D01*
X73150867Y-85156959D01*
X73130283Y-85158123D01*
X73103406Y-85158918D01*
X73068338Y-85159546D01*
X73066940Y-85159568D01*
X73032198Y-85159837D01*
X72997575Y-85159640D01*
X72965620Y-85159024D01*
X72938882Y-85158037D01*
X72920819Y-85156817D01*
X72864108Y-85147510D01*
X72814753Y-85131212D01*
X72772678Y-85107850D01*
X72737809Y-85077346D01*
X72710073Y-85039625D01*
X72689394Y-84994612D01*
X72675699Y-84942230D01*
X72670259Y-84901490D01*
X72666758Y-84862120D01*
X72815480Y-84862120D01*
X72815508Y-84883710D01*
X72818850Y-84915845D01*
X72829461Y-84942545D01*
X72848084Y-84966111D01*
X72876069Y-84987917D01*
X72909117Y-85002001D01*
X72948224Y-85008721D01*
X72968361Y-85009440D01*
X73003059Y-85008081D01*
X73030309Y-85003544D01*
X73052512Y-84995138D01*
X73072070Y-84982172D01*
X73076673Y-84978274D01*
X73095473Y-84958035D01*
X73108060Y-84934939D01*
X73115214Y-84906873D01*
X73117715Y-84871728D01*
X73117740Y-84867200D01*
X73116709Y-84842740D01*
X73113027Y-84821147D01*
X73105809Y-84800653D01*
X73094168Y-84779494D01*
X73077221Y-84755904D01*
X73054082Y-84728117D01*
X73040059Y-84712260D01*
X72986119Y-84652025D01*
X72938553Y-84598820D01*
X72896925Y-84552137D01*
X72860800Y-84511464D01*
X72829743Y-84476291D01*
X72803318Y-84446108D01*
X72781090Y-84420405D01*
X72762624Y-84398672D01*
X72747485Y-84380399D01*
X72735237Y-84365076D01*
X72725445Y-84352192D01*
X72717674Y-84341237D01*
X72711488Y-84331702D01*
X72706452Y-84323076D01*
X72703884Y-84318282D01*
X72689653Y-84287656D01*
X72679505Y-84257290D01*
X72672918Y-84224611D01*
X72669369Y-84187050D01*
X72668336Y-84143300D01*
X72670304Y-84089158D01*
X72676652Y-84042670D01*
X72688048Y-84002031D01*
X72705159Y-83965437D01*
X72728653Y-83931084D01*
X72759196Y-83897168D01*
X72759496Y-83896869D01*
X72797786Y-83863226D01*
X72837167Y-83838290D01*
X72879934Y-83820682D01*
X72892253Y-83817034D01*
X72910624Y-83813665D01*
X72937156Y-83811048D01*
X72969877Y-83809180D01*
X73006816Y-83808061D01*
X73046001Y-83807687D01*
X73085460Y-83808058D01*
G36*
X81852800Y-86269280D02*
X81548000Y-86269280D01*
X81548000Y-87473240D01*
X81253360Y-87473240D01*
X81253360Y-86269280D01*
X80948560Y-86269280D01*
X80948560Y-86116880D01*
X81852800Y-86116880D01*
X81852800Y-86269280D01*
X81852800Y-86269280D01*
G37*
X81852800Y-86269280D02*
X81548000Y-86269280D01*
X81548000Y-87473240D01*
X81253360Y-87473240D01*
X81253360Y-86269280D01*
X80948560Y-86269280D01*
X80948560Y-86116880D01*
X81852800Y-86116880D01*
X81852800Y-86269280D01*
G36*
X80196769Y-86661710D02*
X80196819Y-87206540D01*
X80209034Y-87232774D01*
X80226745Y-87261684D01*
X80250380Y-87287265D01*
X80276919Y-87306333D01*
X80280708Y-87308308D01*
X80293820Y-87313495D01*
X80309386Y-87316604D01*
X80330257Y-87318051D01*
X80349120Y-87318300D01*
X80372727Y-87318004D01*
X80389222Y-87316728D01*
X80401642Y-87313889D01*
X80413027Y-87308901D01*
X80420813Y-87304524D01*
X80452373Y-87280245D01*
X80478662Y-87248060D01*
X80487518Y-87233068D01*
X80498980Y-87211620D01*
X80501740Y-86116880D01*
X80796376Y-86116880D01*
X80793620Y-87231940D01*
X80781809Y-87264658D01*
X80758807Y-87314008D01*
X80727604Y-87358818D01*
X80689444Y-87397871D01*
X80645572Y-87429953D01*
X80597229Y-87453850D01*
X80582800Y-87458995D01*
X80573374Y-87461887D01*
X80563839Y-87464229D01*
X80553003Y-87466088D01*
X80539675Y-87467533D01*
X80522663Y-87468632D01*
X80500776Y-87469454D01*
X80472822Y-87470067D01*
X80437610Y-87470540D01*
X80393949Y-87470942D01*
X80371980Y-87471111D01*
X80328603Y-87471297D01*
X80286868Y-87471213D01*
X80248265Y-87470884D01*
X80214284Y-87470330D01*
X80186417Y-87469576D01*
X80166154Y-87468642D01*
X80157171Y-87467880D01*
X80107130Y-87456718D01*
X80059533Y-87436370D01*
X80015651Y-87407744D01*
X79976754Y-87371746D01*
X79944112Y-87329281D01*
X79930736Y-87306293D01*
X79925605Y-87296589D01*
X79921025Y-87287692D01*
X79916964Y-87278999D01*
X79913393Y-87269906D01*
X79910278Y-87259810D01*
X79907589Y-87248108D01*
X79905294Y-87234195D01*
X79903362Y-87217468D01*
X79901762Y-87197324D01*
X79900462Y-87173159D01*
X79899431Y-87144369D01*
X79898637Y-87110351D01*
X79898049Y-87070502D01*
X79897636Y-87024217D01*
X79897365Y-86970893D01*
X79897207Y-86909927D01*
X79897130Y-86840715D01*
X79897101Y-86762653D01*
X79897090Y-86675138D01*
X79897088Y-86659170D01*
X79897000Y-86116880D01*
X80196720Y-86116880D01*
X80196769Y-86661710D01*
X80196769Y-86661710D01*
G37*
X80196769Y-86661710D02*
X80196819Y-87206540D01*
X80209034Y-87232774D01*
X80226745Y-87261684D01*
X80250380Y-87287265D01*
X80276919Y-87306333D01*
X80280708Y-87308308D01*
X80293820Y-87313495D01*
X80309386Y-87316604D01*
X80330257Y-87318051D01*
X80349120Y-87318300D01*
X80372727Y-87318004D01*
X80389222Y-87316728D01*
X80401642Y-87313889D01*
X80413027Y-87308901D01*
X80420813Y-87304524D01*
X80452373Y-87280245D01*
X80478662Y-87248060D01*
X80487518Y-87233068D01*
X80498980Y-87211620D01*
X80501740Y-86116880D01*
X80796376Y-86116880D01*
X80793620Y-87231940D01*
X80781809Y-87264658D01*
X80758807Y-87314008D01*
X80727604Y-87358818D01*
X80689444Y-87397871D01*
X80645572Y-87429953D01*
X80597229Y-87453850D01*
X80582800Y-87458995D01*
X80573374Y-87461887D01*
X80563839Y-87464229D01*
X80553003Y-87466088D01*
X80539675Y-87467533D01*
X80522663Y-87468632D01*
X80500776Y-87469454D01*
X80472822Y-87470067D01*
X80437610Y-87470540D01*
X80393949Y-87470942D01*
X80371980Y-87471111D01*
X80328603Y-87471297D01*
X80286868Y-87471213D01*
X80248265Y-87470884D01*
X80214284Y-87470330D01*
X80186417Y-87469576D01*
X80166154Y-87468642D01*
X80157171Y-87467880D01*
X80107130Y-87456718D01*
X80059533Y-87436370D01*
X80015651Y-87407744D01*
X79976754Y-87371746D01*
X79944112Y-87329281D01*
X79930736Y-87306293D01*
X79925605Y-87296589D01*
X79921025Y-87287692D01*
X79916964Y-87278999D01*
X79913393Y-87269906D01*
X79910278Y-87259810D01*
X79907589Y-87248108D01*
X79905294Y-87234195D01*
X79903362Y-87217468D01*
X79901762Y-87197324D01*
X79900462Y-87173159D01*
X79899431Y-87144369D01*
X79898637Y-87110351D01*
X79898049Y-87070502D01*
X79897636Y-87024217D01*
X79897365Y-86970893D01*
X79897207Y-86909927D01*
X79897130Y-86840715D01*
X79897101Y-86762653D01*
X79897090Y-86675138D01*
X79897088Y-86659170D01*
X79897000Y-86116880D01*
X80196720Y-86116880D01*
X80196769Y-86661710D01*
G36*
X79197329Y-86119442D02*
X79237937Y-86119548D01*
X79270660Y-86119793D01*
X79296637Y-86120232D01*
X79317004Y-86120922D01*
X79332900Y-86121917D01*
X79345463Y-86123275D01*
X79355830Y-86125051D01*
X79365139Y-86127301D01*
X79374527Y-86130080D01*
X79376300Y-86130636D01*
X79426194Y-86151574D01*
X79471844Y-86181055D01*
X79512067Y-86217939D01*
X79545681Y-86261081D01*
X79571502Y-86309338D01*
X79577849Y-86325461D01*
X79589660Y-86358180D01*
X79589660Y-87231940D01*
X79577849Y-87264658D01*
X79554847Y-87314008D01*
X79523644Y-87358818D01*
X79485484Y-87397871D01*
X79441612Y-87429953D01*
X79393269Y-87453850D01*
X79378840Y-87458995D01*
X79369414Y-87461887D01*
X79359879Y-87464229D01*
X79349043Y-87466088D01*
X79335715Y-87467533D01*
X79318703Y-87468632D01*
X79296816Y-87469454D01*
X79268862Y-87470067D01*
X79233650Y-87470540D01*
X79189989Y-87470942D01*
X79168020Y-87471111D01*
X79124643Y-87471297D01*
X79082908Y-87471213D01*
X79044305Y-87470884D01*
X79010324Y-87470330D01*
X78982457Y-87469576D01*
X78962194Y-87468642D01*
X78953211Y-87467880D01*
X78904008Y-87456860D01*
X78857185Y-87436877D01*
X78813974Y-87409066D01*
X78775610Y-87374557D01*
X78743326Y-87334486D01*
X78718356Y-87289983D01*
X78701933Y-87242183D01*
X78700490Y-87235786D01*
X78699012Y-87223542D01*
X78698040Y-87207859D01*
X78992587Y-87207859D01*
X79009258Y-87240062D01*
X79028069Y-87268274D01*
X79052226Y-87292372D01*
X79079057Y-87309913D01*
X79091170Y-87314974D01*
X79103675Y-87317351D01*
X79122731Y-87318847D01*
X79144747Y-87319213D01*
X79150594Y-87319091D01*
X79174127Y-87317878D01*
X79190979Y-87315391D01*
X79204614Y-87310859D01*
X79217207Y-87304273D01*
X79248238Y-87280427D01*
X79274301Y-87248671D01*
X79283558Y-87233068D01*
X79295020Y-87211620D01*
X79295020Y-86795060D01*
X79295042Y-86718564D01*
X79295070Y-86651544D01*
X79295046Y-86593314D01*
X79294911Y-86543190D01*
X79294605Y-86500486D01*
X79294071Y-86464518D01*
X79293249Y-86434601D01*
X79292082Y-86410050D01*
X79290509Y-86390180D01*
X79288474Y-86374307D01*
X79285917Y-86361746D01*
X79282779Y-86351812D01*
X79279002Y-86343820D01*
X79274527Y-86337085D01*
X79269296Y-86330923D01*
X79263249Y-86324648D01*
X79256329Y-86317577D01*
X79253908Y-86315021D01*
X79228415Y-86292245D01*
X79201368Y-86277841D01*
X79170392Y-86270893D01*
X79138003Y-86270216D01*
X79104510Y-86273710D01*
X79079740Y-86280593D01*
X79076580Y-86282028D01*
X79053396Y-86297064D01*
X79030665Y-86318125D01*
X79012017Y-86341588D01*
X79005354Y-86353100D01*
X79003549Y-86357025D01*
X79001970Y-86361476D01*
X79000600Y-86367133D01*
X78999421Y-86374674D01*
X78998415Y-86384780D01*
X78997565Y-86398129D01*
X78996853Y-86415400D01*
X78996261Y-86437273D01*
X78995771Y-86464428D01*
X78995366Y-86497543D01*
X78995027Y-86537299D01*
X78994739Y-86584373D01*
X78994481Y-86639446D01*
X78994238Y-86703198D01*
X78993990Y-86776306D01*
X78993943Y-86790639D01*
X78992587Y-87207859D01*
X78698040Y-87207859D01*
X78697683Y-87202117D01*
X78696505Y-87172491D01*
X78695475Y-87135643D01*
X78694596Y-87092552D01*
X78693866Y-87044197D01*
X78693286Y-86991557D01*
X78692855Y-86935610D01*
X78692574Y-86877336D01*
X78692443Y-86817713D01*
X78692461Y-86757721D01*
X78692629Y-86698339D01*
X78692947Y-86640544D01*
X78693414Y-86585317D01*
X78694031Y-86533637D01*
X78694798Y-86486481D01*
X78695714Y-86444830D01*
X78696780Y-86409661D01*
X78697995Y-86381955D01*
X78699360Y-86362689D01*
X78700490Y-86354333D01*
X78715592Y-86306783D01*
X78739530Y-86261977D01*
X78771097Y-86221133D01*
X78809083Y-86185468D01*
X78852281Y-86156201D01*
X78899481Y-86134548D01*
X78926720Y-86126324D01*
X78937322Y-86124388D01*
X78952499Y-86122814D01*
X78973130Y-86121576D01*
X79000096Y-86120646D01*
X79034276Y-86119997D01*
X79076551Y-86119601D01*
X79127801Y-86119431D01*
X79147700Y-86119420D01*
X79197329Y-86119442D01*
X79197329Y-86119442D01*
G37*
X79197329Y-86119442D02*
X79237937Y-86119548D01*
X79270660Y-86119793D01*
X79296637Y-86120232D01*
X79317004Y-86120922D01*
X79332900Y-86121917D01*
X79345463Y-86123275D01*
X79355830Y-86125051D01*
X79365139Y-86127301D01*
X79374527Y-86130080D01*
X79376300Y-86130636D01*
X79426194Y-86151574D01*
X79471844Y-86181055D01*
X79512067Y-86217939D01*
X79545681Y-86261081D01*
X79571502Y-86309338D01*
X79577849Y-86325461D01*
X79589660Y-86358180D01*
X79589660Y-87231940D01*
X79577849Y-87264658D01*
X79554847Y-87314008D01*
X79523644Y-87358818D01*
X79485484Y-87397871D01*
X79441612Y-87429953D01*
X79393269Y-87453850D01*
X79378840Y-87458995D01*
X79369414Y-87461887D01*
X79359879Y-87464229D01*
X79349043Y-87466088D01*
X79335715Y-87467533D01*
X79318703Y-87468632D01*
X79296816Y-87469454D01*
X79268862Y-87470067D01*
X79233650Y-87470540D01*
X79189989Y-87470942D01*
X79168020Y-87471111D01*
X79124643Y-87471297D01*
X79082908Y-87471213D01*
X79044305Y-87470884D01*
X79010324Y-87470330D01*
X78982457Y-87469576D01*
X78962194Y-87468642D01*
X78953211Y-87467880D01*
X78904008Y-87456860D01*
X78857185Y-87436877D01*
X78813974Y-87409066D01*
X78775610Y-87374557D01*
X78743326Y-87334486D01*
X78718356Y-87289983D01*
X78701933Y-87242183D01*
X78700490Y-87235786D01*
X78699012Y-87223542D01*
X78698040Y-87207859D01*
X78992587Y-87207859D01*
X79009258Y-87240062D01*
X79028069Y-87268274D01*
X79052226Y-87292372D01*
X79079057Y-87309913D01*
X79091170Y-87314974D01*
X79103675Y-87317351D01*
X79122731Y-87318847D01*
X79144747Y-87319213D01*
X79150594Y-87319091D01*
X79174127Y-87317878D01*
X79190979Y-87315391D01*
X79204614Y-87310859D01*
X79217207Y-87304273D01*
X79248238Y-87280427D01*
X79274301Y-87248671D01*
X79283558Y-87233068D01*
X79295020Y-87211620D01*
X79295020Y-86795060D01*
X79295042Y-86718564D01*
X79295070Y-86651544D01*
X79295046Y-86593314D01*
X79294911Y-86543190D01*
X79294605Y-86500486D01*
X79294071Y-86464518D01*
X79293249Y-86434601D01*
X79292082Y-86410050D01*
X79290509Y-86390180D01*
X79288474Y-86374307D01*
X79285917Y-86361746D01*
X79282779Y-86351812D01*
X79279002Y-86343820D01*
X79274527Y-86337085D01*
X79269296Y-86330923D01*
X79263249Y-86324648D01*
X79256329Y-86317577D01*
X79253908Y-86315021D01*
X79228415Y-86292245D01*
X79201368Y-86277841D01*
X79170392Y-86270893D01*
X79138003Y-86270216D01*
X79104510Y-86273710D01*
X79079740Y-86280593D01*
X79076580Y-86282028D01*
X79053396Y-86297064D01*
X79030665Y-86318125D01*
X79012017Y-86341588D01*
X79005354Y-86353100D01*
X79003549Y-86357025D01*
X79001970Y-86361476D01*
X79000600Y-86367133D01*
X78999421Y-86374674D01*
X78998415Y-86384780D01*
X78997565Y-86398129D01*
X78996853Y-86415400D01*
X78996261Y-86437273D01*
X78995771Y-86464428D01*
X78995366Y-86497543D01*
X78995027Y-86537299D01*
X78994739Y-86584373D01*
X78994481Y-86639446D01*
X78994238Y-86703198D01*
X78993990Y-86776306D01*
X78993943Y-86790639D01*
X78992587Y-87207859D01*
X78698040Y-87207859D01*
X78697683Y-87202117D01*
X78696505Y-87172491D01*
X78695475Y-87135643D01*
X78694596Y-87092552D01*
X78693866Y-87044197D01*
X78693286Y-86991557D01*
X78692855Y-86935610D01*
X78692574Y-86877336D01*
X78692443Y-86817713D01*
X78692461Y-86757721D01*
X78692629Y-86698339D01*
X78692947Y-86640544D01*
X78693414Y-86585317D01*
X78694031Y-86533637D01*
X78694798Y-86486481D01*
X78695714Y-86444830D01*
X78696780Y-86409661D01*
X78697995Y-86381955D01*
X78699360Y-86362689D01*
X78700490Y-86354333D01*
X78715592Y-86306783D01*
X78739530Y-86261977D01*
X78771097Y-86221133D01*
X78809083Y-86185468D01*
X78852281Y-86156201D01*
X78899481Y-86134548D01*
X78926720Y-86126324D01*
X78937322Y-86124388D01*
X78952499Y-86122814D01*
X78973130Y-86121576D01*
X79000096Y-86120646D01*
X79034276Y-86119997D01*
X79076551Y-86119601D01*
X79127801Y-86119431D01*
X79147700Y-86119420D01*
X79197329Y-86119442D01*
G36*
X77637626Y-86394285D02*
X77638940Y-86671690D01*
X78126620Y-86117498D01*
X78255189Y-86117189D01*
X78298171Y-86117235D01*
X78331540Y-86117620D01*
X78355837Y-86118367D01*
X78371604Y-86119498D01*
X78379384Y-86121035D01*
X78380339Y-86122413D01*
X78376521Y-86126952D01*
X78366431Y-86138520D01*
X78350561Y-86156564D01*
X78329401Y-86180530D01*
X78303442Y-86209864D01*
X78273174Y-86244012D01*
X78239089Y-86282421D01*
X78201676Y-86324537D01*
X78161428Y-86369807D01*
X78118833Y-86417676D01*
X78080297Y-86460954D01*
X78028010Y-86519693D01*
X77982128Y-86571329D01*
X77942264Y-86616317D01*
X77908033Y-86655112D01*
X77879047Y-86688167D01*
X77854919Y-86715937D01*
X77835264Y-86738876D01*
X77819694Y-86757438D01*
X77807822Y-86772078D01*
X77799264Y-86783249D01*
X77793630Y-86791407D01*
X77790536Y-86797004D01*
X77789594Y-86800496D01*
X77790046Y-86801980D01*
X77794323Y-86806919D01*
X77804848Y-86818879D01*
X77821117Y-86837290D01*
X77842624Y-86861584D01*
X77868864Y-86891191D01*
X77899334Y-86925542D01*
X77933526Y-86964067D01*
X77970938Y-87006198D01*
X78011063Y-87051364D01*
X78053397Y-87098996D01*
X78083440Y-87132787D01*
X78127014Y-87181803D01*
X78168738Y-87228761D01*
X78208105Y-87273087D01*
X78244610Y-87314212D01*
X78277744Y-87351564D01*
X78307002Y-87384571D01*
X78331878Y-87412664D01*
X78351866Y-87435270D01*
X78366458Y-87451818D01*
X78375148Y-87461737D01*
X78377432Y-87464408D01*
X78378954Y-87466961D01*
X78378341Y-87468967D01*
X78374562Y-87470491D01*
X78366588Y-87471597D01*
X78353390Y-87472348D01*
X78333937Y-87472809D01*
X78307200Y-87473044D01*
X78272150Y-87473118D01*
X78237732Y-87473103D01*
X78091060Y-87472966D01*
X77865000Y-87208203D01*
X77638940Y-86943439D01*
X77637624Y-87208339D01*
X77636309Y-87473240D01*
X77336680Y-87473240D01*
X77336680Y-86116880D01*
X77636313Y-86116880D01*
X77637626Y-86394285D01*
X77637626Y-86394285D01*
G37*
X77637626Y-86394285D02*
X77638940Y-86671690D01*
X78126620Y-86117498D01*
X78255189Y-86117189D01*
X78298171Y-86117235D01*
X78331540Y-86117620D01*
X78355837Y-86118367D01*
X78371604Y-86119498D01*
X78379384Y-86121035D01*
X78380339Y-86122413D01*
X78376521Y-86126952D01*
X78366431Y-86138520D01*
X78350561Y-86156564D01*
X78329401Y-86180530D01*
X78303442Y-86209864D01*
X78273174Y-86244012D01*
X78239089Y-86282421D01*
X78201676Y-86324537D01*
X78161428Y-86369807D01*
X78118833Y-86417676D01*
X78080297Y-86460954D01*
X78028010Y-86519693D01*
X77982128Y-86571329D01*
X77942264Y-86616317D01*
X77908033Y-86655112D01*
X77879047Y-86688167D01*
X77854919Y-86715937D01*
X77835264Y-86738876D01*
X77819694Y-86757438D01*
X77807822Y-86772078D01*
X77799264Y-86783249D01*
X77793630Y-86791407D01*
X77790536Y-86797004D01*
X77789594Y-86800496D01*
X77790046Y-86801980D01*
X77794323Y-86806919D01*
X77804848Y-86818879D01*
X77821117Y-86837290D01*
X77842624Y-86861584D01*
X77868864Y-86891191D01*
X77899334Y-86925542D01*
X77933526Y-86964067D01*
X77970938Y-87006198D01*
X78011063Y-87051364D01*
X78053397Y-87098996D01*
X78083440Y-87132787D01*
X78127014Y-87181803D01*
X78168738Y-87228761D01*
X78208105Y-87273087D01*
X78244610Y-87314212D01*
X78277744Y-87351564D01*
X78307002Y-87384571D01*
X78331878Y-87412664D01*
X78351866Y-87435270D01*
X78366458Y-87451818D01*
X78375148Y-87461737D01*
X78377432Y-87464408D01*
X78378954Y-87466961D01*
X78378341Y-87468967D01*
X78374562Y-87470491D01*
X78366588Y-87471597D01*
X78353390Y-87472348D01*
X78333937Y-87472809D01*
X78307200Y-87473044D01*
X78272150Y-87473118D01*
X78237732Y-87473103D01*
X78091060Y-87472966D01*
X77865000Y-87208203D01*
X77638940Y-86943439D01*
X77637624Y-87208339D01*
X77636309Y-87473240D01*
X77336680Y-87473240D01*
X77336680Y-86116880D01*
X77636313Y-86116880D01*
X77637626Y-86394285D01*
G36*
X76637009Y-86119442D02*
X76677617Y-86119548D01*
X76710340Y-86119793D01*
X76736317Y-86120232D01*
X76756684Y-86120922D01*
X76772580Y-86121917D01*
X76785143Y-86123275D01*
X76795510Y-86125051D01*
X76804819Y-86127301D01*
X76814207Y-86130080D01*
X76815980Y-86130636D01*
X76865874Y-86151574D01*
X76911524Y-86181055D01*
X76951747Y-86217939D01*
X76985361Y-86261081D01*
X77011182Y-86309338D01*
X77017529Y-86325461D01*
X77029340Y-86358180D01*
X77032096Y-87473240D01*
X76737240Y-87473240D01*
X76737240Y-86868720D01*
X76432440Y-86868720D01*
X76432440Y-87473240D01*
X76132720Y-87473240D01*
X76132808Y-86930950D01*
X76132819Y-86841795D01*
X76132841Y-86762196D01*
X76132908Y-86691548D01*
X76133049Y-86629246D01*
X76133296Y-86574685D01*
X76133479Y-86552124D01*
X76432440Y-86552124D01*
X76432440Y-86716320D01*
X76737240Y-86716320D01*
X76737240Y-86557222D01*
X76737159Y-86507434D01*
X76736785Y-86466626D01*
X76735925Y-86433620D01*
X76734382Y-86407235D01*
X76731961Y-86386294D01*
X76728467Y-86369615D01*
X76723704Y-86356021D01*
X76717477Y-86344333D01*
X76709592Y-86333370D01*
X76699852Y-86321953D01*
X76697922Y-86319799D01*
X76670516Y-86294463D01*
X76641317Y-86278338D01*
X76608246Y-86270476D01*
X76587014Y-86269329D01*
X76551063Y-86271845D01*
X76521302Y-86280212D01*
X76494960Y-86295490D01*
X76476106Y-86311804D01*
X76465038Y-86322908D01*
X76456018Y-86333205D01*
X76448836Y-86343848D01*
X76443282Y-86355989D01*
X76439149Y-86370778D01*
X76436226Y-86389367D01*
X76434304Y-86412909D01*
X76433173Y-86442555D01*
X76432626Y-86479457D01*
X76432452Y-86524765D01*
X76432440Y-86552124D01*
X76133479Y-86552124D01*
X76133682Y-86527260D01*
X76134236Y-86486368D01*
X76134991Y-86451403D01*
X76135978Y-86421760D01*
X76137228Y-86396835D01*
X76138774Y-86376024D01*
X76140646Y-86358721D01*
X76142875Y-86344323D01*
X76145494Y-86332223D01*
X76148533Y-86321818D01*
X76152025Y-86312503D01*
X76155999Y-86303674D01*
X76160489Y-86294725D01*
X76165526Y-86285052D01*
X76166479Y-86283213D01*
X76188727Y-86248020D01*
X76217623Y-86213972D01*
X76250597Y-86183594D01*
X76285078Y-86159417D01*
X76300933Y-86150980D01*
X76317410Y-86143338D01*
X76332289Y-86137039D01*
X76346748Y-86131955D01*
X76361965Y-86127956D01*
X76379119Y-86124911D01*
X76399388Y-86122691D01*
X76423952Y-86121166D01*
X76453989Y-86120206D01*
X76490676Y-86119682D01*
X76535194Y-86119463D01*
X76587380Y-86119420D01*
X76637009Y-86119442D01*
X76637009Y-86119442D01*
G37*
X76637009Y-86119442D02*
X76677617Y-86119548D01*
X76710340Y-86119793D01*
X76736317Y-86120232D01*
X76756684Y-86120922D01*
X76772580Y-86121917D01*
X76785143Y-86123275D01*
X76795510Y-86125051D01*
X76804819Y-86127301D01*
X76814207Y-86130080D01*
X76815980Y-86130636D01*
X76865874Y-86151574D01*
X76911524Y-86181055D01*
X76951747Y-86217939D01*
X76985361Y-86261081D01*
X77011182Y-86309338D01*
X77017529Y-86325461D01*
X77029340Y-86358180D01*
X77032096Y-87473240D01*
X76737240Y-87473240D01*
X76737240Y-86868720D01*
X76432440Y-86868720D01*
X76432440Y-87473240D01*
X76132720Y-87473240D01*
X76132808Y-86930950D01*
X76132819Y-86841795D01*
X76132841Y-86762196D01*
X76132908Y-86691548D01*
X76133049Y-86629246D01*
X76133296Y-86574685D01*
X76133479Y-86552124D01*
X76432440Y-86552124D01*
X76432440Y-86716320D01*
X76737240Y-86716320D01*
X76737240Y-86557222D01*
X76737159Y-86507434D01*
X76736785Y-86466626D01*
X76735925Y-86433620D01*
X76734382Y-86407235D01*
X76731961Y-86386294D01*
X76728467Y-86369615D01*
X76723704Y-86356021D01*
X76717477Y-86344333D01*
X76709592Y-86333370D01*
X76699852Y-86321953D01*
X76697922Y-86319799D01*
X76670516Y-86294463D01*
X76641317Y-86278338D01*
X76608246Y-86270476D01*
X76587014Y-86269329D01*
X76551063Y-86271845D01*
X76521302Y-86280212D01*
X76494960Y-86295490D01*
X76476106Y-86311804D01*
X76465038Y-86322908D01*
X76456018Y-86333205D01*
X76448836Y-86343848D01*
X76443282Y-86355989D01*
X76439149Y-86370778D01*
X76436226Y-86389367D01*
X76434304Y-86412909D01*
X76433173Y-86442555D01*
X76432626Y-86479457D01*
X76432452Y-86524765D01*
X76432440Y-86552124D01*
X76133479Y-86552124D01*
X76133682Y-86527260D01*
X76134236Y-86486368D01*
X76134991Y-86451403D01*
X76135978Y-86421760D01*
X76137228Y-86396835D01*
X76138774Y-86376024D01*
X76140646Y-86358721D01*
X76142875Y-86344323D01*
X76145494Y-86332223D01*
X76148533Y-86321818D01*
X76152025Y-86312503D01*
X76155999Y-86303674D01*
X76160489Y-86294725D01*
X76165526Y-86285052D01*
X76166479Y-86283213D01*
X76188727Y-86248020D01*
X76217623Y-86213972D01*
X76250597Y-86183594D01*
X76285078Y-86159417D01*
X76300933Y-86150980D01*
X76317410Y-86143338D01*
X76332289Y-86137039D01*
X76346748Y-86131955D01*
X76361965Y-86127956D01*
X76379119Y-86124911D01*
X76399388Y-86122691D01*
X76423952Y-86121166D01*
X76453989Y-86120206D01*
X76490676Y-86119682D01*
X76535194Y-86119463D01*
X76587380Y-86119420D01*
X76637009Y-86119442D01*
G36*
X75827920Y-86269280D02*
X75375800Y-86269280D01*
X75375800Y-86716320D01*
X75675520Y-86716320D01*
X75675520Y-86868720D01*
X75375800Y-86868720D01*
X75375800Y-87320840D01*
X75827920Y-87320840D01*
X75827920Y-87473240D01*
X75076080Y-87473240D01*
X75076080Y-86116880D01*
X75827920Y-86116880D01*
X75827920Y-86269280D01*
X75827920Y-86269280D01*
G37*
X75827920Y-86269280D02*
X75375800Y-86269280D01*
X75375800Y-86716320D01*
X75675520Y-86716320D01*
X75675520Y-86868720D01*
X75375800Y-86868720D01*
X75375800Y-87320840D01*
X75827920Y-87320840D01*
X75827920Y-87473240D01*
X75076080Y-87473240D01*
X75076080Y-86116880D01*
X75827920Y-86116880D01*
X75827920Y-86269280D01*
G36*
X74198510Y-86118027D02*
X74264193Y-86118412D01*
X74320525Y-86118776D01*
X74368313Y-86119147D01*
X74408365Y-86119555D01*
X74441489Y-86120029D01*
X74468494Y-86120598D01*
X74490187Y-86121291D01*
X74507377Y-86122137D01*
X74520870Y-86123165D01*
X74531477Y-86124404D01*
X74540003Y-86125883D01*
X74547259Y-86127632D01*
X74554050Y-86129679D01*
X74557920Y-86130955D01*
X74607244Y-86152463D01*
X74652089Y-86181912D01*
X74691342Y-86218114D01*
X74723891Y-86259878D01*
X74748625Y-86306014D01*
X74763410Y-86350828D01*
X74767609Y-86376832D01*
X74770204Y-86411985D01*
X74771128Y-86455393D01*
X74771129Y-86457240D01*
X74770021Y-86504841D01*
X74766268Y-86544868D01*
X74759231Y-86579707D01*
X74748269Y-86611744D01*
X74732742Y-86643366D01*
X74712270Y-86676567D01*
X74685302Y-86710260D01*
X74653402Y-86736960D01*
X74615508Y-86757260D01*
X74570557Y-86771753D01*
X74527440Y-86779753D01*
X74479180Y-86786393D01*
X74560807Y-86786916D01*
X74600470Y-86787560D01*
X74631740Y-86789244D01*
X74656368Y-86792456D01*
X74676105Y-86797681D01*
X74692703Y-86805405D01*
X74707915Y-86816115D01*
X74723490Y-86830296D01*
X74725966Y-86832753D01*
X74735184Y-86841954D01*
X74743060Y-86850271D01*
X74749699Y-86858545D01*
X74755207Y-86867621D01*
X74759688Y-86878342D01*
X74763250Y-86891551D01*
X74765997Y-86908091D01*
X74768035Y-86928805D01*
X74769469Y-86954537D01*
X74770405Y-86986130D01*
X74770949Y-87024426D01*
X74771205Y-87070270D01*
X74771280Y-87124504D01*
X74771280Y-87473240D01*
X74477091Y-87473240D01*
X74475595Y-87225590D01*
X74474100Y-86977940D01*
X74460524Y-86952217D01*
X74441485Y-86924439D01*
X74416113Y-86899047D01*
X74389313Y-86880437D01*
X74382005Y-86877173D01*
X74372634Y-86874694D01*
X74359673Y-86872860D01*
X74341596Y-86871529D01*
X74316876Y-86870560D01*
X74283986Y-86869813D01*
X74272170Y-86869608D01*
X74171840Y-86867957D01*
X74171840Y-87473240D01*
X73872120Y-87473240D01*
X73872120Y-86716320D01*
X74171840Y-86716320D01*
X74267090Y-86716270D01*
X74300875Y-86716176D01*
X74326257Y-86715818D01*
X74344990Y-86715024D01*
X74358831Y-86713620D01*
X74369535Y-86711432D01*
X74378858Y-86708287D01*
X74387843Y-86704344D01*
X74412951Y-86688570D01*
X74436494Y-86666520D01*
X74455823Y-86641164D01*
X74468291Y-86615472D01*
X74468969Y-86613304D01*
X74472080Y-86599282D01*
X74474310Y-86580389D01*
X74475750Y-86555210D01*
X74476490Y-86522330D01*
X74476640Y-86492800D01*
X74476352Y-86453435D01*
X74475430Y-86422801D01*
X74473783Y-86399481D01*
X74471321Y-86382060D01*
X74468969Y-86372295D01*
X74457228Y-86346716D01*
X74438394Y-86321212D01*
X74415115Y-86298753D01*
X74390037Y-86282310D01*
X74387843Y-86281255D01*
X74378227Y-86277062D01*
X74368866Y-86273989D01*
X74358002Y-86271860D01*
X74343882Y-86270503D01*
X74324749Y-86269744D01*
X74298847Y-86269410D01*
X74267090Y-86269329D01*
X74171840Y-86269280D01*
X74171840Y-86716320D01*
X73872120Y-86716320D01*
X73872120Y-86116154D01*
X74198510Y-86118027D01*
X74198510Y-86118027D01*
G37*
X74198510Y-86118027D02*
X74264193Y-86118412D01*
X74320525Y-86118776D01*
X74368313Y-86119147D01*
X74408365Y-86119555D01*
X74441489Y-86120029D01*
X74468494Y-86120598D01*
X74490187Y-86121291D01*
X74507377Y-86122137D01*
X74520870Y-86123165D01*
X74531477Y-86124404D01*
X74540003Y-86125883D01*
X74547259Y-86127632D01*
X74554050Y-86129679D01*
X74557920Y-86130955D01*
X74607244Y-86152463D01*
X74652089Y-86181912D01*
X74691342Y-86218114D01*
X74723891Y-86259878D01*
X74748625Y-86306014D01*
X74763410Y-86350828D01*
X74767609Y-86376832D01*
X74770204Y-86411985D01*
X74771128Y-86455393D01*
X74771129Y-86457240D01*
X74770021Y-86504841D01*
X74766268Y-86544868D01*
X74759231Y-86579707D01*
X74748269Y-86611744D01*
X74732742Y-86643366D01*
X74712270Y-86676567D01*
X74685302Y-86710260D01*
X74653402Y-86736960D01*
X74615508Y-86757260D01*
X74570557Y-86771753D01*
X74527440Y-86779753D01*
X74479180Y-86786393D01*
X74560807Y-86786916D01*
X74600470Y-86787560D01*
X74631740Y-86789244D01*
X74656368Y-86792456D01*
X74676105Y-86797681D01*
X74692703Y-86805405D01*
X74707915Y-86816115D01*
X74723490Y-86830296D01*
X74725966Y-86832753D01*
X74735184Y-86841954D01*
X74743060Y-86850271D01*
X74749699Y-86858545D01*
X74755207Y-86867621D01*
X74759688Y-86878342D01*
X74763250Y-86891551D01*
X74765997Y-86908091D01*
X74768035Y-86928805D01*
X74769469Y-86954537D01*
X74770405Y-86986130D01*
X74770949Y-87024426D01*
X74771205Y-87070270D01*
X74771280Y-87124504D01*
X74771280Y-87473240D01*
X74477091Y-87473240D01*
X74475595Y-87225590D01*
X74474100Y-86977940D01*
X74460524Y-86952217D01*
X74441485Y-86924439D01*
X74416113Y-86899047D01*
X74389313Y-86880437D01*
X74382005Y-86877173D01*
X74372634Y-86874694D01*
X74359673Y-86872860D01*
X74341596Y-86871529D01*
X74316876Y-86870560D01*
X74283986Y-86869813D01*
X74272170Y-86869608D01*
X74171840Y-86867957D01*
X74171840Y-87473240D01*
X73872120Y-87473240D01*
X73872120Y-86716320D01*
X74171840Y-86716320D01*
X74267090Y-86716270D01*
X74300875Y-86716176D01*
X74326257Y-86715818D01*
X74344990Y-86715024D01*
X74358831Y-86713620D01*
X74369535Y-86711432D01*
X74378858Y-86708287D01*
X74387843Y-86704344D01*
X74412951Y-86688570D01*
X74436494Y-86666520D01*
X74455823Y-86641164D01*
X74468291Y-86615472D01*
X74468969Y-86613304D01*
X74472080Y-86599282D01*
X74474310Y-86580389D01*
X74475750Y-86555210D01*
X74476490Y-86522330D01*
X74476640Y-86492800D01*
X74476352Y-86453435D01*
X74475430Y-86422801D01*
X74473783Y-86399481D01*
X74471321Y-86382060D01*
X74468969Y-86372295D01*
X74457228Y-86346716D01*
X74438394Y-86321212D01*
X74415115Y-86298753D01*
X74390037Y-86282310D01*
X74387843Y-86281255D01*
X74378227Y-86277062D01*
X74368866Y-86273989D01*
X74358002Y-86271860D01*
X74343882Y-86270503D01*
X74324749Y-86269744D01*
X74298847Y-86269410D01*
X74267090Y-86269329D01*
X74171840Y-86269280D01*
X74171840Y-86716320D01*
X73872120Y-86716320D01*
X73872120Y-86116154D01*
X74198510Y-86118027D01*
G36*
X72994550Y-86118027D02*
X73060233Y-86118412D01*
X73116565Y-86118776D01*
X73164353Y-86119147D01*
X73204405Y-86119555D01*
X73237529Y-86120029D01*
X73264534Y-86120598D01*
X73286227Y-86121291D01*
X73303417Y-86122137D01*
X73316910Y-86123165D01*
X73327517Y-86124404D01*
X73336043Y-86125883D01*
X73343299Y-86127632D01*
X73350090Y-86129679D01*
X73353960Y-86130955D01*
X73403284Y-86152463D01*
X73448129Y-86181912D01*
X73487382Y-86218114D01*
X73519931Y-86259878D01*
X73544665Y-86306014D01*
X73559450Y-86350828D01*
X73563459Y-86375396D01*
X73566052Y-86407168D01*
X73567233Y-86443285D01*
X73567003Y-86480891D01*
X73565366Y-86517128D01*
X73562322Y-86549139D01*
X73559266Y-86567944D01*
X73544223Y-86617463D01*
X73520756Y-86661384D01*
X73489156Y-86699333D01*
X73449712Y-86730935D01*
X73419511Y-86748140D01*
X73397322Y-86757750D01*
X73370723Y-86767259D01*
X73342675Y-86775809D01*
X73316141Y-86782543D01*
X73294084Y-86786604D01*
X73283810Y-86787404D01*
X73275978Y-86789201D01*
X73275219Y-86792520D01*
X73281764Y-86795549D01*
X73294748Y-86797407D01*
X73302189Y-86797675D01*
X73320629Y-86798966D01*
X73342946Y-86802215D01*
X73357822Y-86805248D01*
X73406105Y-86821552D01*
X73448847Y-86846336D01*
X73485937Y-86879492D01*
X73517261Y-86920910D01*
X73542707Y-86970483D01*
X73550827Y-86991480D01*
X73555848Y-87006505D01*
X73559517Y-87020522D01*
X73562102Y-87035704D01*
X73563874Y-87054224D01*
X73565104Y-87078257D01*
X73566060Y-87109975D01*
X73566186Y-87115100D01*
X73566653Y-87158652D01*
X73565471Y-87194262D01*
X73562273Y-87224068D01*
X73556691Y-87250206D01*
X73548356Y-87274814D01*
X73536901Y-87300028D01*
X73533045Y-87307564D01*
X73514784Y-87336464D01*
X73490407Y-87366431D01*
X73462482Y-87394843D01*
X73433578Y-87419078D01*
X73407300Y-87435976D01*
X73394709Y-87442605D01*
X73383527Y-87448317D01*
X73372920Y-87453183D01*
X73362059Y-87457276D01*
X73350110Y-87460669D01*
X73336242Y-87463434D01*
X73319624Y-87465645D01*
X73299424Y-87467374D01*
X73274809Y-87468692D01*
X73244949Y-87469674D01*
X73209012Y-87470392D01*
X73166166Y-87470919D01*
X73115579Y-87471326D01*
X73056419Y-87471687D01*
X72994550Y-87472036D01*
X72668160Y-87473907D01*
X72668160Y-86868720D01*
X72967880Y-86868720D01*
X72967880Y-87321602D01*
X73068210Y-87319951D01*
X73102593Y-87319343D01*
X73128456Y-87318673D01*
X73147435Y-87317738D01*
X73161167Y-87316333D01*
X73171291Y-87314253D01*
X73179444Y-87311296D01*
X73187263Y-87307256D01*
X73191973Y-87304524D01*
X73223179Y-87280555D01*
X73248478Y-87249586D01*
X73259443Y-87229658D01*
X73262864Y-87221617D01*
X73265470Y-87213230D01*
X73267370Y-87203029D01*
X73268674Y-87189551D01*
X73269493Y-87171328D01*
X73269937Y-87146895D01*
X73270114Y-87114788D01*
X73270140Y-87087160D01*
X73270140Y-86967780D01*
X73255775Y-86938527D01*
X73244484Y-86918262D01*
X73231888Y-86902224D01*
X73216706Y-86889949D01*
X73197659Y-86880970D01*
X73173466Y-86874824D01*
X73142848Y-86871044D01*
X73104524Y-86869167D01*
X73063592Y-86868720D01*
X72967880Y-86868720D01*
X72668160Y-86868720D01*
X72668160Y-86716320D01*
X72967880Y-86716320D01*
X73063130Y-86716270D01*
X73096915Y-86716176D01*
X73122297Y-86715818D01*
X73141030Y-86715024D01*
X73154871Y-86713620D01*
X73165575Y-86711432D01*
X73174898Y-86708287D01*
X73183883Y-86704344D01*
X73208991Y-86688570D01*
X73232534Y-86666520D01*
X73251863Y-86641164D01*
X73264331Y-86615472D01*
X73265009Y-86613304D01*
X73268271Y-86596236D01*
X73270700Y-86571336D01*
X73272296Y-86540896D01*
X73273059Y-86507210D01*
X73272988Y-86472571D01*
X73272085Y-86439273D01*
X73270349Y-86409607D01*
X73267779Y-86385869D01*
X73265009Y-86372295D01*
X73253268Y-86346716D01*
X73234434Y-86321212D01*
X73211155Y-86298753D01*
X73186077Y-86282310D01*
X73183883Y-86281255D01*
X73174267Y-86277062D01*
X73164906Y-86273989D01*
X73154042Y-86271860D01*
X73139922Y-86270503D01*
X73120789Y-86269744D01*
X73094887Y-86269410D01*
X73063130Y-86269329D01*
X72967880Y-86269280D01*
X72967880Y-86716320D01*
X72668160Y-86716320D01*
X72668160Y-86116154D01*
X72994550Y-86118027D01*
X72994550Y-86118027D01*
G37*
X72994550Y-86118027D02*
X73060233Y-86118412D01*
X73116565Y-86118776D01*
X73164353Y-86119147D01*
X73204405Y-86119555D01*
X73237529Y-86120029D01*
X73264534Y-86120598D01*
X73286227Y-86121291D01*
X73303417Y-86122137D01*
X73316910Y-86123165D01*
X73327517Y-86124404D01*
X73336043Y-86125883D01*
X73343299Y-86127632D01*
X73350090Y-86129679D01*
X73353960Y-86130955D01*
X73403284Y-86152463D01*
X73448129Y-86181912D01*
X73487382Y-86218114D01*
X73519931Y-86259878D01*
X73544665Y-86306014D01*
X73559450Y-86350828D01*
X73563459Y-86375396D01*
X73566052Y-86407168D01*
X73567233Y-86443285D01*
X73567003Y-86480891D01*
X73565366Y-86517128D01*
X73562322Y-86549139D01*
X73559266Y-86567944D01*
X73544223Y-86617463D01*
X73520756Y-86661384D01*
X73489156Y-86699333D01*
X73449712Y-86730935D01*
X73419511Y-86748140D01*
X73397322Y-86757750D01*
X73370723Y-86767259D01*
X73342675Y-86775809D01*
X73316141Y-86782543D01*
X73294084Y-86786604D01*
X73283810Y-86787404D01*
X73275978Y-86789201D01*
X73275219Y-86792520D01*
X73281764Y-86795549D01*
X73294748Y-86797407D01*
X73302189Y-86797675D01*
X73320629Y-86798966D01*
X73342946Y-86802215D01*
X73357822Y-86805248D01*
X73406105Y-86821552D01*
X73448847Y-86846336D01*
X73485937Y-86879492D01*
X73517261Y-86920910D01*
X73542707Y-86970483D01*
X73550827Y-86991480D01*
X73555848Y-87006505D01*
X73559517Y-87020522D01*
X73562102Y-87035704D01*
X73563874Y-87054224D01*
X73565104Y-87078257D01*
X73566060Y-87109975D01*
X73566186Y-87115100D01*
X73566653Y-87158652D01*
X73565471Y-87194262D01*
X73562273Y-87224068D01*
X73556691Y-87250206D01*
X73548356Y-87274814D01*
X73536901Y-87300028D01*
X73533045Y-87307564D01*
X73514784Y-87336464D01*
X73490407Y-87366431D01*
X73462482Y-87394843D01*
X73433578Y-87419078D01*
X73407300Y-87435976D01*
X73394709Y-87442605D01*
X73383527Y-87448317D01*
X73372920Y-87453183D01*
X73362059Y-87457276D01*
X73350110Y-87460669D01*
X73336242Y-87463434D01*
X73319624Y-87465645D01*
X73299424Y-87467374D01*
X73274809Y-87468692D01*
X73244949Y-87469674D01*
X73209012Y-87470392D01*
X73166166Y-87470919D01*
X73115579Y-87471326D01*
X73056419Y-87471687D01*
X72994550Y-87472036D01*
X72668160Y-87473907D01*
X72668160Y-86868720D01*
X72967880Y-86868720D01*
X72967880Y-87321602D01*
X73068210Y-87319951D01*
X73102593Y-87319343D01*
X73128456Y-87318673D01*
X73147435Y-87317738D01*
X73161167Y-87316333D01*
X73171291Y-87314253D01*
X73179444Y-87311296D01*
X73187263Y-87307256D01*
X73191973Y-87304524D01*
X73223179Y-87280555D01*
X73248478Y-87249586D01*
X73259443Y-87229658D01*
X73262864Y-87221617D01*
X73265470Y-87213230D01*
X73267370Y-87203029D01*
X73268674Y-87189551D01*
X73269493Y-87171328D01*
X73269937Y-87146895D01*
X73270114Y-87114788D01*
X73270140Y-87087160D01*
X73270140Y-86967780D01*
X73255775Y-86938527D01*
X73244484Y-86918262D01*
X73231888Y-86902224D01*
X73216706Y-86889949D01*
X73197659Y-86880970D01*
X73173466Y-86874824D01*
X73142848Y-86871044D01*
X73104524Y-86869167D01*
X73063592Y-86868720D01*
X72967880Y-86868720D01*
X72668160Y-86868720D01*
X72668160Y-86716320D01*
X72967880Y-86716320D01*
X73063130Y-86716270D01*
X73096915Y-86716176D01*
X73122297Y-86715818D01*
X73141030Y-86715024D01*
X73154871Y-86713620D01*
X73165575Y-86711432D01*
X73174898Y-86708287D01*
X73183883Y-86704344D01*
X73208991Y-86688570D01*
X73232534Y-86666520D01*
X73251863Y-86641164D01*
X73264331Y-86615472D01*
X73265009Y-86613304D01*
X73268271Y-86596236D01*
X73270700Y-86571336D01*
X73272296Y-86540896D01*
X73273059Y-86507210D01*
X73272988Y-86472571D01*
X73272085Y-86439273D01*
X73270349Y-86409607D01*
X73267779Y-86385869D01*
X73265009Y-86372295D01*
X73253268Y-86346716D01*
X73234434Y-86321212D01*
X73211155Y-86298753D01*
X73186077Y-86282310D01*
X73183883Y-86281255D01*
X73174267Y-86277062D01*
X73164906Y-86273989D01*
X73154042Y-86271860D01*
X73139922Y-86270503D01*
X73120789Y-86269744D01*
X73094887Y-86269410D01*
X73063130Y-86269329D01*
X72967880Y-86269280D01*
X72967880Y-86716320D01*
X72668160Y-86716320D01*
X72668160Y-86116154D01*
X72994550Y-86118027D01*
G04 #@! TD*
M02*
